G04 #@! TF.GenerationSoftware,KiCad,Pcbnew,(5.1.5)-3*
G04 #@! TF.CreationDate,2021-02-28T22:04:56+01:00*
G04 #@! TF.ProjectId,g4_eval,67345f65-7661-46c2-9e6b-696361645f70,rev?*
G04 #@! TF.SameCoordinates,Original*
G04 #@! TF.FileFunction,Legend,Bot*
G04 #@! TF.FilePolarity,Positive*
%FSLAX46Y46*%
G04 Gerber Fmt 4.6, Leading zero omitted, Abs format (unit mm)*
G04 Created by KiCad (PCBNEW (5.1.5)-3) date 2021-02-28 22:04:56*
%MOMM*%
%LPD*%
G04 APERTURE LIST*
%ADD10C,0.500000*%
G04 APERTURE END LIST*
D10*
X237785952Y-133387142D02*
X237785952Y-130387142D01*
X237785952Y-131815714D02*
X236300238Y-131815714D01*
X236300238Y-133387142D02*
X236300238Y-130387142D01*
X235433571Y-130387142D02*
X233947857Y-130387142D01*
X234690714Y-133387142D02*
X234690714Y-130387142D01*
X230233571Y-131815714D02*
X229862142Y-131958571D01*
X229738333Y-132101428D01*
X229614523Y-132387142D01*
X229614523Y-132815714D01*
X229738333Y-133101428D01*
X229862142Y-133244285D01*
X230109761Y-133387142D01*
X231100238Y-133387142D01*
X231100238Y-130387142D01*
X230233571Y-130387142D01*
X229985952Y-130530000D01*
X229862142Y-130672857D01*
X229738333Y-130958571D01*
X229738333Y-131244285D01*
X229862142Y-131530000D01*
X229985952Y-131672857D01*
X230233571Y-131815714D01*
X231100238Y-131815714D01*
X228128809Y-133387142D02*
X228376428Y-133244285D01*
X228500238Y-132958571D01*
X228500238Y-130387142D01*
X226766904Y-133387142D02*
X227014523Y-133244285D01*
X227138333Y-133101428D01*
X227262142Y-132815714D01*
X227262142Y-131958571D01*
X227138333Y-131672857D01*
X227014523Y-131530000D01*
X226766904Y-131387142D01*
X226395476Y-131387142D01*
X226147857Y-131530000D01*
X226024047Y-131672857D01*
X225900238Y-131958571D01*
X225900238Y-132815714D01*
X226024047Y-133101428D01*
X226147857Y-133244285D01*
X226395476Y-133387142D01*
X226766904Y-133387142D01*
X223671666Y-131387142D02*
X223671666Y-133815714D01*
X223795476Y-134101428D01*
X223919285Y-134244285D01*
X224166904Y-134387142D01*
X224538333Y-134387142D01*
X224785952Y-134244285D01*
X223671666Y-133244285D02*
X223919285Y-133387142D01*
X224414523Y-133387142D01*
X224662142Y-133244285D01*
X224785952Y-133101428D01*
X224909761Y-132815714D01*
X224909761Y-131958571D01*
X224785952Y-131672857D01*
X224662142Y-131530000D01*
X224414523Y-131387142D01*
X223919285Y-131387142D01*
X223671666Y-131530000D01*
X237909761Y-135672857D02*
X237785952Y-135530000D01*
X237538333Y-135387142D01*
X236919285Y-135387142D01*
X236671666Y-135530000D01*
X236547857Y-135672857D01*
X236424047Y-135958571D01*
X236424047Y-136244285D01*
X236547857Y-136672857D01*
X238033571Y-138387142D01*
X236424047Y-138387142D01*
X234938333Y-136672857D02*
X235185952Y-136530000D01*
X235309761Y-136387142D01*
X235433571Y-136101428D01*
X235433571Y-135958571D01*
X235309761Y-135672857D01*
X235185952Y-135530000D01*
X234938333Y-135387142D01*
X234443095Y-135387142D01*
X234195476Y-135530000D01*
X234071666Y-135672857D01*
X233947857Y-135958571D01*
X233947857Y-136101428D01*
X234071666Y-136387142D01*
X234195476Y-136530000D01*
X234443095Y-136672857D01*
X234938333Y-136672857D01*
X235185952Y-136815714D01*
X235309761Y-136958571D01*
X235433571Y-137244285D01*
X235433571Y-137815714D01*
X235309761Y-138101428D01*
X235185952Y-138244285D01*
X234938333Y-138387142D01*
X234443095Y-138387142D01*
X234195476Y-138244285D01*
X234071666Y-138101428D01*
X233947857Y-137815714D01*
X233947857Y-137244285D01*
X234071666Y-136958571D01*
X234195476Y-136815714D01*
X234443095Y-136672857D01*
X232833571Y-138101428D02*
X232709761Y-138244285D01*
X232833571Y-138387142D01*
X232957380Y-138244285D01*
X232833571Y-138101428D01*
X232833571Y-138387142D01*
X231100238Y-135387142D02*
X230852619Y-135387142D01*
X230605000Y-135530000D01*
X230481190Y-135672857D01*
X230357380Y-135958571D01*
X230233571Y-136530000D01*
X230233571Y-137244285D01*
X230357380Y-137815714D01*
X230481190Y-138101428D01*
X230605000Y-138244285D01*
X230852619Y-138387142D01*
X231100238Y-138387142D01*
X231347857Y-138244285D01*
X231471666Y-138101428D01*
X231595476Y-137815714D01*
X231719285Y-137244285D01*
X231719285Y-136530000D01*
X231595476Y-135958571D01*
X231471666Y-135672857D01*
X231347857Y-135530000D01*
X231100238Y-135387142D01*
X229243095Y-135672857D02*
X229119285Y-135530000D01*
X228871666Y-135387142D01*
X228252619Y-135387142D01*
X228005000Y-135530000D01*
X227881190Y-135672857D01*
X227757380Y-135958571D01*
X227757380Y-136244285D01*
X227881190Y-136672857D01*
X229366904Y-138387142D01*
X227757380Y-138387142D01*
X226643095Y-138101428D02*
X226519285Y-138244285D01*
X226643095Y-138387142D01*
X226766904Y-138244285D01*
X226643095Y-138101428D01*
X226643095Y-138387142D01*
X225528809Y-135672857D02*
X225405000Y-135530000D01*
X225157380Y-135387142D01*
X224538333Y-135387142D01*
X224290714Y-135530000D01*
X224166904Y-135672857D01*
X224043095Y-135958571D01*
X224043095Y-136244285D01*
X224166904Y-136672857D01*
X225652619Y-138387142D01*
X224043095Y-138387142D01*
X222433571Y-135387142D02*
X222185952Y-135387142D01*
X221938333Y-135530000D01*
X221814523Y-135672857D01*
X221690714Y-135958571D01*
X221566904Y-136530000D01*
X221566904Y-137244285D01*
X221690714Y-137815714D01*
X221814523Y-138101428D01*
X221938333Y-138244285D01*
X222185952Y-138387142D01*
X222433571Y-138387142D01*
X222681190Y-138244285D01*
X222805000Y-138101428D01*
X222928809Y-137815714D01*
X223052619Y-137244285D01*
X223052619Y-136530000D01*
X222928809Y-135958571D01*
X222805000Y-135672857D01*
X222681190Y-135530000D01*
X222433571Y-135387142D01*
X220576428Y-135672857D02*
X220452619Y-135530000D01*
X220205000Y-135387142D01*
X219585952Y-135387142D01*
X219338333Y-135530000D01*
X219214523Y-135672857D01*
X219090714Y-135958571D01*
X219090714Y-136244285D01*
X219214523Y-136672857D01*
X220700238Y-138387142D01*
X219090714Y-138387142D01*
X216614523Y-138387142D02*
X218100238Y-138387142D01*
X217357380Y-138387142D02*
X217357380Y-135387142D01*
X217605000Y-135815714D01*
X217852619Y-136101428D01*
X218100238Y-136244285D01*
M02*
