G04 #@! TF.GenerationSoftware,KiCad,Pcbnew,(5.1.5)-3*
G04 #@! TF.CreationDate,2021-02-28T22:04:56+01:00*
G04 #@! TF.ProjectId,g4_eval,67345f65-7661-46c2-9e6b-696361645f70,rev?*
G04 #@! TF.SameCoordinates,Original*
G04 #@! TF.FileFunction,Soldermask,Bot*
G04 #@! TF.FilePolarity,Negative*
%FSLAX46Y46*%
G04 Gerber Fmt 4.6, Leading zero omitted, Abs format (unit mm)*
G04 Created by KiCad (PCBNEW (5.1.5)-3) date 2021-02-28 22:04:56*
%MOMM*%
%LPD*%
G04 APERTURE LIST*
%ADD10C,0.100000*%
G04 APERTURE END LIST*
D10*
G36*
X250634239Y-141811467D02*
G01*
X250948282Y-141873934D01*
X251539926Y-142119001D01*
X252072392Y-142474784D01*
X252525216Y-142927608D01*
X252880999Y-143460074D01*
X253126066Y-144051718D01*
X253126066Y-144051719D01*
X253251000Y-144679803D01*
X253251000Y-145320197D01*
X253188533Y-145634239D01*
X253126066Y-145948282D01*
X252880999Y-146539926D01*
X252525216Y-147072392D01*
X252072392Y-147525216D01*
X251539926Y-147880999D01*
X250948282Y-148126066D01*
X250634239Y-148188533D01*
X250320197Y-148251000D01*
X249679803Y-148251000D01*
X249365761Y-148188533D01*
X249051718Y-148126066D01*
X248460074Y-147880999D01*
X247927608Y-147525216D01*
X247474784Y-147072392D01*
X247119001Y-146539926D01*
X246873934Y-145948282D01*
X246811467Y-145634239D01*
X246749000Y-145320197D01*
X246749000Y-144679803D01*
X246873934Y-144051719D01*
X246873934Y-144051718D01*
X247119001Y-143460074D01*
X247474784Y-142927608D01*
X247927608Y-142474784D01*
X248460074Y-142119001D01*
X249051718Y-141873934D01*
X249365761Y-141811467D01*
X249679803Y-141749000D01*
X250320197Y-141749000D01*
X250634239Y-141811467D01*
G37*
G36*
X171134239Y-141811467D02*
G01*
X171448282Y-141873934D01*
X172039926Y-142119001D01*
X172572392Y-142474784D01*
X173025216Y-142927608D01*
X173380999Y-143460074D01*
X173626066Y-144051718D01*
X173626066Y-144051719D01*
X173751000Y-144679803D01*
X173751000Y-145320197D01*
X173688533Y-145634239D01*
X173626066Y-145948282D01*
X173380999Y-146539926D01*
X173025216Y-147072392D01*
X172572392Y-147525216D01*
X172039926Y-147880999D01*
X171448282Y-148126066D01*
X171134239Y-148188533D01*
X170820197Y-148251000D01*
X170179803Y-148251000D01*
X169865761Y-148188533D01*
X169551718Y-148126066D01*
X168960074Y-147880999D01*
X168427608Y-147525216D01*
X167974784Y-147072392D01*
X167619001Y-146539926D01*
X167373934Y-145948282D01*
X167311467Y-145634239D01*
X167249000Y-145320197D01*
X167249000Y-144679803D01*
X167373934Y-144051719D01*
X167373934Y-144051718D01*
X167619001Y-143460074D01*
X167974784Y-142927608D01*
X168427608Y-142474784D01*
X168960074Y-142119001D01*
X169551718Y-141873934D01*
X169865761Y-141811467D01*
X170179803Y-141749000D01*
X170820197Y-141749000D01*
X171134239Y-141811467D01*
G37*
G36*
X228653512Y-142943927D02*
G01*
X228802812Y-142973624D01*
X228966784Y-143041544D01*
X229114354Y-143140147D01*
X229239853Y-143265646D01*
X229338456Y-143413216D01*
X229406376Y-143577188D01*
X229441000Y-143751259D01*
X229441000Y-143928741D01*
X229406376Y-144102812D01*
X229338456Y-144266784D01*
X229239853Y-144414354D01*
X229114354Y-144539853D01*
X228966784Y-144638456D01*
X228802812Y-144706376D01*
X228653512Y-144736073D01*
X228628742Y-144741000D01*
X228451258Y-144741000D01*
X228426488Y-144736073D01*
X228277188Y-144706376D01*
X228113216Y-144638456D01*
X227965646Y-144539853D01*
X227840147Y-144414354D01*
X227741544Y-144266784D01*
X227673624Y-144102812D01*
X227639000Y-143928741D01*
X227639000Y-143751259D01*
X227673624Y-143577188D01*
X227741544Y-143413216D01*
X227840147Y-143265646D01*
X227965646Y-143140147D01*
X228113216Y-143041544D01*
X228277188Y-142973624D01*
X228426488Y-142943927D01*
X228451258Y-142939000D01*
X228628742Y-142939000D01*
X228653512Y-142943927D01*
G37*
G36*
X231193512Y-142943927D02*
G01*
X231342812Y-142973624D01*
X231506784Y-143041544D01*
X231654354Y-143140147D01*
X231779853Y-143265646D01*
X231878456Y-143413216D01*
X231946376Y-143577188D01*
X231981000Y-143751259D01*
X231981000Y-143928741D01*
X231946376Y-144102812D01*
X231878456Y-144266784D01*
X231779853Y-144414354D01*
X231654354Y-144539853D01*
X231506784Y-144638456D01*
X231342812Y-144706376D01*
X231193512Y-144736073D01*
X231168742Y-144741000D01*
X230991258Y-144741000D01*
X230966488Y-144736073D01*
X230817188Y-144706376D01*
X230653216Y-144638456D01*
X230505646Y-144539853D01*
X230380147Y-144414354D01*
X230281544Y-144266784D01*
X230213624Y-144102812D01*
X230179000Y-143928741D01*
X230179000Y-143751259D01*
X230213624Y-143577188D01*
X230281544Y-143413216D01*
X230380147Y-143265646D01*
X230505646Y-143140147D01*
X230653216Y-143041544D01*
X230817188Y-142973624D01*
X230966488Y-142943927D01*
X230991258Y-142939000D01*
X231168742Y-142939000D01*
X231193512Y-142943927D01*
G37*
G36*
X203253512Y-142943927D02*
G01*
X203402812Y-142973624D01*
X203566784Y-143041544D01*
X203714354Y-143140147D01*
X203839853Y-143265646D01*
X203938456Y-143413216D01*
X204006376Y-143577188D01*
X204041000Y-143751259D01*
X204041000Y-143928741D01*
X204006376Y-144102812D01*
X203938456Y-144266784D01*
X203839853Y-144414354D01*
X203714354Y-144539853D01*
X203566784Y-144638456D01*
X203402812Y-144706376D01*
X203253512Y-144736073D01*
X203228742Y-144741000D01*
X203051258Y-144741000D01*
X203026488Y-144736073D01*
X202877188Y-144706376D01*
X202713216Y-144638456D01*
X202565646Y-144539853D01*
X202440147Y-144414354D01*
X202341544Y-144266784D01*
X202273624Y-144102812D01*
X202239000Y-143928741D01*
X202239000Y-143751259D01*
X202273624Y-143577188D01*
X202341544Y-143413216D01*
X202440147Y-143265646D01*
X202565646Y-143140147D01*
X202713216Y-143041544D01*
X202877188Y-142973624D01*
X203026488Y-142943927D01*
X203051258Y-142939000D01*
X203228742Y-142939000D01*
X203253512Y-142943927D01*
G37*
G36*
X200713512Y-142943927D02*
G01*
X200862812Y-142973624D01*
X201026784Y-143041544D01*
X201174354Y-143140147D01*
X201299853Y-143265646D01*
X201398456Y-143413216D01*
X201466376Y-143577188D01*
X201501000Y-143751259D01*
X201501000Y-143928741D01*
X201466376Y-144102812D01*
X201398456Y-144266784D01*
X201299853Y-144414354D01*
X201174354Y-144539853D01*
X201026784Y-144638456D01*
X200862812Y-144706376D01*
X200713512Y-144736073D01*
X200688742Y-144741000D01*
X200511258Y-144741000D01*
X200486488Y-144736073D01*
X200337188Y-144706376D01*
X200173216Y-144638456D01*
X200025646Y-144539853D01*
X199900147Y-144414354D01*
X199801544Y-144266784D01*
X199733624Y-144102812D01*
X199699000Y-143928741D01*
X199699000Y-143751259D01*
X199733624Y-143577188D01*
X199801544Y-143413216D01*
X199900147Y-143265646D01*
X200025646Y-143140147D01*
X200173216Y-143041544D01*
X200337188Y-142973624D01*
X200486488Y-142943927D01*
X200511258Y-142939000D01*
X200688742Y-142939000D01*
X200713512Y-142943927D01*
G37*
G36*
X198173512Y-142943927D02*
G01*
X198322812Y-142973624D01*
X198486784Y-143041544D01*
X198634354Y-143140147D01*
X198759853Y-143265646D01*
X198858456Y-143413216D01*
X198926376Y-143577188D01*
X198961000Y-143751259D01*
X198961000Y-143928741D01*
X198926376Y-144102812D01*
X198858456Y-144266784D01*
X198759853Y-144414354D01*
X198634354Y-144539853D01*
X198486784Y-144638456D01*
X198322812Y-144706376D01*
X198173512Y-144736073D01*
X198148742Y-144741000D01*
X197971258Y-144741000D01*
X197946488Y-144736073D01*
X197797188Y-144706376D01*
X197633216Y-144638456D01*
X197485646Y-144539853D01*
X197360147Y-144414354D01*
X197261544Y-144266784D01*
X197193624Y-144102812D01*
X197159000Y-143928741D01*
X197159000Y-143751259D01*
X197193624Y-143577188D01*
X197261544Y-143413216D01*
X197360147Y-143265646D01*
X197485646Y-143140147D01*
X197633216Y-143041544D01*
X197797188Y-142973624D01*
X197946488Y-142943927D01*
X197971258Y-142939000D01*
X198148742Y-142939000D01*
X198173512Y-142943927D01*
G37*
G36*
X195633512Y-142943927D02*
G01*
X195782812Y-142973624D01*
X195946784Y-143041544D01*
X196094354Y-143140147D01*
X196219853Y-143265646D01*
X196318456Y-143413216D01*
X196386376Y-143577188D01*
X196421000Y-143751259D01*
X196421000Y-143928741D01*
X196386376Y-144102812D01*
X196318456Y-144266784D01*
X196219853Y-144414354D01*
X196094354Y-144539853D01*
X195946784Y-144638456D01*
X195782812Y-144706376D01*
X195633512Y-144736073D01*
X195608742Y-144741000D01*
X195431258Y-144741000D01*
X195406488Y-144736073D01*
X195257188Y-144706376D01*
X195093216Y-144638456D01*
X194945646Y-144539853D01*
X194820147Y-144414354D01*
X194721544Y-144266784D01*
X194653624Y-144102812D01*
X194619000Y-143928741D01*
X194619000Y-143751259D01*
X194653624Y-143577188D01*
X194721544Y-143413216D01*
X194820147Y-143265646D01*
X194945646Y-143140147D01*
X195093216Y-143041544D01*
X195257188Y-142973624D01*
X195406488Y-142943927D01*
X195431258Y-142939000D01*
X195608742Y-142939000D01*
X195633512Y-142943927D01*
G37*
G36*
X193093512Y-142943927D02*
G01*
X193242812Y-142973624D01*
X193406784Y-143041544D01*
X193554354Y-143140147D01*
X193679853Y-143265646D01*
X193778456Y-143413216D01*
X193846376Y-143577188D01*
X193881000Y-143751259D01*
X193881000Y-143928741D01*
X193846376Y-144102812D01*
X193778456Y-144266784D01*
X193679853Y-144414354D01*
X193554354Y-144539853D01*
X193406784Y-144638456D01*
X193242812Y-144706376D01*
X193093512Y-144736073D01*
X193068742Y-144741000D01*
X192891258Y-144741000D01*
X192866488Y-144736073D01*
X192717188Y-144706376D01*
X192553216Y-144638456D01*
X192405646Y-144539853D01*
X192280147Y-144414354D01*
X192181544Y-144266784D01*
X192113624Y-144102812D01*
X192079000Y-143928741D01*
X192079000Y-143751259D01*
X192113624Y-143577188D01*
X192181544Y-143413216D01*
X192280147Y-143265646D01*
X192405646Y-143140147D01*
X192553216Y-143041544D01*
X192717188Y-142973624D01*
X192866488Y-142943927D01*
X192891258Y-142939000D01*
X193068742Y-142939000D01*
X193093512Y-142943927D01*
G37*
G36*
X190553512Y-142943927D02*
G01*
X190702812Y-142973624D01*
X190866784Y-143041544D01*
X191014354Y-143140147D01*
X191139853Y-143265646D01*
X191238456Y-143413216D01*
X191306376Y-143577188D01*
X191341000Y-143751259D01*
X191341000Y-143928741D01*
X191306376Y-144102812D01*
X191238456Y-144266784D01*
X191139853Y-144414354D01*
X191014354Y-144539853D01*
X190866784Y-144638456D01*
X190702812Y-144706376D01*
X190553512Y-144736073D01*
X190528742Y-144741000D01*
X190351258Y-144741000D01*
X190326488Y-144736073D01*
X190177188Y-144706376D01*
X190013216Y-144638456D01*
X189865646Y-144539853D01*
X189740147Y-144414354D01*
X189641544Y-144266784D01*
X189573624Y-144102812D01*
X189539000Y-143928741D01*
X189539000Y-143751259D01*
X189573624Y-143577188D01*
X189641544Y-143413216D01*
X189740147Y-143265646D01*
X189865646Y-143140147D01*
X190013216Y-143041544D01*
X190177188Y-142973624D01*
X190326488Y-142943927D01*
X190351258Y-142939000D01*
X190528742Y-142939000D01*
X190553512Y-142943927D01*
G37*
G36*
X205793512Y-142943927D02*
G01*
X205942812Y-142973624D01*
X206106784Y-143041544D01*
X206254354Y-143140147D01*
X206379853Y-143265646D01*
X206478456Y-143413216D01*
X206546376Y-143577188D01*
X206581000Y-143751259D01*
X206581000Y-143928741D01*
X206546376Y-144102812D01*
X206478456Y-144266784D01*
X206379853Y-144414354D01*
X206254354Y-144539853D01*
X206106784Y-144638456D01*
X205942812Y-144706376D01*
X205793512Y-144736073D01*
X205768742Y-144741000D01*
X205591258Y-144741000D01*
X205566488Y-144736073D01*
X205417188Y-144706376D01*
X205253216Y-144638456D01*
X205105646Y-144539853D01*
X204980147Y-144414354D01*
X204881544Y-144266784D01*
X204813624Y-144102812D01*
X204779000Y-143928741D01*
X204779000Y-143751259D01*
X204813624Y-143577188D01*
X204881544Y-143413216D01*
X204980147Y-143265646D01*
X205105646Y-143140147D01*
X205253216Y-143041544D01*
X205417188Y-142973624D01*
X205566488Y-142943927D01*
X205591258Y-142939000D01*
X205768742Y-142939000D01*
X205793512Y-142943927D01*
G37*
G36*
X208333512Y-142943927D02*
G01*
X208482812Y-142973624D01*
X208646784Y-143041544D01*
X208794354Y-143140147D01*
X208919853Y-143265646D01*
X209018456Y-143413216D01*
X209086376Y-143577188D01*
X209121000Y-143751259D01*
X209121000Y-143928741D01*
X209086376Y-144102812D01*
X209018456Y-144266784D01*
X208919853Y-144414354D01*
X208794354Y-144539853D01*
X208646784Y-144638456D01*
X208482812Y-144706376D01*
X208333512Y-144736073D01*
X208308742Y-144741000D01*
X208131258Y-144741000D01*
X208106488Y-144736073D01*
X207957188Y-144706376D01*
X207793216Y-144638456D01*
X207645646Y-144539853D01*
X207520147Y-144414354D01*
X207421544Y-144266784D01*
X207353624Y-144102812D01*
X207319000Y-143928741D01*
X207319000Y-143751259D01*
X207353624Y-143577188D01*
X207421544Y-143413216D01*
X207520147Y-143265646D01*
X207645646Y-143140147D01*
X207793216Y-143041544D01*
X207957188Y-142973624D01*
X208106488Y-142943927D01*
X208131258Y-142939000D01*
X208308742Y-142939000D01*
X208333512Y-142943927D01*
G37*
G36*
X210873512Y-142943927D02*
G01*
X211022812Y-142973624D01*
X211186784Y-143041544D01*
X211334354Y-143140147D01*
X211459853Y-143265646D01*
X211558456Y-143413216D01*
X211626376Y-143577188D01*
X211661000Y-143751259D01*
X211661000Y-143928741D01*
X211626376Y-144102812D01*
X211558456Y-144266784D01*
X211459853Y-144414354D01*
X211334354Y-144539853D01*
X211186784Y-144638456D01*
X211022812Y-144706376D01*
X210873512Y-144736073D01*
X210848742Y-144741000D01*
X210671258Y-144741000D01*
X210646488Y-144736073D01*
X210497188Y-144706376D01*
X210333216Y-144638456D01*
X210185646Y-144539853D01*
X210060147Y-144414354D01*
X209961544Y-144266784D01*
X209893624Y-144102812D01*
X209859000Y-143928741D01*
X209859000Y-143751259D01*
X209893624Y-143577188D01*
X209961544Y-143413216D01*
X210060147Y-143265646D01*
X210185646Y-143140147D01*
X210333216Y-143041544D01*
X210497188Y-142973624D01*
X210646488Y-142943927D01*
X210671258Y-142939000D01*
X210848742Y-142939000D01*
X210873512Y-142943927D01*
G37*
G36*
X215953512Y-142943927D02*
G01*
X216102812Y-142973624D01*
X216266784Y-143041544D01*
X216414354Y-143140147D01*
X216539853Y-143265646D01*
X216638456Y-143413216D01*
X216706376Y-143577188D01*
X216741000Y-143751259D01*
X216741000Y-143928741D01*
X216706376Y-144102812D01*
X216638456Y-144266784D01*
X216539853Y-144414354D01*
X216414354Y-144539853D01*
X216266784Y-144638456D01*
X216102812Y-144706376D01*
X215953512Y-144736073D01*
X215928742Y-144741000D01*
X215751258Y-144741000D01*
X215726488Y-144736073D01*
X215577188Y-144706376D01*
X215413216Y-144638456D01*
X215265646Y-144539853D01*
X215140147Y-144414354D01*
X215041544Y-144266784D01*
X214973624Y-144102812D01*
X214939000Y-143928741D01*
X214939000Y-143751259D01*
X214973624Y-143577188D01*
X215041544Y-143413216D01*
X215140147Y-143265646D01*
X215265646Y-143140147D01*
X215413216Y-143041544D01*
X215577188Y-142973624D01*
X215726488Y-142943927D01*
X215751258Y-142939000D01*
X215928742Y-142939000D01*
X215953512Y-142943927D01*
G37*
G36*
X218493512Y-142943927D02*
G01*
X218642812Y-142973624D01*
X218806784Y-143041544D01*
X218954354Y-143140147D01*
X219079853Y-143265646D01*
X219178456Y-143413216D01*
X219246376Y-143577188D01*
X219281000Y-143751259D01*
X219281000Y-143928741D01*
X219246376Y-144102812D01*
X219178456Y-144266784D01*
X219079853Y-144414354D01*
X218954354Y-144539853D01*
X218806784Y-144638456D01*
X218642812Y-144706376D01*
X218493512Y-144736073D01*
X218468742Y-144741000D01*
X218291258Y-144741000D01*
X218266488Y-144736073D01*
X218117188Y-144706376D01*
X217953216Y-144638456D01*
X217805646Y-144539853D01*
X217680147Y-144414354D01*
X217581544Y-144266784D01*
X217513624Y-144102812D01*
X217479000Y-143928741D01*
X217479000Y-143751259D01*
X217513624Y-143577188D01*
X217581544Y-143413216D01*
X217680147Y-143265646D01*
X217805646Y-143140147D01*
X217953216Y-143041544D01*
X218117188Y-142973624D01*
X218266488Y-142943927D01*
X218291258Y-142939000D01*
X218468742Y-142939000D01*
X218493512Y-142943927D01*
G37*
G36*
X221033512Y-142943927D02*
G01*
X221182812Y-142973624D01*
X221346784Y-143041544D01*
X221494354Y-143140147D01*
X221619853Y-143265646D01*
X221718456Y-143413216D01*
X221786376Y-143577188D01*
X221821000Y-143751259D01*
X221821000Y-143928741D01*
X221786376Y-144102812D01*
X221718456Y-144266784D01*
X221619853Y-144414354D01*
X221494354Y-144539853D01*
X221346784Y-144638456D01*
X221182812Y-144706376D01*
X221033512Y-144736073D01*
X221008742Y-144741000D01*
X220831258Y-144741000D01*
X220806488Y-144736073D01*
X220657188Y-144706376D01*
X220493216Y-144638456D01*
X220345646Y-144539853D01*
X220220147Y-144414354D01*
X220121544Y-144266784D01*
X220053624Y-144102812D01*
X220019000Y-143928741D01*
X220019000Y-143751259D01*
X220053624Y-143577188D01*
X220121544Y-143413216D01*
X220220147Y-143265646D01*
X220345646Y-143140147D01*
X220493216Y-143041544D01*
X220657188Y-142973624D01*
X220806488Y-142943927D01*
X220831258Y-142939000D01*
X221008742Y-142939000D01*
X221033512Y-142943927D01*
G37*
G36*
X223573512Y-142943927D02*
G01*
X223722812Y-142973624D01*
X223886784Y-143041544D01*
X224034354Y-143140147D01*
X224159853Y-143265646D01*
X224258456Y-143413216D01*
X224326376Y-143577188D01*
X224361000Y-143751259D01*
X224361000Y-143928741D01*
X224326376Y-144102812D01*
X224258456Y-144266784D01*
X224159853Y-144414354D01*
X224034354Y-144539853D01*
X223886784Y-144638456D01*
X223722812Y-144706376D01*
X223573512Y-144736073D01*
X223548742Y-144741000D01*
X223371258Y-144741000D01*
X223346488Y-144736073D01*
X223197188Y-144706376D01*
X223033216Y-144638456D01*
X222885646Y-144539853D01*
X222760147Y-144414354D01*
X222661544Y-144266784D01*
X222593624Y-144102812D01*
X222559000Y-143928741D01*
X222559000Y-143751259D01*
X222593624Y-143577188D01*
X222661544Y-143413216D01*
X222760147Y-143265646D01*
X222885646Y-143140147D01*
X223033216Y-143041544D01*
X223197188Y-142973624D01*
X223346488Y-142943927D01*
X223371258Y-142939000D01*
X223548742Y-142939000D01*
X223573512Y-142943927D01*
G37*
G36*
X226113512Y-142943927D02*
G01*
X226262812Y-142973624D01*
X226426784Y-143041544D01*
X226574354Y-143140147D01*
X226699853Y-143265646D01*
X226798456Y-143413216D01*
X226866376Y-143577188D01*
X226901000Y-143751259D01*
X226901000Y-143928741D01*
X226866376Y-144102812D01*
X226798456Y-144266784D01*
X226699853Y-144414354D01*
X226574354Y-144539853D01*
X226426784Y-144638456D01*
X226262812Y-144706376D01*
X226113512Y-144736073D01*
X226088742Y-144741000D01*
X225911258Y-144741000D01*
X225886488Y-144736073D01*
X225737188Y-144706376D01*
X225573216Y-144638456D01*
X225425646Y-144539853D01*
X225300147Y-144414354D01*
X225201544Y-144266784D01*
X225133624Y-144102812D01*
X225099000Y-143928741D01*
X225099000Y-143751259D01*
X225133624Y-143577188D01*
X225201544Y-143413216D01*
X225300147Y-143265646D01*
X225425646Y-143140147D01*
X225573216Y-143041544D01*
X225737188Y-142973624D01*
X225886488Y-142943927D01*
X225911258Y-142939000D01*
X226088742Y-142939000D01*
X226113512Y-142943927D01*
G37*
G36*
X238813512Y-142943927D02*
G01*
X238962812Y-142973624D01*
X239126784Y-143041544D01*
X239274354Y-143140147D01*
X239399853Y-143265646D01*
X239498456Y-143413216D01*
X239566376Y-143577188D01*
X239601000Y-143751259D01*
X239601000Y-143928741D01*
X239566376Y-144102812D01*
X239498456Y-144266784D01*
X239399853Y-144414354D01*
X239274354Y-144539853D01*
X239126784Y-144638456D01*
X238962812Y-144706376D01*
X238813512Y-144736073D01*
X238788742Y-144741000D01*
X238611258Y-144741000D01*
X238586488Y-144736073D01*
X238437188Y-144706376D01*
X238273216Y-144638456D01*
X238125646Y-144539853D01*
X238000147Y-144414354D01*
X237901544Y-144266784D01*
X237833624Y-144102812D01*
X237799000Y-143928741D01*
X237799000Y-143751259D01*
X237833624Y-143577188D01*
X237901544Y-143413216D01*
X238000147Y-143265646D01*
X238125646Y-143140147D01*
X238273216Y-143041544D01*
X238437188Y-142973624D01*
X238586488Y-142943927D01*
X238611258Y-142939000D01*
X238788742Y-142939000D01*
X238813512Y-142943927D01*
G37*
G36*
X236273512Y-142943927D02*
G01*
X236422812Y-142973624D01*
X236586784Y-143041544D01*
X236734354Y-143140147D01*
X236859853Y-143265646D01*
X236958456Y-143413216D01*
X237026376Y-143577188D01*
X237061000Y-143751259D01*
X237061000Y-143928741D01*
X237026376Y-144102812D01*
X236958456Y-144266784D01*
X236859853Y-144414354D01*
X236734354Y-144539853D01*
X236586784Y-144638456D01*
X236422812Y-144706376D01*
X236273512Y-144736073D01*
X236248742Y-144741000D01*
X236071258Y-144741000D01*
X236046488Y-144736073D01*
X235897188Y-144706376D01*
X235733216Y-144638456D01*
X235585646Y-144539853D01*
X235460147Y-144414354D01*
X235361544Y-144266784D01*
X235293624Y-144102812D01*
X235259000Y-143928741D01*
X235259000Y-143751259D01*
X235293624Y-143577188D01*
X235361544Y-143413216D01*
X235460147Y-143265646D01*
X235585646Y-143140147D01*
X235733216Y-143041544D01*
X235897188Y-142973624D01*
X236046488Y-142943927D01*
X236071258Y-142939000D01*
X236248742Y-142939000D01*
X236273512Y-142943927D01*
G37*
G36*
X233733512Y-142943927D02*
G01*
X233882812Y-142973624D01*
X234046784Y-143041544D01*
X234194354Y-143140147D01*
X234319853Y-143265646D01*
X234418456Y-143413216D01*
X234486376Y-143577188D01*
X234521000Y-143751259D01*
X234521000Y-143928741D01*
X234486376Y-144102812D01*
X234418456Y-144266784D01*
X234319853Y-144414354D01*
X234194354Y-144539853D01*
X234046784Y-144638456D01*
X233882812Y-144706376D01*
X233733512Y-144736073D01*
X233708742Y-144741000D01*
X233531258Y-144741000D01*
X233506488Y-144736073D01*
X233357188Y-144706376D01*
X233193216Y-144638456D01*
X233045646Y-144539853D01*
X232920147Y-144414354D01*
X232821544Y-144266784D01*
X232753624Y-144102812D01*
X232719000Y-143928741D01*
X232719000Y-143751259D01*
X232753624Y-143577188D01*
X232821544Y-143413216D01*
X232920147Y-143265646D01*
X233045646Y-143140147D01*
X233193216Y-143041544D01*
X233357188Y-142973624D01*
X233506488Y-142943927D01*
X233531258Y-142939000D01*
X233708742Y-142939000D01*
X233733512Y-142943927D01*
G37*
G36*
X213413512Y-142943927D02*
G01*
X213562812Y-142973624D01*
X213726784Y-143041544D01*
X213874354Y-143140147D01*
X213999853Y-143265646D01*
X214098456Y-143413216D01*
X214166376Y-143577188D01*
X214201000Y-143751259D01*
X214201000Y-143928741D01*
X214166376Y-144102812D01*
X214098456Y-144266784D01*
X213999853Y-144414354D01*
X213874354Y-144539853D01*
X213726784Y-144638456D01*
X213562812Y-144706376D01*
X213413512Y-144736073D01*
X213388742Y-144741000D01*
X213211258Y-144741000D01*
X213186488Y-144736073D01*
X213037188Y-144706376D01*
X212873216Y-144638456D01*
X212725646Y-144539853D01*
X212600147Y-144414354D01*
X212501544Y-144266784D01*
X212433624Y-144102812D01*
X212399000Y-143928741D01*
X212399000Y-143751259D01*
X212433624Y-143577188D01*
X212501544Y-143413216D01*
X212600147Y-143265646D01*
X212725646Y-143140147D01*
X212873216Y-143041544D01*
X213037188Y-142973624D01*
X213186488Y-142943927D01*
X213211258Y-142939000D01*
X213388742Y-142939000D01*
X213413512Y-142943927D01*
G37*
G36*
X208333512Y-140403927D02*
G01*
X208482812Y-140433624D01*
X208646784Y-140501544D01*
X208794354Y-140600147D01*
X208919853Y-140725646D01*
X209018456Y-140873216D01*
X209086376Y-141037188D01*
X209121000Y-141211259D01*
X209121000Y-141388741D01*
X209086376Y-141562812D01*
X209018456Y-141726784D01*
X208919853Y-141874354D01*
X208794354Y-141999853D01*
X208646784Y-142098456D01*
X208482812Y-142166376D01*
X208333512Y-142196073D01*
X208308742Y-142201000D01*
X208131258Y-142201000D01*
X208106488Y-142196073D01*
X207957188Y-142166376D01*
X207793216Y-142098456D01*
X207645646Y-141999853D01*
X207520147Y-141874354D01*
X207421544Y-141726784D01*
X207353624Y-141562812D01*
X207319000Y-141388741D01*
X207319000Y-141211259D01*
X207353624Y-141037188D01*
X207421544Y-140873216D01*
X207520147Y-140725646D01*
X207645646Y-140600147D01*
X207793216Y-140501544D01*
X207957188Y-140433624D01*
X208106488Y-140403927D01*
X208131258Y-140399000D01*
X208308742Y-140399000D01*
X208333512Y-140403927D01*
G37*
G36*
X215953512Y-140403927D02*
G01*
X216102812Y-140433624D01*
X216266784Y-140501544D01*
X216414354Y-140600147D01*
X216539853Y-140725646D01*
X216638456Y-140873216D01*
X216706376Y-141037188D01*
X216741000Y-141211259D01*
X216741000Y-141388741D01*
X216706376Y-141562812D01*
X216638456Y-141726784D01*
X216539853Y-141874354D01*
X216414354Y-141999853D01*
X216266784Y-142098456D01*
X216102812Y-142166376D01*
X215953512Y-142196073D01*
X215928742Y-142201000D01*
X215751258Y-142201000D01*
X215726488Y-142196073D01*
X215577188Y-142166376D01*
X215413216Y-142098456D01*
X215265646Y-141999853D01*
X215140147Y-141874354D01*
X215041544Y-141726784D01*
X214973624Y-141562812D01*
X214939000Y-141388741D01*
X214939000Y-141211259D01*
X214973624Y-141037188D01*
X215041544Y-140873216D01*
X215140147Y-140725646D01*
X215265646Y-140600147D01*
X215413216Y-140501544D01*
X215577188Y-140433624D01*
X215726488Y-140403927D01*
X215751258Y-140399000D01*
X215928742Y-140399000D01*
X215953512Y-140403927D01*
G37*
G36*
X205793512Y-140403927D02*
G01*
X205942812Y-140433624D01*
X206106784Y-140501544D01*
X206254354Y-140600147D01*
X206379853Y-140725646D01*
X206478456Y-140873216D01*
X206546376Y-141037188D01*
X206581000Y-141211259D01*
X206581000Y-141388741D01*
X206546376Y-141562812D01*
X206478456Y-141726784D01*
X206379853Y-141874354D01*
X206254354Y-141999853D01*
X206106784Y-142098456D01*
X205942812Y-142166376D01*
X205793512Y-142196073D01*
X205768742Y-142201000D01*
X205591258Y-142201000D01*
X205566488Y-142196073D01*
X205417188Y-142166376D01*
X205253216Y-142098456D01*
X205105646Y-141999853D01*
X204980147Y-141874354D01*
X204881544Y-141726784D01*
X204813624Y-141562812D01*
X204779000Y-141388741D01*
X204779000Y-141211259D01*
X204813624Y-141037188D01*
X204881544Y-140873216D01*
X204980147Y-140725646D01*
X205105646Y-140600147D01*
X205253216Y-140501544D01*
X205417188Y-140433624D01*
X205566488Y-140403927D01*
X205591258Y-140399000D01*
X205768742Y-140399000D01*
X205793512Y-140403927D01*
G37*
G36*
X203253512Y-140403927D02*
G01*
X203402812Y-140433624D01*
X203566784Y-140501544D01*
X203714354Y-140600147D01*
X203839853Y-140725646D01*
X203938456Y-140873216D01*
X204006376Y-141037188D01*
X204041000Y-141211259D01*
X204041000Y-141388741D01*
X204006376Y-141562812D01*
X203938456Y-141726784D01*
X203839853Y-141874354D01*
X203714354Y-141999853D01*
X203566784Y-142098456D01*
X203402812Y-142166376D01*
X203253512Y-142196073D01*
X203228742Y-142201000D01*
X203051258Y-142201000D01*
X203026488Y-142196073D01*
X202877188Y-142166376D01*
X202713216Y-142098456D01*
X202565646Y-141999853D01*
X202440147Y-141874354D01*
X202341544Y-141726784D01*
X202273624Y-141562812D01*
X202239000Y-141388741D01*
X202239000Y-141211259D01*
X202273624Y-141037188D01*
X202341544Y-140873216D01*
X202440147Y-140725646D01*
X202565646Y-140600147D01*
X202713216Y-140501544D01*
X202877188Y-140433624D01*
X203026488Y-140403927D01*
X203051258Y-140399000D01*
X203228742Y-140399000D01*
X203253512Y-140403927D01*
G37*
G36*
X200713512Y-140403927D02*
G01*
X200862812Y-140433624D01*
X201026784Y-140501544D01*
X201174354Y-140600147D01*
X201299853Y-140725646D01*
X201398456Y-140873216D01*
X201466376Y-141037188D01*
X201501000Y-141211259D01*
X201501000Y-141388741D01*
X201466376Y-141562812D01*
X201398456Y-141726784D01*
X201299853Y-141874354D01*
X201174354Y-141999853D01*
X201026784Y-142098456D01*
X200862812Y-142166376D01*
X200713512Y-142196073D01*
X200688742Y-142201000D01*
X200511258Y-142201000D01*
X200486488Y-142196073D01*
X200337188Y-142166376D01*
X200173216Y-142098456D01*
X200025646Y-141999853D01*
X199900147Y-141874354D01*
X199801544Y-141726784D01*
X199733624Y-141562812D01*
X199699000Y-141388741D01*
X199699000Y-141211259D01*
X199733624Y-141037188D01*
X199801544Y-140873216D01*
X199900147Y-140725646D01*
X200025646Y-140600147D01*
X200173216Y-140501544D01*
X200337188Y-140433624D01*
X200486488Y-140403927D01*
X200511258Y-140399000D01*
X200688742Y-140399000D01*
X200713512Y-140403927D01*
G37*
G36*
X198173512Y-140403927D02*
G01*
X198322812Y-140433624D01*
X198486784Y-140501544D01*
X198634354Y-140600147D01*
X198759853Y-140725646D01*
X198858456Y-140873216D01*
X198926376Y-141037188D01*
X198961000Y-141211259D01*
X198961000Y-141388741D01*
X198926376Y-141562812D01*
X198858456Y-141726784D01*
X198759853Y-141874354D01*
X198634354Y-141999853D01*
X198486784Y-142098456D01*
X198322812Y-142166376D01*
X198173512Y-142196073D01*
X198148742Y-142201000D01*
X197971258Y-142201000D01*
X197946488Y-142196073D01*
X197797188Y-142166376D01*
X197633216Y-142098456D01*
X197485646Y-141999853D01*
X197360147Y-141874354D01*
X197261544Y-141726784D01*
X197193624Y-141562812D01*
X197159000Y-141388741D01*
X197159000Y-141211259D01*
X197193624Y-141037188D01*
X197261544Y-140873216D01*
X197360147Y-140725646D01*
X197485646Y-140600147D01*
X197633216Y-140501544D01*
X197797188Y-140433624D01*
X197946488Y-140403927D01*
X197971258Y-140399000D01*
X198148742Y-140399000D01*
X198173512Y-140403927D01*
G37*
G36*
X193093512Y-140403927D02*
G01*
X193242812Y-140433624D01*
X193406784Y-140501544D01*
X193554354Y-140600147D01*
X193679853Y-140725646D01*
X193778456Y-140873216D01*
X193846376Y-141037188D01*
X193881000Y-141211259D01*
X193881000Y-141388741D01*
X193846376Y-141562812D01*
X193778456Y-141726784D01*
X193679853Y-141874354D01*
X193554354Y-141999853D01*
X193406784Y-142098456D01*
X193242812Y-142166376D01*
X193093512Y-142196073D01*
X193068742Y-142201000D01*
X192891258Y-142201000D01*
X192866488Y-142196073D01*
X192717188Y-142166376D01*
X192553216Y-142098456D01*
X192405646Y-141999853D01*
X192280147Y-141874354D01*
X192181544Y-141726784D01*
X192113624Y-141562812D01*
X192079000Y-141388741D01*
X192079000Y-141211259D01*
X192113624Y-141037188D01*
X192181544Y-140873216D01*
X192280147Y-140725646D01*
X192405646Y-140600147D01*
X192553216Y-140501544D01*
X192717188Y-140433624D01*
X192866488Y-140403927D01*
X192891258Y-140399000D01*
X193068742Y-140399000D01*
X193093512Y-140403927D01*
G37*
G36*
X195633512Y-140403927D02*
G01*
X195782812Y-140433624D01*
X195946784Y-140501544D01*
X196094354Y-140600147D01*
X196219853Y-140725646D01*
X196318456Y-140873216D01*
X196386376Y-141037188D01*
X196421000Y-141211259D01*
X196421000Y-141388741D01*
X196386376Y-141562812D01*
X196318456Y-141726784D01*
X196219853Y-141874354D01*
X196094354Y-141999853D01*
X195946784Y-142098456D01*
X195782812Y-142166376D01*
X195633512Y-142196073D01*
X195608742Y-142201000D01*
X195431258Y-142201000D01*
X195406488Y-142196073D01*
X195257188Y-142166376D01*
X195093216Y-142098456D01*
X194945646Y-141999853D01*
X194820147Y-141874354D01*
X194721544Y-141726784D01*
X194653624Y-141562812D01*
X194619000Y-141388741D01*
X194619000Y-141211259D01*
X194653624Y-141037188D01*
X194721544Y-140873216D01*
X194820147Y-140725646D01*
X194945646Y-140600147D01*
X195093216Y-140501544D01*
X195257188Y-140433624D01*
X195406488Y-140403927D01*
X195431258Y-140399000D01*
X195608742Y-140399000D01*
X195633512Y-140403927D01*
G37*
G36*
X231193512Y-140403927D02*
G01*
X231342812Y-140433624D01*
X231506784Y-140501544D01*
X231654354Y-140600147D01*
X231779853Y-140725646D01*
X231878456Y-140873216D01*
X231946376Y-141037188D01*
X231981000Y-141211259D01*
X231981000Y-141388741D01*
X231946376Y-141562812D01*
X231878456Y-141726784D01*
X231779853Y-141874354D01*
X231654354Y-141999853D01*
X231506784Y-142098456D01*
X231342812Y-142166376D01*
X231193512Y-142196073D01*
X231168742Y-142201000D01*
X230991258Y-142201000D01*
X230966488Y-142196073D01*
X230817188Y-142166376D01*
X230653216Y-142098456D01*
X230505646Y-141999853D01*
X230380147Y-141874354D01*
X230281544Y-141726784D01*
X230213624Y-141562812D01*
X230179000Y-141388741D01*
X230179000Y-141211259D01*
X230213624Y-141037188D01*
X230281544Y-140873216D01*
X230380147Y-140725646D01*
X230505646Y-140600147D01*
X230653216Y-140501544D01*
X230817188Y-140433624D01*
X230966488Y-140403927D01*
X230991258Y-140399000D01*
X231168742Y-140399000D01*
X231193512Y-140403927D01*
G37*
G36*
X190553512Y-140403927D02*
G01*
X190702812Y-140433624D01*
X190866784Y-140501544D01*
X191014354Y-140600147D01*
X191139853Y-140725646D01*
X191238456Y-140873216D01*
X191306376Y-141037188D01*
X191341000Y-141211259D01*
X191341000Y-141388741D01*
X191306376Y-141562812D01*
X191238456Y-141726784D01*
X191139853Y-141874354D01*
X191014354Y-141999853D01*
X190866784Y-142098456D01*
X190702812Y-142166376D01*
X190553512Y-142196073D01*
X190528742Y-142201000D01*
X190351258Y-142201000D01*
X190326488Y-142196073D01*
X190177188Y-142166376D01*
X190013216Y-142098456D01*
X189865646Y-141999853D01*
X189740147Y-141874354D01*
X189641544Y-141726784D01*
X189573624Y-141562812D01*
X189539000Y-141388741D01*
X189539000Y-141211259D01*
X189573624Y-141037188D01*
X189641544Y-140873216D01*
X189740147Y-140725646D01*
X189865646Y-140600147D01*
X190013216Y-140501544D01*
X190177188Y-140433624D01*
X190326488Y-140403927D01*
X190351258Y-140399000D01*
X190528742Y-140399000D01*
X190553512Y-140403927D01*
G37*
G36*
X210873512Y-140403927D02*
G01*
X211022812Y-140433624D01*
X211186784Y-140501544D01*
X211334354Y-140600147D01*
X211459853Y-140725646D01*
X211558456Y-140873216D01*
X211626376Y-141037188D01*
X211661000Y-141211259D01*
X211661000Y-141388741D01*
X211626376Y-141562812D01*
X211558456Y-141726784D01*
X211459853Y-141874354D01*
X211334354Y-141999853D01*
X211186784Y-142098456D01*
X211022812Y-142166376D01*
X210873512Y-142196073D01*
X210848742Y-142201000D01*
X210671258Y-142201000D01*
X210646488Y-142196073D01*
X210497188Y-142166376D01*
X210333216Y-142098456D01*
X210185646Y-141999853D01*
X210060147Y-141874354D01*
X209961544Y-141726784D01*
X209893624Y-141562812D01*
X209859000Y-141388741D01*
X209859000Y-141211259D01*
X209893624Y-141037188D01*
X209961544Y-140873216D01*
X210060147Y-140725646D01*
X210185646Y-140600147D01*
X210333216Y-140501544D01*
X210497188Y-140433624D01*
X210646488Y-140403927D01*
X210671258Y-140399000D01*
X210848742Y-140399000D01*
X210873512Y-140403927D01*
G37*
G36*
X233733512Y-140403927D02*
G01*
X233882812Y-140433624D01*
X234046784Y-140501544D01*
X234194354Y-140600147D01*
X234319853Y-140725646D01*
X234418456Y-140873216D01*
X234486376Y-141037188D01*
X234521000Y-141211259D01*
X234521000Y-141388741D01*
X234486376Y-141562812D01*
X234418456Y-141726784D01*
X234319853Y-141874354D01*
X234194354Y-141999853D01*
X234046784Y-142098456D01*
X233882812Y-142166376D01*
X233733512Y-142196073D01*
X233708742Y-142201000D01*
X233531258Y-142201000D01*
X233506488Y-142196073D01*
X233357188Y-142166376D01*
X233193216Y-142098456D01*
X233045646Y-141999853D01*
X232920147Y-141874354D01*
X232821544Y-141726784D01*
X232753624Y-141562812D01*
X232719000Y-141388741D01*
X232719000Y-141211259D01*
X232753624Y-141037188D01*
X232821544Y-140873216D01*
X232920147Y-140725646D01*
X233045646Y-140600147D01*
X233193216Y-140501544D01*
X233357188Y-140433624D01*
X233506488Y-140403927D01*
X233531258Y-140399000D01*
X233708742Y-140399000D01*
X233733512Y-140403927D01*
G37*
G36*
X218493512Y-140403927D02*
G01*
X218642812Y-140433624D01*
X218806784Y-140501544D01*
X218954354Y-140600147D01*
X219079853Y-140725646D01*
X219178456Y-140873216D01*
X219246376Y-141037188D01*
X219281000Y-141211259D01*
X219281000Y-141388741D01*
X219246376Y-141562812D01*
X219178456Y-141726784D01*
X219079853Y-141874354D01*
X218954354Y-141999853D01*
X218806784Y-142098456D01*
X218642812Y-142166376D01*
X218493512Y-142196073D01*
X218468742Y-142201000D01*
X218291258Y-142201000D01*
X218266488Y-142196073D01*
X218117188Y-142166376D01*
X217953216Y-142098456D01*
X217805646Y-141999853D01*
X217680147Y-141874354D01*
X217581544Y-141726784D01*
X217513624Y-141562812D01*
X217479000Y-141388741D01*
X217479000Y-141211259D01*
X217513624Y-141037188D01*
X217581544Y-140873216D01*
X217680147Y-140725646D01*
X217805646Y-140600147D01*
X217953216Y-140501544D01*
X218117188Y-140433624D01*
X218266488Y-140403927D01*
X218291258Y-140399000D01*
X218468742Y-140399000D01*
X218493512Y-140403927D01*
G37*
G36*
X236273512Y-140403927D02*
G01*
X236422812Y-140433624D01*
X236586784Y-140501544D01*
X236734354Y-140600147D01*
X236859853Y-140725646D01*
X236958456Y-140873216D01*
X237026376Y-141037188D01*
X237061000Y-141211259D01*
X237061000Y-141388741D01*
X237026376Y-141562812D01*
X236958456Y-141726784D01*
X236859853Y-141874354D01*
X236734354Y-141999853D01*
X236586784Y-142098456D01*
X236422812Y-142166376D01*
X236273512Y-142196073D01*
X236248742Y-142201000D01*
X236071258Y-142201000D01*
X236046488Y-142196073D01*
X235897188Y-142166376D01*
X235733216Y-142098456D01*
X235585646Y-141999853D01*
X235460147Y-141874354D01*
X235361544Y-141726784D01*
X235293624Y-141562812D01*
X235259000Y-141388741D01*
X235259000Y-141211259D01*
X235293624Y-141037188D01*
X235361544Y-140873216D01*
X235460147Y-140725646D01*
X235585646Y-140600147D01*
X235733216Y-140501544D01*
X235897188Y-140433624D01*
X236046488Y-140403927D01*
X236071258Y-140399000D01*
X236248742Y-140399000D01*
X236273512Y-140403927D01*
G37*
G36*
X228653512Y-140403927D02*
G01*
X228802812Y-140433624D01*
X228966784Y-140501544D01*
X229114354Y-140600147D01*
X229239853Y-140725646D01*
X229338456Y-140873216D01*
X229406376Y-141037188D01*
X229441000Y-141211259D01*
X229441000Y-141388741D01*
X229406376Y-141562812D01*
X229338456Y-141726784D01*
X229239853Y-141874354D01*
X229114354Y-141999853D01*
X228966784Y-142098456D01*
X228802812Y-142166376D01*
X228653512Y-142196073D01*
X228628742Y-142201000D01*
X228451258Y-142201000D01*
X228426488Y-142196073D01*
X228277188Y-142166376D01*
X228113216Y-142098456D01*
X227965646Y-141999853D01*
X227840147Y-141874354D01*
X227741544Y-141726784D01*
X227673624Y-141562812D01*
X227639000Y-141388741D01*
X227639000Y-141211259D01*
X227673624Y-141037188D01*
X227741544Y-140873216D01*
X227840147Y-140725646D01*
X227965646Y-140600147D01*
X228113216Y-140501544D01*
X228277188Y-140433624D01*
X228426488Y-140403927D01*
X228451258Y-140399000D01*
X228628742Y-140399000D01*
X228653512Y-140403927D01*
G37*
G36*
X226113512Y-140403927D02*
G01*
X226262812Y-140433624D01*
X226426784Y-140501544D01*
X226574354Y-140600147D01*
X226699853Y-140725646D01*
X226798456Y-140873216D01*
X226866376Y-141037188D01*
X226901000Y-141211259D01*
X226901000Y-141388741D01*
X226866376Y-141562812D01*
X226798456Y-141726784D01*
X226699853Y-141874354D01*
X226574354Y-141999853D01*
X226426784Y-142098456D01*
X226262812Y-142166376D01*
X226113512Y-142196073D01*
X226088742Y-142201000D01*
X225911258Y-142201000D01*
X225886488Y-142196073D01*
X225737188Y-142166376D01*
X225573216Y-142098456D01*
X225425646Y-141999853D01*
X225300147Y-141874354D01*
X225201544Y-141726784D01*
X225133624Y-141562812D01*
X225099000Y-141388741D01*
X225099000Y-141211259D01*
X225133624Y-141037188D01*
X225201544Y-140873216D01*
X225300147Y-140725646D01*
X225425646Y-140600147D01*
X225573216Y-140501544D01*
X225737188Y-140433624D01*
X225886488Y-140403927D01*
X225911258Y-140399000D01*
X226088742Y-140399000D01*
X226113512Y-140403927D01*
G37*
G36*
X239601000Y-142201000D02*
G01*
X237799000Y-142201000D01*
X237799000Y-140399000D01*
X239601000Y-140399000D01*
X239601000Y-142201000D01*
G37*
G36*
X223573512Y-140403927D02*
G01*
X223722812Y-140433624D01*
X223886784Y-140501544D01*
X224034354Y-140600147D01*
X224159853Y-140725646D01*
X224258456Y-140873216D01*
X224326376Y-141037188D01*
X224361000Y-141211259D01*
X224361000Y-141388741D01*
X224326376Y-141562812D01*
X224258456Y-141726784D01*
X224159853Y-141874354D01*
X224034354Y-141999853D01*
X223886784Y-142098456D01*
X223722812Y-142166376D01*
X223573512Y-142196073D01*
X223548742Y-142201000D01*
X223371258Y-142201000D01*
X223346488Y-142196073D01*
X223197188Y-142166376D01*
X223033216Y-142098456D01*
X222885646Y-141999853D01*
X222760147Y-141874354D01*
X222661544Y-141726784D01*
X222593624Y-141562812D01*
X222559000Y-141388741D01*
X222559000Y-141211259D01*
X222593624Y-141037188D01*
X222661544Y-140873216D01*
X222760147Y-140725646D01*
X222885646Y-140600147D01*
X223033216Y-140501544D01*
X223197188Y-140433624D01*
X223346488Y-140403927D01*
X223371258Y-140399000D01*
X223548742Y-140399000D01*
X223573512Y-140403927D01*
G37*
G36*
X213413512Y-140403927D02*
G01*
X213562812Y-140433624D01*
X213726784Y-140501544D01*
X213874354Y-140600147D01*
X213999853Y-140725646D01*
X214098456Y-140873216D01*
X214166376Y-141037188D01*
X214201000Y-141211259D01*
X214201000Y-141388741D01*
X214166376Y-141562812D01*
X214098456Y-141726784D01*
X213999853Y-141874354D01*
X213874354Y-141999853D01*
X213726784Y-142098456D01*
X213562812Y-142166376D01*
X213413512Y-142196073D01*
X213388742Y-142201000D01*
X213211258Y-142201000D01*
X213186488Y-142196073D01*
X213037188Y-142166376D01*
X212873216Y-142098456D01*
X212725646Y-141999853D01*
X212600147Y-141874354D01*
X212501544Y-141726784D01*
X212433624Y-141562812D01*
X212399000Y-141388741D01*
X212399000Y-141211259D01*
X212433624Y-141037188D01*
X212501544Y-140873216D01*
X212600147Y-140725646D01*
X212725646Y-140600147D01*
X212873216Y-140501544D01*
X213037188Y-140433624D01*
X213186488Y-140403927D01*
X213211258Y-140399000D01*
X213388742Y-140399000D01*
X213413512Y-140403927D01*
G37*
G36*
X221033512Y-140403927D02*
G01*
X221182812Y-140433624D01*
X221346784Y-140501544D01*
X221494354Y-140600147D01*
X221619853Y-140725646D01*
X221718456Y-140873216D01*
X221786376Y-141037188D01*
X221821000Y-141211259D01*
X221821000Y-141388741D01*
X221786376Y-141562812D01*
X221718456Y-141726784D01*
X221619853Y-141874354D01*
X221494354Y-141999853D01*
X221346784Y-142098456D01*
X221182812Y-142166376D01*
X221033512Y-142196073D01*
X221008742Y-142201000D01*
X220831258Y-142201000D01*
X220806488Y-142196073D01*
X220657188Y-142166376D01*
X220493216Y-142098456D01*
X220345646Y-141999853D01*
X220220147Y-141874354D01*
X220121544Y-141726784D01*
X220053624Y-141562812D01*
X220019000Y-141388741D01*
X220019000Y-141211259D01*
X220053624Y-141037188D01*
X220121544Y-140873216D01*
X220220147Y-140725646D01*
X220345646Y-140600147D01*
X220493216Y-140501544D01*
X220657188Y-140433624D01*
X220806488Y-140403927D01*
X220831258Y-140399000D01*
X221008742Y-140399000D01*
X221033512Y-140403927D01*
G37*
G36*
X185901000Y-140751000D02*
G01*
X184099000Y-140751000D01*
X184099000Y-138949000D01*
X185901000Y-138949000D01*
X185901000Y-140751000D01*
G37*
G36*
X177493512Y-138953927D02*
G01*
X177642812Y-138983624D01*
X177806784Y-139051544D01*
X177954354Y-139150147D01*
X178079853Y-139275646D01*
X178178456Y-139423216D01*
X178246376Y-139587188D01*
X178281000Y-139761259D01*
X178281000Y-139938741D01*
X178246376Y-140112812D01*
X178178456Y-140276784D01*
X178079853Y-140424354D01*
X177954354Y-140549853D01*
X177806784Y-140648456D01*
X177642812Y-140716376D01*
X177493512Y-140746073D01*
X177468742Y-140751000D01*
X177291258Y-140751000D01*
X177266488Y-140746073D01*
X177117188Y-140716376D01*
X176953216Y-140648456D01*
X176805646Y-140549853D01*
X176680147Y-140424354D01*
X176581544Y-140276784D01*
X176513624Y-140112812D01*
X176479000Y-139938741D01*
X176479000Y-139761259D01*
X176513624Y-139587188D01*
X176581544Y-139423216D01*
X176680147Y-139275646D01*
X176805646Y-139150147D01*
X176953216Y-139051544D01*
X177117188Y-138983624D01*
X177266488Y-138953927D01*
X177291258Y-138949000D01*
X177468742Y-138949000D01*
X177493512Y-138953927D01*
G37*
G36*
X180033512Y-138953927D02*
G01*
X180182812Y-138983624D01*
X180346784Y-139051544D01*
X180494354Y-139150147D01*
X180619853Y-139275646D01*
X180718456Y-139423216D01*
X180786376Y-139587188D01*
X180821000Y-139761259D01*
X180821000Y-139938741D01*
X180786376Y-140112812D01*
X180718456Y-140276784D01*
X180619853Y-140424354D01*
X180494354Y-140549853D01*
X180346784Y-140648456D01*
X180182812Y-140716376D01*
X180033512Y-140746073D01*
X180008742Y-140751000D01*
X179831258Y-140751000D01*
X179806488Y-140746073D01*
X179657188Y-140716376D01*
X179493216Y-140648456D01*
X179345646Y-140549853D01*
X179220147Y-140424354D01*
X179121544Y-140276784D01*
X179053624Y-140112812D01*
X179019000Y-139938741D01*
X179019000Y-139761259D01*
X179053624Y-139587188D01*
X179121544Y-139423216D01*
X179220147Y-139275646D01*
X179345646Y-139150147D01*
X179493216Y-139051544D01*
X179657188Y-138983624D01*
X179806488Y-138953927D01*
X179831258Y-138949000D01*
X180008742Y-138949000D01*
X180033512Y-138953927D01*
G37*
G36*
X182573512Y-138953927D02*
G01*
X182722812Y-138983624D01*
X182886784Y-139051544D01*
X183034354Y-139150147D01*
X183159853Y-139275646D01*
X183258456Y-139423216D01*
X183326376Y-139587188D01*
X183361000Y-139761259D01*
X183361000Y-139938741D01*
X183326376Y-140112812D01*
X183258456Y-140276784D01*
X183159853Y-140424354D01*
X183034354Y-140549853D01*
X182886784Y-140648456D01*
X182722812Y-140716376D01*
X182573512Y-140746073D01*
X182548742Y-140751000D01*
X182371258Y-140751000D01*
X182346488Y-140746073D01*
X182197188Y-140716376D01*
X182033216Y-140648456D01*
X181885646Y-140549853D01*
X181760147Y-140424354D01*
X181661544Y-140276784D01*
X181593624Y-140112812D01*
X181559000Y-139938741D01*
X181559000Y-139761259D01*
X181593624Y-139587188D01*
X181661544Y-139423216D01*
X181760147Y-139275646D01*
X181885646Y-139150147D01*
X182033216Y-139051544D01*
X182197188Y-138983624D01*
X182346488Y-138953927D01*
X182371258Y-138949000D01*
X182548742Y-138949000D01*
X182573512Y-138953927D01*
G37*
G36*
X246213512Y-137763927D02*
G01*
X246362812Y-137793624D01*
X246526784Y-137861544D01*
X246674354Y-137960147D01*
X246799853Y-138085646D01*
X246898456Y-138233216D01*
X246966376Y-138397188D01*
X247001000Y-138571259D01*
X247001000Y-138748741D01*
X246966376Y-138922812D01*
X246898456Y-139086784D01*
X246799853Y-139234354D01*
X246674354Y-139359853D01*
X246526784Y-139458456D01*
X246362812Y-139526376D01*
X246213512Y-139556073D01*
X246188742Y-139561000D01*
X246011258Y-139561000D01*
X245986488Y-139556073D01*
X245837188Y-139526376D01*
X245673216Y-139458456D01*
X245525646Y-139359853D01*
X245400147Y-139234354D01*
X245301544Y-139086784D01*
X245233624Y-138922812D01*
X245199000Y-138748741D01*
X245199000Y-138571259D01*
X245233624Y-138397188D01*
X245301544Y-138233216D01*
X245400147Y-138085646D01*
X245525646Y-137960147D01*
X245673216Y-137861544D01*
X245837188Y-137793624D01*
X245986488Y-137763927D01*
X246011258Y-137759000D01*
X246188742Y-137759000D01*
X246213512Y-137763927D01*
G37*
G36*
X248753512Y-137763927D02*
G01*
X248902812Y-137793624D01*
X249066784Y-137861544D01*
X249214354Y-137960147D01*
X249339853Y-138085646D01*
X249438456Y-138233216D01*
X249506376Y-138397188D01*
X249541000Y-138571259D01*
X249541000Y-138748741D01*
X249506376Y-138922812D01*
X249438456Y-139086784D01*
X249339853Y-139234354D01*
X249214354Y-139359853D01*
X249066784Y-139458456D01*
X248902812Y-139526376D01*
X248753512Y-139556073D01*
X248728742Y-139561000D01*
X248551258Y-139561000D01*
X248526488Y-139556073D01*
X248377188Y-139526376D01*
X248213216Y-139458456D01*
X248065646Y-139359853D01*
X247940147Y-139234354D01*
X247841544Y-139086784D01*
X247773624Y-138922812D01*
X247739000Y-138748741D01*
X247739000Y-138571259D01*
X247773624Y-138397188D01*
X247841544Y-138233216D01*
X247940147Y-138085646D01*
X248065646Y-137960147D01*
X248213216Y-137861544D01*
X248377188Y-137793624D01*
X248526488Y-137763927D01*
X248551258Y-137759000D01*
X248728742Y-137759000D01*
X248753512Y-137763927D01*
G37*
G36*
X184956564Y-136389389D02*
G01*
X185147833Y-136468615D01*
X185147835Y-136468616D01*
X185319973Y-136583635D01*
X185466365Y-136730027D01*
X185581385Y-136902167D01*
X185660611Y-137093436D01*
X185701000Y-137296484D01*
X185701000Y-137503516D01*
X185660611Y-137706564D01*
X185624549Y-137793625D01*
X185581384Y-137897835D01*
X185466365Y-138069973D01*
X185319973Y-138216365D01*
X185147835Y-138331384D01*
X185147834Y-138331385D01*
X185147833Y-138331385D01*
X184956564Y-138410611D01*
X184753516Y-138451000D01*
X184546484Y-138451000D01*
X184343436Y-138410611D01*
X184152167Y-138331385D01*
X184152166Y-138331385D01*
X184152165Y-138331384D01*
X183980027Y-138216365D01*
X183833635Y-138069973D01*
X183718616Y-137897835D01*
X183675451Y-137793625D01*
X183639389Y-137706564D01*
X183599000Y-137503516D01*
X183599000Y-137296484D01*
X183639389Y-137093436D01*
X183718615Y-136902167D01*
X183833635Y-136730027D01*
X183980027Y-136583635D01*
X184152165Y-136468616D01*
X184152167Y-136468615D01*
X184343436Y-136389389D01*
X184546484Y-136349000D01*
X184753516Y-136349000D01*
X184956564Y-136389389D01*
G37*
G36*
X180456564Y-136389389D02*
G01*
X180647833Y-136468615D01*
X180647835Y-136468616D01*
X180819973Y-136583635D01*
X180966365Y-136730027D01*
X181081385Y-136902167D01*
X181160611Y-137093436D01*
X181201000Y-137296484D01*
X181201000Y-137503516D01*
X181160611Y-137706564D01*
X181124549Y-137793625D01*
X181081384Y-137897835D01*
X180966365Y-138069973D01*
X180819973Y-138216365D01*
X180647835Y-138331384D01*
X180647834Y-138331385D01*
X180647833Y-138331385D01*
X180456564Y-138410611D01*
X180253516Y-138451000D01*
X180046484Y-138451000D01*
X179843436Y-138410611D01*
X179652167Y-138331385D01*
X179652166Y-138331385D01*
X179652165Y-138331384D01*
X179480027Y-138216365D01*
X179333635Y-138069973D01*
X179218616Y-137897835D01*
X179175451Y-137793625D01*
X179139389Y-137706564D01*
X179099000Y-137503516D01*
X179099000Y-137296484D01*
X179139389Y-137093436D01*
X179218615Y-136902167D01*
X179333635Y-136730027D01*
X179480027Y-136583635D01*
X179652165Y-136468616D01*
X179652167Y-136468615D01*
X179843436Y-136389389D01*
X180046484Y-136349000D01*
X180253516Y-136349000D01*
X180456564Y-136389389D01*
G37*
G36*
X173156564Y-136389389D02*
G01*
X173347833Y-136468615D01*
X173347835Y-136468616D01*
X173519973Y-136583635D01*
X173666365Y-136730027D01*
X173781385Y-136902167D01*
X173860611Y-137093436D01*
X173901000Y-137296484D01*
X173901000Y-137503516D01*
X173860611Y-137706564D01*
X173824549Y-137793625D01*
X173781384Y-137897835D01*
X173666365Y-138069973D01*
X173519973Y-138216365D01*
X173347835Y-138331384D01*
X173347834Y-138331385D01*
X173347833Y-138331385D01*
X173156564Y-138410611D01*
X172953516Y-138451000D01*
X172746484Y-138451000D01*
X172543436Y-138410611D01*
X172352167Y-138331385D01*
X172352166Y-138331385D01*
X172352165Y-138331384D01*
X172180027Y-138216365D01*
X172033635Y-138069973D01*
X171918616Y-137897835D01*
X171875451Y-137793625D01*
X171839389Y-137706564D01*
X171799000Y-137503516D01*
X171799000Y-137296484D01*
X171839389Y-137093436D01*
X171918615Y-136902167D01*
X172033635Y-136730027D01*
X172180027Y-136583635D01*
X172352165Y-136468616D01*
X172352167Y-136468615D01*
X172543436Y-136389389D01*
X172746484Y-136349000D01*
X172953516Y-136349000D01*
X173156564Y-136389389D01*
G37*
G36*
X177656564Y-136389389D02*
G01*
X177847833Y-136468615D01*
X177847835Y-136468616D01*
X178019973Y-136583635D01*
X178166365Y-136730027D01*
X178281385Y-136902167D01*
X178360611Y-137093436D01*
X178401000Y-137296484D01*
X178401000Y-137503516D01*
X178360611Y-137706564D01*
X178324549Y-137793625D01*
X178281384Y-137897835D01*
X178166365Y-138069973D01*
X178019973Y-138216365D01*
X177847835Y-138331384D01*
X177847834Y-138331385D01*
X177847833Y-138331385D01*
X177656564Y-138410611D01*
X177453516Y-138451000D01*
X177246484Y-138451000D01*
X177043436Y-138410611D01*
X176852167Y-138331385D01*
X176852166Y-138331385D01*
X176852165Y-138331384D01*
X176680027Y-138216365D01*
X176533635Y-138069973D01*
X176418616Y-137897835D01*
X176375451Y-137793625D01*
X176339389Y-137706564D01*
X176299000Y-137503516D01*
X176299000Y-137296484D01*
X176339389Y-137093436D01*
X176418615Y-136902167D01*
X176533635Y-136730027D01*
X176680027Y-136583635D01*
X176852165Y-136468616D01*
X176852167Y-136468615D01*
X177043436Y-136389389D01*
X177246484Y-136349000D01*
X177453516Y-136349000D01*
X177656564Y-136389389D01*
G37*
G36*
X246213512Y-135223927D02*
G01*
X246362812Y-135253624D01*
X246526784Y-135321544D01*
X246674354Y-135420147D01*
X246799853Y-135545646D01*
X246898456Y-135693216D01*
X246966376Y-135857188D01*
X247001000Y-136031259D01*
X247001000Y-136208741D01*
X246966376Y-136382812D01*
X246898456Y-136546784D01*
X246799853Y-136694354D01*
X246674354Y-136819853D01*
X246526784Y-136918456D01*
X246362812Y-136986376D01*
X246213512Y-137016073D01*
X246188742Y-137021000D01*
X246011258Y-137021000D01*
X245986488Y-137016073D01*
X245837188Y-136986376D01*
X245673216Y-136918456D01*
X245525646Y-136819853D01*
X245400147Y-136694354D01*
X245301544Y-136546784D01*
X245233624Y-136382812D01*
X245199000Y-136208741D01*
X245199000Y-136031259D01*
X245233624Y-135857188D01*
X245301544Y-135693216D01*
X245400147Y-135545646D01*
X245525646Y-135420147D01*
X245673216Y-135321544D01*
X245837188Y-135253624D01*
X245986488Y-135223927D01*
X246011258Y-135219000D01*
X246188742Y-135219000D01*
X246213512Y-135223927D01*
G37*
G36*
X248753512Y-135223927D02*
G01*
X248902812Y-135253624D01*
X249066784Y-135321544D01*
X249214354Y-135420147D01*
X249339853Y-135545646D01*
X249438456Y-135693216D01*
X249506376Y-135857188D01*
X249541000Y-136031259D01*
X249541000Y-136208741D01*
X249506376Y-136382812D01*
X249438456Y-136546784D01*
X249339853Y-136694354D01*
X249214354Y-136819853D01*
X249066784Y-136918456D01*
X248902812Y-136986376D01*
X248753512Y-137016073D01*
X248728742Y-137021000D01*
X248551258Y-137021000D01*
X248526488Y-137016073D01*
X248377188Y-136986376D01*
X248213216Y-136918456D01*
X248065646Y-136819853D01*
X247940147Y-136694354D01*
X247841544Y-136546784D01*
X247773624Y-136382812D01*
X247739000Y-136208741D01*
X247739000Y-136031259D01*
X247773624Y-135857188D01*
X247841544Y-135693216D01*
X247940147Y-135545646D01*
X248065646Y-135420147D01*
X248213216Y-135321544D01*
X248377188Y-135253624D01*
X248526488Y-135223927D01*
X248551258Y-135219000D01*
X248728742Y-135219000D01*
X248753512Y-135223927D01*
G37*
G36*
X246213512Y-132683927D02*
G01*
X246362812Y-132713624D01*
X246526784Y-132781544D01*
X246674354Y-132880147D01*
X246799853Y-133005646D01*
X246898456Y-133153216D01*
X246966376Y-133317188D01*
X247001000Y-133491259D01*
X247001000Y-133668741D01*
X246966376Y-133842812D01*
X246898456Y-134006784D01*
X246799853Y-134154354D01*
X246674354Y-134279853D01*
X246526784Y-134378456D01*
X246362812Y-134446376D01*
X246213512Y-134476073D01*
X246188742Y-134481000D01*
X246011258Y-134481000D01*
X245986488Y-134476073D01*
X245837188Y-134446376D01*
X245673216Y-134378456D01*
X245525646Y-134279853D01*
X245400147Y-134154354D01*
X245301544Y-134006784D01*
X245233624Y-133842812D01*
X245199000Y-133668741D01*
X245199000Y-133491259D01*
X245233624Y-133317188D01*
X245301544Y-133153216D01*
X245400147Y-133005646D01*
X245525646Y-132880147D01*
X245673216Y-132781544D01*
X245837188Y-132713624D01*
X245986488Y-132683927D01*
X246011258Y-132679000D01*
X246188742Y-132679000D01*
X246213512Y-132683927D01*
G37*
G36*
X248753512Y-132683927D02*
G01*
X248902812Y-132713624D01*
X249066784Y-132781544D01*
X249214354Y-132880147D01*
X249339853Y-133005646D01*
X249438456Y-133153216D01*
X249506376Y-133317188D01*
X249541000Y-133491259D01*
X249541000Y-133668741D01*
X249506376Y-133842812D01*
X249438456Y-134006784D01*
X249339853Y-134154354D01*
X249214354Y-134279853D01*
X249066784Y-134378456D01*
X248902812Y-134446376D01*
X248753512Y-134476073D01*
X248728742Y-134481000D01*
X248551258Y-134481000D01*
X248526488Y-134476073D01*
X248377188Y-134446376D01*
X248213216Y-134378456D01*
X248065646Y-134279853D01*
X247940147Y-134154354D01*
X247841544Y-134006784D01*
X247773624Y-133842812D01*
X247739000Y-133668741D01*
X247739000Y-133491259D01*
X247773624Y-133317188D01*
X247841544Y-133153216D01*
X247940147Y-133005646D01*
X248065646Y-132880147D01*
X248213216Y-132781544D01*
X248377188Y-132713624D01*
X248526488Y-132683927D01*
X248551258Y-132679000D01*
X248728742Y-132679000D01*
X248753512Y-132683927D01*
G37*
G36*
X188551000Y-134401000D02*
G01*
X186749000Y-134401000D01*
X186749000Y-132599000D01*
X188551000Y-132599000D01*
X188551000Y-134401000D01*
G37*
G36*
X180456564Y-129889389D02*
G01*
X180647833Y-129968615D01*
X180647835Y-129968616D01*
X180819973Y-130083635D01*
X180966365Y-130230027D01*
X181039946Y-130340148D01*
X181081385Y-130402167D01*
X181160611Y-130593436D01*
X181201000Y-130796484D01*
X181201000Y-131003516D01*
X181160611Y-131206564D01*
X181081385Y-131397833D01*
X181081384Y-131397835D01*
X180966365Y-131569973D01*
X180819973Y-131716365D01*
X180647835Y-131831384D01*
X180647834Y-131831385D01*
X180647833Y-131831385D01*
X180456564Y-131910611D01*
X180253516Y-131951000D01*
X180046484Y-131951000D01*
X179843436Y-131910611D01*
X179652167Y-131831385D01*
X179652166Y-131831385D01*
X179652165Y-131831384D01*
X179480027Y-131716365D01*
X179333635Y-131569973D01*
X179218616Y-131397835D01*
X179218615Y-131397833D01*
X179139389Y-131206564D01*
X179099000Y-131003516D01*
X179099000Y-130796484D01*
X179139389Y-130593436D01*
X179218615Y-130402167D01*
X179260055Y-130340148D01*
X179333635Y-130230027D01*
X179480027Y-130083635D01*
X179652165Y-129968616D01*
X179652167Y-129968615D01*
X179843436Y-129889389D01*
X180046484Y-129849000D01*
X180253516Y-129849000D01*
X180456564Y-129889389D01*
G37*
G36*
X184956564Y-129889389D02*
G01*
X185147833Y-129968615D01*
X185147835Y-129968616D01*
X185319973Y-130083635D01*
X185466365Y-130230027D01*
X185539946Y-130340148D01*
X185581385Y-130402167D01*
X185660611Y-130593436D01*
X185701000Y-130796484D01*
X185701000Y-131003516D01*
X185660611Y-131206564D01*
X185581385Y-131397833D01*
X185581384Y-131397835D01*
X185466365Y-131569973D01*
X185319973Y-131716365D01*
X185147835Y-131831384D01*
X185147834Y-131831385D01*
X185147833Y-131831385D01*
X184956564Y-131910611D01*
X184753516Y-131951000D01*
X184546484Y-131951000D01*
X184343436Y-131910611D01*
X184152167Y-131831385D01*
X184152166Y-131831385D01*
X184152165Y-131831384D01*
X183980027Y-131716365D01*
X183833635Y-131569973D01*
X183718616Y-131397835D01*
X183718615Y-131397833D01*
X183639389Y-131206564D01*
X183599000Y-131003516D01*
X183599000Y-130796484D01*
X183639389Y-130593436D01*
X183718615Y-130402167D01*
X183760055Y-130340148D01*
X183833635Y-130230027D01*
X183980027Y-130083635D01*
X184152165Y-129968616D01*
X184152167Y-129968615D01*
X184343436Y-129889389D01*
X184546484Y-129849000D01*
X184753516Y-129849000D01*
X184956564Y-129889389D01*
G37*
G36*
X173156564Y-129889389D02*
G01*
X173347833Y-129968615D01*
X173347835Y-129968616D01*
X173519973Y-130083635D01*
X173666365Y-130230027D01*
X173739946Y-130340148D01*
X173781385Y-130402167D01*
X173860611Y-130593436D01*
X173901000Y-130796484D01*
X173901000Y-131003516D01*
X173860611Y-131206564D01*
X173781385Y-131397833D01*
X173781384Y-131397835D01*
X173666365Y-131569973D01*
X173519973Y-131716365D01*
X173347835Y-131831384D01*
X173347834Y-131831385D01*
X173347833Y-131831385D01*
X173156564Y-131910611D01*
X172953516Y-131951000D01*
X172746484Y-131951000D01*
X172543436Y-131910611D01*
X172352167Y-131831385D01*
X172352166Y-131831385D01*
X172352165Y-131831384D01*
X172180027Y-131716365D01*
X172033635Y-131569973D01*
X171918616Y-131397835D01*
X171918615Y-131397833D01*
X171839389Y-131206564D01*
X171799000Y-131003516D01*
X171799000Y-130796484D01*
X171839389Y-130593436D01*
X171918615Y-130402167D01*
X171960055Y-130340148D01*
X172033635Y-130230027D01*
X172180027Y-130083635D01*
X172352165Y-129968616D01*
X172352167Y-129968615D01*
X172543436Y-129889389D01*
X172746484Y-129849000D01*
X172953516Y-129849000D01*
X173156564Y-129889389D01*
G37*
G36*
X177656564Y-129889389D02*
G01*
X177847833Y-129968615D01*
X177847835Y-129968616D01*
X178019973Y-130083635D01*
X178166365Y-130230027D01*
X178239946Y-130340148D01*
X178281385Y-130402167D01*
X178360611Y-130593436D01*
X178401000Y-130796484D01*
X178401000Y-131003516D01*
X178360611Y-131206564D01*
X178281385Y-131397833D01*
X178281384Y-131397835D01*
X178166365Y-131569973D01*
X178019973Y-131716365D01*
X177847835Y-131831384D01*
X177847834Y-131831385D01*
X177847833Y-131831385D01*
X177656564Y-131910611D01*
X177453516Y-131951000D01*
X177246484Y-131951000D01*
X177043436Y-131910611D01*
X176852167Y-131831385D01*
X176852166Y-131831385D01*
X176852165Y-131831384D01*
X176680027Y-131716365D01*
X176533635Y-131569973D01*
X176418616Y-131397835D01*
X176418615Y-131397833D01*
X176339389Y-131206564D01*
X176299000Y-131003516D01*
X176299000Y-130796484D01*
X176339389Y-130593436D01*
X176418615Y-130402167D01*
X176460055Y-130340148D01*
X176533635Y-130230027D01*
X176680027Y-130083635D01*
X176852165Y-129968616D01*
X176852167Y-129968615D01*
X177043436Y-129889389D01*
X177246484Y-129849000D01*
X177453516Y-129849000D01*
X177656564Y-129889389D01*
G37*
G36*
X248753512Y-130143927D02*
G01*
X248902812Y-130173624D01*
X249066784Y-130241544D01*
X249214354Y-130340147D01*
X249339853Y-130465646D01*
X249438456Y-130613216D01*
X249506376Y-130777188D01*
X249541000Y-130951259D01*
X249541000Y-131128741D01*
X249506376Y-131302812D01*
X249438456Y-131466784D01*
X249339853Y-131614354D01*
X249214354Y-131739853D01*
X249066784Y-131838456D01*
X248902812Y-131906376D01*
X248753512Y-131936073D01*
X248728742Y-131941000D01*
X248551258Y-131941000D01*
X248526488Y-131936073D01*
X248377188Y-131906376D01*
X248213216Y-131838456D01*
X248065646Y-131739853D01*
X247940147Y-131614354D01*
X247841544Y-131466784D01*
X247773624Y-131302812D01*
X247739000Y-131128741D01*
X247739000Y-130951259D01*
X247773624Y-130777188D01*
X247841544Y-130613216D01*
X247940147Y-130465646D01*
X248065646Y-130340147D01*
X248213216Y-130241544D01*
X248377188Y-130173624D01*
X248526488Y-130143927D01*
X248551258Y-130139000D01*
X248728742Y-130139000D01*
X248753512Y-130143927D01*
G37*
G36*
X246213512Y-130143927D02*
G01*
X246362812Y-130173624D01*
X246526784Y-130241544D01*
X246674354Y-130340147D01*
X246799853Y-130465646D01*
X246898456Y-130613216D01*
X246966376Y-130777188D01*
X247001000Y-130951259D01*
X247001000Y-131128741D01*
X246966376Y-131302812D01*
X246898456Y-131466784D01*
X246799853Y-131614354D01*
X246674354Y-131739853D01*
X246526784Y-131838456D01*
X246362812Y-131906376D01*
X246213512Y-131936073D01*
X246188742Y-131941000D01*
X246011258Y-131941000D01*
X245986488Y-131936073D01*
X245837188Y-131906376D01*
X245673216Y-131838456D01*
X245525646Y-131739853D01*
X245400147Y-131614354D01*
X245301544Y-131466784D01*
X245233624Y-131302812D01*
X245199000Y-131128741D01*
X245199000Y-130951259D01*
X245233624Y-130777188D01*
X245301544Y-130613216D01*
X245400147Y-130465646D01*
X245525646Y-130340147D01*
X245673216Y-130241544D01*
X245837188Y-130173624D01*
X245986488Y-130143927D01*
X246011258Y-130139000D01*
X246188742Y-130139000D01*
X246213512Y-130143927D01*
G37*
G36*
X187763512Y-130063927D02*
G01*
X187912812Y-130093624D01*
X188076784Y-130161544D01*
X188224354Y-130260147D01*
X188349853Y-130385646D01*
X188448456Y-130533216D01*
X188516376Y-130697188D01*
X188551000Y-130871259D01*
X188551000Y-131048741D01*
X188516376Y-131222812D01*
X188448456Y-131386784D01*
X188349853Y-131534354D01*
X188224354Y-131659853D01*
X188076784Y-131758456D01*
X187912812Y-131826376D01*
X187763512Y-131856073D01*
X187738742Y-131861000D01*
X187561258Y-131861000D01*
X187536488Y-131856073D01*
X187387188Y-131826376D01*
X187223216Y-131758456D01*
X187075646Y-131659853D01*
X186950147Y-131534354D01*
X186851544Y-131386784D01*
X186783624Y-131222812D01*
X186749000Y-131048741D01*
X186749000Y-130871259D01*
X186783624Y-130697188D01*
X186851544Y-130533216D01*
X186950147Y-130385646D01*
X187075646Y-130260147D01*
X187223216Y-130161544D01*
X187387188Y-130093624D01*
X187536488Y-130063927D01*
X187561258Y-130059000D01*
X187738742Y-130059000D01*
X187763512Y-130063927D01*
G37*
G36*
X167113512Y-128823927D02*
G01*
X167262812Y-128853624D01*
X167426784Y-128921544D01*
X167574354Y-129020147D01*
X167699853Y-129145646D01*
X167798456Y-129293216D01*
X167866376Y-129457188D01*
X167901000Y-129631259D01*
X167901000Y-129808741D01*
X167866376Y-129982812D01*
X167798456Y-130146784D01*
X167699853Y-130294354D01*
X167574354Y-130419853D01*
X167426784Y-130518456D01*
X167262812Y-130586376D01*
X167113512Y-130616073D01*
X167088742Y-130621000D01*
X166911258Y-130621000D01*
X166886488Y-130616073D01*
X166737188Y-130586376D01*
X166573216Y-130518456D01*
X166425646Y-130419853D01*
X166300147Y-130294354D01*
X166201544Y-130146784D01*
X166133624Y-129982812D01*
X166099000Y-129808741D01*
X166099000Y-129631259D01*
X166133624Y-129457188D01*
X166201544Y-129293216D01*
X166300147Y-129145646D01*
X166425646Y-129020147D01*
X166573216Y-128921544D01*
X166737188Y-128853624D01*
X166886488Y-128823927D01*
X166911258Y-128819000D01*
X167088742Y-128819000D01*
X167113512Y-128823927D01*
G37*
G36*
X169653512Y-128823927D02*
G01*
X169802812Y-128853624D01*
X169966784Y-128921544D01*
X170114354Y-129020147D01*
X170239853Y-129145646D01*
X170338456Y-129293216D01*
X170406376Y-129457188D01*
X170441000Y-129631259D01*
X170441000Y-129808741D01*
X170406376Y-129982812D01*
X170338456Y-130146784D01*
X170239853Y-130294354D01*
X170114354Y-130419853D01*
X169966784Y-130518456D01*
X169802812Y-130586376D01*
X169653512Y-130616073D01*
X169628742Y-130621000D01*
X169451258Y-130621000D01*
X169426488Y-130616073D01*
X169277188Y-130586376D01*
X169113216Y-130518456D01*
X168965646Y-130419853D01*
X168840147Y-130294354D01*
X168741544Y-130146784D01*
X168673624Y-129982812D01*
X168639000Y-129808741D01*
X168639000Y-129631259D01*
X168673624Y-129457188D01*
X168741544Y-129293216D01*
X168840147Y-129145646D01*
X168965646Y-129020147D01*
X169113216Y-128921544D01*
X169277188Y-128853624D01*
X169426488Y-128823927D01*
X169451258Y-128819000D01*
X169628742Y-128819000D01*
X169653512Y-128823927D01*
G37*
G36*
X248753512Y-127603927D02*
G01*
X248902812Y-127633624D01*
X249066784Y-127701544D01*
X249214354Y-127800147D01*
X249339853Y-127925646D01*
X249438456Y-128073216D01*
X249506376Y-128237188D01*
X249541000Y-128411259D01*
X249541000Y-128588741D01*
X249506376Y-128762812D01*
X249438456Y-128926784D01*
X249339853Y-129074354D01*
X249214354Y-129199853D01*
X249066784Y-129298456D01*
X248902812Y-129366376D01*
X248753512Y-129396073D01*
X248728742Y-129401000D01*
X248551258Y-129401000D01*
X248526488Y-129396073D01*
X248377188Y-129366376D01*
X248213216Y-129298456D01*
X248065646Y-129199853D01*
X247940147Y-129074354D01*
X247841544Y-128926784D01*
X247773624Y-128762812D01*
X247739000Y-128588741D01*
X247739000Y-128411259D01*
X247773624Y-128237188D01*
X247841544Y-128073216D01*
X247940147Y-127925646D01*
X248065646Y-127800147D01*
X248213216Y-127701544D01*
X248377188Y-127633624D01*
X248526488Y-127603927D01*
X248551258Y-127599000D01*
X248728742Y-127599000D01*
X248753512Y-127603927D01*
G37*
G36*
X246213512Y-127603927D02*
G01*
X246362812Y-127633624D01*
X246526784Y-127701544D01*
X246674354Y-127800147D01*
X246799853Y-127925646D01*
X246898456Y-128073216D01*
X246966376Y-128237188D01*
X247001000Y-128411259D01*
X247001000Y-128588741D01*
X246966376Y-128762812D01*
X246898456Y-128926784D01*
X246799853Y-129074354D01*
X246674354Y-129199853D01*
X246526784Y-129298456D01*
X246362812Y-129366376D01*
X246213512Y-129396073D01*
X246188742Y-129401000D01*
X246011258Y-129401000D01*
X245986488Y-129396073D01*
X245837188Y-129366376D01*
X245673216Y-129298456D01*
X245525646Y-129199853D01*
X245400147Y-129074354D01*
X245301544Y-128926784D01*
X245233624Y-128762812D01*
X245199000Y-128588741D01*
X245199000Y-128411259D01*
X245233624Y-128237188D01*
X245301544Y-128073216D01*
X245400147Y-127925646D01*
X245525646Y-127800147D01*
X245673216Y-127701544D01*
X245837188Y-127633624D01*
X245986488Y-127603927D01*
X246011258Y-127599000D01*
X246188742Y-127599000D01*
X246213512Y-127603927D01*
G37*
G36*
X220801000Y-129101000D02*
G01*
X218999000Y-129101000D01*
X218999000Y-127299000D01*
X220801000Y-127299000D01*
X220801000Y-129101000D01*
G37*
G36*
X167113512Y-126283927D02*
G01*
X167262812Y-126313624D01*
X167426784Y-126381544D01*
X167574354Y-126480147D01*
X167699853Y-126605646D01*
X167798456Y-126753216D01*
X167866376Y-126917188D01*
X167901000Y-127091259D01*
X167901000Y-127268741D01*
X167866376Y-127442812D01*
X167798456Y-127606784D01*
X167699853Y-127754354D01*
X167574354Y-127879853D01*
X167426784Y-127978456D01*
X167262812Y-128046376D01*
X167113512Y-128076073D01*
X167088742Y-128081000D01*
X166911258Y-128081000D01*
X166886488Y-128076073D01*
X166737188Y-128046376D01*
X166573216Y-127978456D01*
X166425646Y-127879853D01*
X166300147Y-127754354D01*
X166201544Y-127606784D01*
X166133624Y-127442812D01*
X166099000Y-127268741D01*
X166099000Y-127091259D01*
X166133624Y-126917188D01*
X166201544Y-126753216D01*
X166300147Y-126605646D01*
X166425646Y-126480147D01*
X166573216Y-126381544D01*
X166737188Y-126313624D01*
X166886488Y-126283927D01*
X166911258Y-126279000D01*
X167088742Y-126279000D01*
X167113512Y-126283927D01*
G37*
G36*
X169653512Y-126283927D02*
G01*
X169802812Y-126313624D01*
X169966784Y-126381544D01*
X170114354Y-126480147D01*
X170239853Y-126605646D01*
X170338456Y-126753216D01*
X170406376Y-126917188D01*
X170441000Y-127091259D01*
X170441000Y-127268741D01*
X170406376Y-127442812D01*
X170338456Y-127606784D01*
X170239853Y-127754354D01*
X170114354Y-127879853D01*
X169966784Y-127978456D01*
X169802812Y-128046376D01*
X169653512Y-128076073D01*
X169628742Y-128081000D01*
X169451258Y-128081000D01*
X169426488Y-128076073D01*
X169277188Y-128046376D01*
X169113216Y-127978456D01*
X168965646Y-127879853D01*
X168840147Y-127754354D01*
X168741544Y-127606784D01*
X168673624Y-127442812D01*
X168639000Y-127268741D01*
X168639000Y-127091259D01*
X168673624Y-126917188D01*
X168741544Y-126753216D01*
X168840147Y-126605646D01*
X168965646Y-126480147D01*
X169113216Y-126381544D01*
X169277188Y-126313624D01*
X169426488Y-126283927D01*
X169451258Y-126279000D01*
X169628742Y-126279000D01*
X169653512Y-126283927D01*
G37*
G36*
X246213512Y-125063927D02*
G01*
X246362812Y-125093624D01*
X246526784Y-125161544D01*
X246674354Y-125260147D01*
X246799853Y-125385646D01*
X246898456Y-125533216D01*
X246966376Y-125697188D01*
X247001000Y-125871259D01*
X247001000Y-126048741D01*
X246966376Y-126222812D01*
X246898456Y-126386784D01*
X246799853Y-126534354D01*
X246674354Y-126659853D01*
X246526784Y-126758456D01*
X246362812Y-126826376D01*
X246213512Y-126856073D01*
X246188742Y-126861000D01*
X246011258Y-126861000D01*
X245986488Y-126856073D01*
X245837188Y-126826376D01*
X245673216Y-126758456D01*
X245525646Y-126659853D01*
X245400147Y-126534354D01*
X245301544Y-126386784D01*
X245233624Y-126222812D01*
X245199000Y-126048741D01*
X245199000Y-125871259D01*
X245233624Y-125697188D01*
X245301544Y-125533216D01*
X245400147Y-125385646D01*
X245525646Y-125260147D01*
X245673216Y-125161544D01*
X245837188Y-125093624D01*
X245986488Y-125063927D01*
X246011258Y-125059000D01*
X246188742Y-125059000D01*
X246213512Y-125063927D01*
G37*
G36*
X248753512Y-125063927D02*
G01*
X248902812Y-125093624D01*
X249066784Y-125161544D01*
X249214354Y-125260147D01*
X249339853Y-125385646D01*
X249438456Y-125533216D01*
X249506376Y-125697188D01*
X249541000Y-125871259D01*
X249541000Y-126048741D01*
X249506376Y-126222812D01*
X249438456Y-126386784D01*
X249339853Y-126534354D01*
X249214354Y-126659853D01*
X249066784Y-126758456D01*
X248902812Y-126826376D01*
X248753512Y-126856073D01*
X248728742Y-126861000D01*
X248551258Y-126861000D01*
X248526488Y-126856073D01*
X248377188Y-126826376D01*
X248213216Y-126758456D01*
X248065646Y-126659853D01*
X247940147Y-126534354D01*
X247841544Y-126386784D01*
X247773624Y-126222812D01*
X247739000Y-126048741D01*
X247739000Y-125871259D01*
X247773624Y-125697188D01*
X247841544Y-125533216D01*
X247940147Y-125385646D01*
X248065646Y-125260147D01*
X248213216Y-125161544D01*
X248377188Y-125093624D01*
X248526488Y-125063927D01*
X248551258Y-125059000D01*
X248728742Y-125059000D01*
X248753512Y-125063927D01*
G37*
G36*
X220013512Y-124763927D02*
G01*
X220162812Y-124793624D01*
X220326784Y-124861544D01*
X220474354Y-124960147D01*
X220599853Y-125085646D01*
X220698456Y-125233216D01*
X220766376Y-125397188D01*
X220801000Y-125571259D01*
X220801000Y-125748741D01*
X220766376Y-125922812D01*
X220698456Y-126086784D01*
X220599853Y-126234354D01*
X220474354Y-126359853D01*
X220326784Y-126458456D01*
X220162812Y-126526376D01*
X220013512Y-126556073D01*
X219988742Y-126561000D01*
X219811258Y-126561000D01*
X219786488Y-126556073D01*
X219637188Y-126526376D01*
X219473216Y-126458456D01*
X219325646Y-126359853D01*
X219200147Y-126234354D01*
X219101544Y-126086784D01*
X219033624Y-125922812D01*
X218999000Y-125748741D01*
X218999000Y-125571259D01*
X219033624Y-125397188D01*
X219101544Y-125233216D01*
X219200147Y-125085646D01*
X219325646Y-124960147D01*
X219473216Y-124861544D01*
X219637188Y-124793624D01*
X219786488Y-124763927D01*
X219811258Y-124759000D01*
X219988742Y-124759000D01*
X220013512Y-124763927D01*
G37*
G36*
X195463512Y-124143927D02*
G01*
X195612812Y-124173624D01*
X195776784Y-124241544D01*
X195924354Y-124340147D01*
X196049853Y-124465646D01*
X196148456Y-124613216D01*
X196216376Y-124777188D01*
X196251000Y-124951259D01*
X196251000Y-125128741D01*
X196216376Y-125302812D01*
X196148456Y-125466784D01*
X196049853Y-125614354D01*
X195924354Y-125739853D01*
X195776784Y-125838456D01*
X195612812Y-125906376D01*
X195463512Y-125936073D01*
X195438742Y-125941000D01*
X195261258Y-125941000D01*
X195236488Y-125936073D01*
X195087188Y-125906376D01*
X194923216Y-125838456D01*
X194775646Y-125739853D01*
X194650147Y-125614354D01*
X194551544Y-125466784D01*
X194483624Y-125302812D01*
X194449000Y-125128741D01*
X194449000Y-124951259D01*
X194483624Y-124777188D01*
X194551544Y-124613216D01*
X194650147Y-124465646D01*
X194775646Y-124340147D01*
X194923216Y-124241544D01*
X195087188Y-124173624D01*
X195236488Y-124143927D01*
X195261258Y-124139000D01*
X195438742Y-124139000D01*
X195463512Y-124143927D01*
G37*
G36*
X192618228Y-124221703D02*
G01*
X192773100Y-124285853D01*
X192912481Y-124378985D01*
X193031015Y-124497519D01*
X193124147Y-124636900D01*
X193188297Y-124791772D01*
X193221000Y-124956184D01*
X193221000Y-125123816D01*
X193188297Y-125288228D01*
X193124147Y-125443100D01*
X193031015Y-125582481D01*
X192912481Y-125701015D01*
X192773100Y-125794147D01*
X192618228Y-125858297D01*
X192453816Y-125891000D01*
X192286184Y-125891000D01*
X192121772Y-125858297D01*
X191966900Y-125794147D01*
X191827519Y-125701015D01*
X191708985Y-125582481D01*
X191615853Y-125443100D01*
X191551703Y-125288228D01*
X191519000Y-125123816D01*
X191519000Y-124956184D01*
X191551703Y-124791772D01*
X191615853Y-124636900D01*
X191708985Y-124497519D01*
X191827519Y-124378985D01*
X191966900Y-124285853D01*
X192121772Y-124221703D01*
X192286184Y-124189000D01*
X192453816Y-124189000D01*
X192618228Y-124221703D01*
G37*
G36*
X184998228Y-124221703D02*
G01*
X185153100Y-124285853D01*
X185292481Y-124378985D01*
X185411015Y-124497519D01*
X185504147Y-124636900D01*
X185568297Y-124791772D01*
X185601000Y-124956184D01*
X185601000Y-125123816D01*
X185568297Y-125288228D01*
X185504147Y-125443100D01*
X185411015Y-125582481D01*
X185292481Y-125701015D01*
X185153100Y-125794147D01*
X184998228Y-125858297D01*
X184833816Y-125891000D01*
X184666184Y-125891000D01*
X184501772Y-125858297D01*
X184346900Y-125794147D01*
X184207519Y-125701015D01*
X184088985Y-125582481D01*
X183995853Y-125443100D01*
X183931703Y-125288228D01*
X183899000Y-125123816D01*
X183899000Y-124956184D01*
X183931703Y-124791772D01*
X183995853Y-124636900D01*
X184088985Y-124497519D01*
X184207519Y-124378985D01*
X184346900Y-124285853D01*
X184501772Y-124221703D01*
X184666184Y-124189000D01*
X184833816Y-124189000D01*
X184998228Y-124221703D01*
G37*
G36*
X167113512Y-123743927D02*
G01*
X167262812Y-123773624D01*
X167426784Y-123841544D01*
X167574354Y-123940147D01*
X167699853Y-124065646D01*
X167798456Y-124213216D01*
X167866376Y-124377188D01*
X167901000Y-124551259D01*
X167901000Y-124728741D01*
X167866376Y-124902812D01*
X167798456Y-125066784D01*
X167699853Y-125214354D01*
X167574354Y-125339853D01*
X167426784Y-125438456D01*
X167262812Y-125506376D01*
X167113512Y-125536073D01*
X167088742Y-125541000D01*
X166911258Y-125541000D01*
X166886488Y-125536073D01*
X166737188Y-125506376D01*
X166573216Y-125438456D01*
X166425646Y-125339853D01*
X166300147Y-125214354D01*
X166201544Y-125066784D01*
X166133624Y-124902812D01*
X166099000Y-124728741D01*
X166099000Y-124551259D01*
X166133624Y-124377188D01*
X166201544Y-124213216D01*
X166300147Y-124065646D01*
X166425646Y-123940147D01*
X166573216Y-123841544D01*
X166737188Y-123773624D01*
X166886488Y-123743927D01*
X166911258Y-123739000D01*
X167088742Y-123739000D01*
X167113512Y-123743927D01*
G37*
G36*
X169653512Y-123743927D02*
G01*
X169802812Y-123773624D01*
X169966784Y-123841544D01*
X170114354Y-123940147D01*
X170239853Y-124065646D01*
X170338456Y-124213216D01*
X170406376Y-124377188D01*
X170441000Y-124551259D01*
X170441000Y-124728741D01*
X170406376Y-124902812D01*
X170338456Y-125066784D01*
X170239853Y-125214354D01*
X170114354Y-125339853D01*
X169966784Y-125438456D01*
X169802812Y-125506376D01*
X169653512Y-125536073D01*
X169628742Y-125541000D01*
X169451258Y-125541000D01*
X169426488Y-125536073D01*
X169277188Y-125506376D01*
X169113216Y-125438456D01*
X168965646Y-125339853D01*
X168840147Y-125214354D01*
X168741544Y-125066784D01*
X168673624Y-124902812D01*
X168639000Y-124728741D01*
X168639000Y-124551259D01*
X168673624Y-124377188D01*
X168741544Y-124213216D01*
X168840147Y-124065646D01*
X168965646Y-123940147D01*
X169113216Y-123841544D01*
X169277188Y-123773624D01*
X169426488Y-123743927D01*
X169451258Y-123739000D01*
X169628742Y-123739000D01*
X169653512Y-123743927D01*
G37*
G36*
X204056564Y-122389389D02*
G01*
X204247833Y-122468615D01*
X204247835Y-122468616D01*
X204419973Y-122583635D01*
X204566365Y-122730027D01*
X204678906Y-122898456D01*
X204681385Y-122902167D01*
X204760611Y-123093436D01*
X204801000Y-123296484D01*
X204801000Y-123503516D01*
X204760611Y-123706564D01*
X204702531Y-123846782D01*
X204681384Y-123897835D01*
X204566365Y-124069973D01*
X204419973Y-124216365D01*
X204247835Y-124331384D01*
X204247834Y-124331385D01*
X204247833Y-124331385D01*
X204056564Y-124410611D01*
X203853516Y-124451000D01*
X203646484Y-124451000D01*
X203443436Y-124410611D01*
X203252167Y-124331385D01*
X203252166Y-124331385D01*
X203252165Y-124331384D01*
X203080027Y-124216365D01*
X202933635Y-124069973D01*
X202818616Y-123897835D01*
X202797469Y-123846782D01*
X202739389Y-123706564D01*
X202699000Y-123503516D01*
X202699000Y-123296484D01*
X202739389Y-123093436D01*
X202818615Y-122902167D01*
X202821095Y-122898456D01*
X202933635Y-122730027D01*
X203080027Y-122583635D01*
X203252165Y-122468616D01*
X203252167Y-122468615D01*
X203443436Y-122389389D01*
X203646484Y-122349000D01*
X203853516Y-122349000D01*
X204056564Y-122389389D01*
G37*
G36*
X208556564Y-122389389D02*
G01*
X208747833Y-122468615D01*
X208747835Y-122468616D01*
X208919973Y-122583635D01*
X209066365Y-122730027D01*
X209178906Y-122898456D01*
X209181385Y-122902167D01*
X209260611Y-123093436D01*
X209301000Y-123296484D01*
X209301000Y-123503516D01*
X209260611Y-123706564D01*
X209202531Y-123846782D01*
X209181384Y-123897835D01*
X209066365Y-124069973D01*
X208919973Y-124216365D01*
X208747835Y-124331384D01*
X208747834Y-124331385D01*
X208747833Y-124331385D01*
X208556564Y-124410611D01*
X208353516Y-124451000D01*
X208146484Y-124451000D01*
X207943436Y-124410611D01*
X207752167Y-124331385D01*
X207752166Y-124331385D01*
X207752165Y-124331384D01*
X207580027Y-124216365D01*
X207433635Y-124069973D01*
X207318616Y-123897835D01*
X207297469Y-123846782D01*
X207239389Y-123706564D01*
X207199000Y-123503516D01*
X207199000Y-123296484D01*
X207239389Y-123093436D01*
X207318615Y-122902167D01*
X207321095Y-122898456D01*
X207433635Y-122730027D01*
X207580027Y-122583635D01*
X207752165Y-122468616D01*
X207752167Y-122468615D01*
X207943436Y-122389389D01*
X208146484Y-122349000D01*
X208353516Y-122349000D01*
X208556564Y-122389389D01*
G37*
G36*
X248753512Y-122523927D02*
G01*
X248902812Y-122553624D01*
X249066784Y-122621544D01*
X249214354Y-122720147D01*
X249339853Y-122845646D01*
X249438456Y-122993216D01*
X249506376Y-123157188D01*
X249541000Y-123331259D01*
X249541000Y-123508741D01*
X249506376Y-123682812D01*
X249438456Y-123846784D01*
X249339853Y-123994354D01*
X249214354Y-124119853D01*
X249066784Y-124218456D01*
X248902812Y-124286376D01*
X248753512Y-124316073D01*
X248728742Y-124321000D01*
X248551258Y-124321000D01*
X248526488Y-124316073D01*
X248377188Y-124286376D01*
X248213216Y-124218456D01*
X248065646Y-124119853D01*
X247940147Y-123994354D01*
X247841544Y-123846784D01*
X247773624Y-123682812D01*
X247739000Y-123508741D01*
X247739000Y-123331259D01*
X247773624Y-123157188D01*
X247841544Y-122993216D01*
X247940147Y-122845646D01*
X248065646Y-122720147D01*
X248213216Y-122621544D01*
X248377188Y-122553624D01*
X248526488Y-122523927D01*
X248551258Y-122519000D01*
X248728742Y-122519000D01*
X248753512Y-122523927D01*
G37*
G36*
X246213512Y-122523927D02*
G01*
X246362812Y-122553624D01*
X246526784Y-122621544D01*
X246674354Y-122720147D01*
X246799853Y-122845646D01*
X246898456Y-122993216D01*
X246966376Y-123157188D01*
X247001000Y-123331259D01*
X247001000Y-123508741D01*
X246966376Y-123682812D01*
X246898456Y-123846784D01*
X246799853Y-123994354D01*
X246674354Y-124119853D01*
X246526784Y-124218456D01*
X246362812Y-124286376D01*
X246213512Y-124316073D01*
X246188742Y-124321000D01*
X246011258Y-124321000D01*
X245986488Y-124316073D01*
X245837188Y-124286376D01*
X245673216Y-124218456D01*
X245525646Y-124119853D01*
X245400147Y-123994354D01*
X245301544Y-123846784D01*
X245233624Y-123682812D01*
X245199000Y-123508741D01*
X245199000Y-123331259D01*
X245233624Y-123157188D01*
X245301544Y-122993216D01*
X245400147Y-122845646D01*
X245525646Y-122720147D01*
X245673216Y-122621544D01*
X245837188Y-122553624D01*
X245986488Y-122523927D01*
X246011258Y-122519000D01*
X246188742Y-122519000D01*
X246213512Y-122523927D01*
G37*
G36*
X220013512Y-122223927D02*
G01*
X220162812Y-122253624D01*
X220326784Y-122321544D01*
X220474354Y-122420147D01*
X220599853Y-122545646D01*
X220698456Y-122693216D01*
X220766376Y-122857188D01*
X220801000Y-123031259D01*
X220801000Y-123208741D01*
X220766376Y-123382812D01*
X220698456Y-123546784D01*
X220599853Y-123694354D01*
X220474354Y-123819853D01*
X220326784Y-123918456D01*
X220162812Y-123986376D01*
X220013512Y-124016073D01*
X219988742Y-124021000D01*
X219811258Y-124021000D01*
X219786488Y-124016073D01*
X219637188Y-123986376D01*
X219473216Y-123918456D01*
X219325646Y-123819853D01*
X219200147Y-123694354D01*
X219101544Y-123546784D01*
X219033624Y-123382812D01*
X218999000Y-123208741D01*
X218999000Y-123031259D01*
X219033624Y-122857188D01*
X219101544Y-122693216D01*
X219200147Y-122545646D01*
X219325646Y-122420147D01*
X219473216Y-122321544D01*
X219637188Y-122253624D01*
X219786488Y-122223927D01*
X219811258Y-122219000D01*
X219988742Y-122219000D01*
X220013512Y-122223927D01*
G37*
G36*
X196251000Y-123401000D02*
G01*
X194449000Y-123401000D01*
X194449000Y-121599000D01*
X196251000Y-121599000D01*
X196251000Y-123401000D01*
G37*
G36*
X185601000Y-123351000D02*
G01*
X183899000Y-123351000D01*
X183899000Y-121649000D01*
X185601000Y-121649000D01*
X185601000Y-123351000D01*
G37*
G36*
X192618228Y-121681703D02*
G01*
X192773100Y-121745853D01*
X192912481Y-121838985D01*
X193031015Y-121957519D01*
X193124147Y-122096900D01*
X193188297Y-122251772D01*
X193221000Y-122416184D01*
X193221000Y-122583816D01*
X193188297Y-122748228D01*
X193124147Y-122903100D01*
X193031015Y-123042481D01*
X192912481Y-123161015D01*
X192773100Y-123254147D01*
X192618228Y-123318297D01*
X192453816Y-123351000D01*
X192286184Y-123351000D01*
X192121772Y-123318297D01*
X191966900Y-123254147D01*
X191827519Y-123161015D01*
X191708985Y-123042481D01*
X191615853Y-122903100D01*
X191551703Y-122748228D01*
X191519000Y-122583816D01*
X191519000Y-122416184D01*
X191551703Y-122251772D01*
X191615853Y-122096900D01*
X191708985Y-121957519D01*
X191827519Y-121838985D01*
X191966900Y-121745853D01*
X192121772Y-121681703D01*
X192286184Y-121649000D01*
X192453816Y-121649000D01*
X192618228Y-121681703D01*
G37*
G36*
X167901000Y-123001000D02*
G01*
X166099000Y-123001000D01*
X166099000Y-121199000D01*
X167901000Y-121199000D01*
X167901000Y-123001000D01*
G37*
G36*
X169653512Y-121203927D02*
G01*
X169802812Y-121233624D01*
X169966784Y-121301544D01*
X170114354Y-121400147D01*
X170239853Y-121525646D01*
X170338456Y-121673216D01*
X170406376Y-121837188D01*
X170441000Y-122011259D01*
X170441000Y-122188741D01*
X170406376Y-122362812D01*
X170338456Y-122526784D01*
X170239853Y-122674354D01*
X170114354Y-122799853D01*
X169966784Y-122898456D01*
X169802812Y-122966376D01*
X169653512Y-122996073D01*
X169628742Y-123001000D01*
X169451258Y-123001000D01*
X169426488Y-122996073D01*
X169277188Y-122966376D01*
X169113216Y-122898456D01*
X168965646Y-122799853D01*
X168840147Y-122674354D01*
X168741544Y-122526784D01*
X168673624Y-122362812D01*
X168639000Y-122188741D01*
X168639000Y-122011259D01*
X168673624Y-121837188D01*
X168741544Y-121673216D01*
X168840147Y-121525646D01*
X168965646Y-121400147D01*
X169113216Y-121301544D01*
X169277188Y-121233624D01*
X169426488Y-121203927D01*
X169451258Y-121199000D01*
X169628742Y-121199000D01*
X169653512Y-121203927D01*
G37*
G36*
X248753512Y-119983927D02*
G01*
X248902812Y-120013624D01*
X249066784Y-120081544D01*
X249214354Y-120180147D01*
X249339853Y-120305646D01*
X249438456Y-120453216D01*
X249506376Y-120617188D01*
X249541000Y-120791259D01*
X249541000Y-120968741D01*
X249506376Y-121142812D01*
X249438456Y-121306784D01*
X249339853Y-121454354D01*
X249214354Y-121579853D01*
X249066784Y-121678456D01*
X248902812Y-121746376D01*
X248753512Y-121776073D01*
X248728742Y-121781000D01*
X248551258Y-121781000D01*
X248526488Y-121776073D01*
X248377188Y-121746376D01*
X248213216Y-121678456D01*
X248065646Y-121579853D01*
X247940147Y-121454354D01*
X247841544Y-121306784D01*
X247773624Y-121142812D01*
X247739000Y-120968741D01*
X247739000Y-120791259D01*
X247773624Y-120617188D01*
X247841544Y-120453216D01*
X247940147Y-120305646D01*
X248065646Y-120180147D01*
X248213216Y-120081544D01*
X248377188Y-120013624D01*
X248526488Y-119983927D01*
X248551258Y-119979000D01*
X248728742Y-119979000D01*
X248753512Y-119983927D01*
G37*
G36*
X246213512Y-119983927D02*
G01*
X246362812Y-120013624D01*
X246526784Y-120081544D01*
X246674354Y-120180147D01*
X246799853Y-120305646D01*
X246898456Y-120453216D01*
X246966376Y-120617188D01*
X247001000Y-120791259D01*
X247001000Y-120968741D01*
X246966376Y-121142812D01*
X246898456Y-121306784D01*
X246799853Y-121454354D01*
X246674354Y-121579853D01*
X246526784Y-121678456D01*
X246362812Y-121746376D01*
X246213512Y-121776073D01*
X246188742Y-121781000D01*
X246011258Y-121781000D01*
X245986488Y-121776073D01*
X245837188Y-121746376D01*
X245673216Y-121678456D01*
X245525646Y-121579853D01*
X245400147Y-121454354D01*
X245301544Y-121306784D01*
X245233624Y-121142812D01*
X245199000Y-120968741D01*
X245199000Y-120791259D01*
X245233624Y-120617188D01*
X245301544Y-120453216D01*
X245400147Y-120305646D01*
X245525646Y-120180147D01*
X245673216Y-120081544D01*
X245837188Y-120013624D01*
X245986488Y-119983927D01*
X246011258Y-119979000D01*
X246188742Y-119979000D01*
X246213512Y-119983927D01*
G37*
G36*
X236602585Y-116478802D02*
G01*
X236752410Y-116508604D01*
X237034674Y-116625521D01*
X237288705Y-116795259D01*
X237504741Y-117011295D01*
X237674479Y-117265326D01*
X237791396Y-117547590D01*
X237851000Y-117847240D01*
X237851000Y-118152760D01*
X237791396Y-118452410D01*
X237674479Y-118734674D01*
X237504741Y-118988705D01*
X237288705Y-119204741D01*
X237034674Y-119374479D01*
X236752410Y-119491396D01*
X236602585Y-119521198D01*
X236452761Y-119551000D01*
X236147239Y-119551000D01*
X235997415Y-119521198D01*
X235847590Y-119491396D01*
X235565326Y-119374479D01*
X235311295Y-119204741D01*
X235095259Y-118988705D01*
X234925521Y-118734674D01*
X234808604Y-118452410D01*
X234749000Y-118152760D01*
X234749000Y-117847240D01*
X234808604Y-117547590D01*
X234925521Y-117265326D01*
X235095259Y-117011295D01*
X235311295Y-116795259D01*
X235565326Y-116625521D01*
X235847590Y-116508604D01*
X235997415Y-116478802D01*
X236147239Y-116449000D01*
X236452761Y-116449000D01*
X236602585Y-116478802D01*
G37*
G36*
X246213512Y-117443927D02*
G01*
X246362812Y-117473624D01*
X246526784Y-117541544D01*
X246674354Y-117640147D01*
X246799853Y-117765646D01*
X246898456Y-117913216D01*
X246966376Y-118077188D01*
X247001000Y-118251259D01*
X247001000Y-118428741D01*
X246966376Y-118602812D01*
X246898456Y-118766784D01*
X246799853Y-118914354D01*
X246674354Y-119039853D01*
X246526784Y-119138456D01*
X246362812Y-119206376D01*
X246213512Y-119236073D01*
X246188742Y-119241000D01*
X246011258Y-119241000D01*
X245986488Y-119236073D01*
X245837188Y-119206376D01*
X245673216Y-119138456D01*
X245525646Y-119039853D01*
X245400147Y-118914354D01*
X245301544Y-118766784D01*
X245233624Y-118602812D01*
X245199000Y-118428741D01*
X245199000Y-118251259D01*
X245233624Y-118077188D01*
X245301544Y-117913216D01*
X245400147Y-117765646D01*
X245525646Y-117640147D01*
X245673216Y-117541544D01*
X245837188Y-117473624D01*
X245986488Y-117443927D01*
X246011258Y-117439000D01*
X246188742Y-117439000D01*
X246213512Y-117443927D01*
G37*
G36*
X248753512Y-117443927D02*
G01*
X248902812Y-117473624D01*
X249066784Y-117541544D01*
X249214354Y-117640147D01*
X249339853Y-117765646D01*
X249438456Y-117913216D01*
X249506376Y-118077188D01*
X249541000Y-118251259D01*
X249541000Y-118428741D01*
X249506376Y-118602812D01*
X249438456Y-118766784D01*
X249339853Y-118914354D01*
X249214354Y-119039853D01*
X249066784Y-119138456D01*
X248902812Y-119206376D01*
X248753512Y-119236073D01*
X248728742Y-119241000D01*
X248551258Y-119241000D01*
X248526488Y-119236073D01*
X248377188Y-119206376D01*
X248213216Y-119138456D01*
X248065646Y-119039853D01*
X247940147Y-118914354D01*
X247841544Y-118766784D01*
X247773624Y-118602812D01*
X247739000Y-118428741D01*
X247739000Y-118251259D01*
X247773624Y-118077188D01*
X247841544Y-117913216D01*
X247940147Y-117765646D01*
X248065646Y-117640147D01*
X248213216Y-117541544D01*
X248377188Y-117473624D01*
X248526488Y-117443927D01*
X248551258Y-117439000D01*
X248728742Y-117439000D01*
X248753512Y-117443927D01*
G37*
G36*
X208556564Y-115889389D02*
G01*
X208747833Y-115968615D01*
X208747835Y-115968616D01*
X208919973Y-116083635D01*
X209066365Y-116230027D01*
X209162801Y-116374353D01*
X209181385Y-116402167D01*
X209260611Y-116593436D01*
X209301000Y-116796484D01*
X209301000Y-117003516D01*
X209260611Y-117206564D01*
X209236271Y-117265326D01*
X209181384Y-117397835D01*
X209066365Y-117569973D01*
X208919973Y-117716365D01*
X208747835Y-117831384D01*
X208747834Y-117831385D01*
X208747833Y-117831385D01*
X208556564Y-117910611D01*
X208353516Y-117951000D01*
X208146484Y-117951000D01*
X207943436Y-117910611D01*
X207752167Y-117831385D01*
X207752166Y-117831385D01*
X207752165Y-117831384D01*
X207580027Y-117716365D01*
X207433635Y-117569973D01*
X207318616Y-117397835D01*
X207263729Y-117265326D01*
X207239389Y-117206564D01*
X207199000Y-117003516D01*
X207199000Y-116796484D01*
X207239389Y-116593436D01*
X207318615Y-116402167D01*
X207337200Y-116374353D01*
X207433635Y-116230027D01*
X207580027Y-116083635D01*
X207752165Y-115968616D01*
X207752167Y-115968615D01*
X207943436Y-115889389D01*
X208146484Y-115849000D01*
X208353516Y-115849000D01*
X208556564Y-115889389D01*
G37*
G36*
X204056564Y-115889389D02*
G01*
X204247833Y-115968615D01*
X204247835Y-115968616D01*
X204419973Y-116083635D01*
X204566365Y-116230027D01*
X204662801Y-116374353D01*
X204681385Y-116402167D01*
X204760611Y-116593436D01*
X204801000Y-116796484D01*
X204801000Y-117003516D01*
X204760611Y-117206564D01*
X204736271Y-117265326D01*
X204681384Y-117397835D01*
X204566365Y-117569973D01*
X204419973Y-117716365D01*
X204247835Y-117831384D01*
X204247834Y-117831385D01*
X204247833Y-117831385D01*
X204056564Y-117910611D01*
X203853516Y-117951000D01*
X203646484Y-117951000D01*
X203443436Y-117910611D01*
X203252167Y-117831385D01*
X203252166Y-117831385D01*
X203252165Y-117831384D01*
X203080027Y-117716365D01*
X202933635Y-117569973D01*
X202818616Y-117397835D01*
X202763729Y-117265326D01*
X202739389Y-117206564D01*
X202699000Y-117003516D01*
X202699000Y-116796484D01*
X202739389Y-116593436D01*
X202818615Y-116402167D01*
X202837200Y-116374353D01*
X202933635Y-116230027D01*
X203080027Y-116083635D01*
X203252165Y-115968616D01*
X203252167Y-115968615D01*
X203443436Y-115889389D01*
X203646484Y-115849000D01*
X203853516Y-115849000D01*
X204056564Y-115889389D01*
G37*
G36*
X248753512Y-114903927D02*
G01*
X248902812Y-114933624D01*
X249066784Y-115001544D01*
X249214354Y-115100147D01*
X249339853Y-115225646D01*
X249438456Y-115373216D01*
X249506376Y-115537188D01*
X249541000Y-115711259D01*
X249541000Y-115888741D01*
X249506376Y-116062812D01*
X249438456Y-116226784D01*
X249339853Y-116374354D01*
X249214354Y-116499853D01*
X249066784Y-116598456D01*
X248902812Y-116666376D01*
X248753512Y-116696073D01*
X248728742Y-116701000D01*
X248551258Y-116701000D01*
X248526488Y-116696073D01*
X248377188Y-116666376D01*
X248213216Y-116598456D01*
X248065646Y-116499853D01*
X247940147Y-116374354D01*
X247841544Y-116226784D01*
X247773624Y-116062812D01*
X247739000Y-115888741D01*
X247739000Y-115711259D01*
X247773624Y-115537188D01*
X247841544Y-115373216D01*
X247940147Y-115225646D01*
X248065646Y-115100147D01*
X248213216Y-115001544D01*
X248377188Y-114933624D01*
X248526488Y-114903927D01*
X248551258Y-114899000D01*
X248728742Y-114899000D01*
X248753512Y-114903927D01*
G37*
G36*
X246213512Y-114903927D02*
G01*
X246362812Y-114933624D01*
X246526784Y-115001544D01*
X246674354Y-115100147D01*
X246799853Y-115225646D01*
X246898456Y-115373216D01*
X246966376Y-115537188D01*
X247001000Y-115711259D01*
X247001000Y-115888741D01*
X246966376Y-116062812D01*
X246898456Y-116226784D01*
X246799853Y-116374354D01*
X246674354Y-116499853D01*
X246526784Y-116598456D01*
X246362812Y-116666376D01*
X246213512Y-116696073D01*
X246188742Y-116701000D01*
X246011258Y-116701000D01*
X245986488Y-116696073D01*
X245837188Y-116666376D01*
X245673216Y-116598456D01*
X245525646Y-116499853D01*
X245400147Y-116374354D01*
X245301544Y-116226784D01*
X245233624Y-116062812D01*
X245199000Y-115888741D01*
X245199000Y-115711259D01*
X245233624Y-115537188D01*
X245301544Y-115373216D01*
X245400147Y-115225646D01*
X245525646Y-115100147D01*
X245673216Y-115001544D01*
X245837188Y-114933624D01*
X245986488Y-114903927D01*
X246011258Y-114899000D01*
X246188742Y-114899000D01*
X246213512Y-114903927D01*
G37*
G36*
X169653512Y-112573927D02*
G01*
X169802812Y-112603624D01*
X169966784Y-112671544D01*
X170114354Y-112770147D01*
X170239853Y-112895646D01*
X170338456Y-113043216D01*
X170406376Y-113207188D01*
X170441000Y-113381259D01*
X170441000Y-113558741D01*
X170406376Y-113732812D01*
X170338456Y-113896784D01*
X170239853Y-114044354D01*
X170114354Y-114169853D01*
X169966784Y-114268456D01*
X169802812Y-114336376D01*
X169653512Y-114366073D01*
X169628742Y-114371000D01*
X169451258Y-114371000D01*
X169426488Y-114366073D01*
X169277188Y-114336376D01*
X169113216Y-114268456D01*
X168965646Y-114169853D01*
X168840147Y-114044354D01*
X168741544Y-113896784D01*
X168673624Y-113732812D01*
X168639000Y-113558741D01*
X168639000Y-113381259D01*
X168673624Y-113207188D01*
X168741544Y-113043216D01*
X168840147Y-112895646D01*
X168965646Y-112770147D01*
X169113216Y-112671544D01*
X169277188Y-112603624D01*
X169426488Y-112573927D01*
X169451258Y-112569000D01*
X169628742Y-112569000D01*
X169653512Y-112573927D01*
G37*
G36*
X167113512Y-112573927D02*
G01*
X167262812Y-112603624D01*
X167426784Y-112671544D01*
X167574354Y-112770147D01*
X167699853Y-112895646D01*
X167798456Y-113043216D01*
X167866376Y-113207188D01*
X167901000Y-113381259D01*
X167901000Y-113558741D01*
X167866376Y-113732812D01*
X167798456Y-113896784D01*
X167699853Y-114044354D01*
X167574354Y-114169853D01*
X167426784Y-114268456D01*
X167262812Y-114336376D01*
X167113512Y-114366073D01*
X167088742Y-114371000D01*
X166911258Y-114371000D01*
X166886488Y-114366073D01*
X166737188Y-114336376D01*
X166573216Y-114268456D01*
X166425646Y-114169853D01*
X166300147Y-114044354D01*
X166201544Y-113896784D01*
X166133624Y-113732812D01*
X166099000Y-113558741D01*
X166099000Y-113381259D01*
X166133624Y-113207188D01*
X166201544Y-113043216D01*
X166300147Y-112895646D01*
X166425646Y-112770147D01*
X166573216Y-112671544D01*
X166737188Y-112603624D01*
X166886488Y-112573927D01*
X166911258Y-112569000D01*
X167088742Y-112569000D01*
X167113512Y-112573927D01*
G37*
G36*
X248753512Y-112363927D02*
G01*
X248902812Y-112393624D01*
X249066784Y-112461544D01*
X249214354Y-112560147D01*
X249339853Y-112685646D01*
X249438456Y-112833216D01*
X249506376Y-112997188D01*
X249541000Y-113171259D01*
X249541000Y-113348741D01*
X249506376Y-113522812D01*
X249438456Y-113686784D01*
X249339853Y-113834354D01*
X249214354Y-113959853D01*
X249066784Y-114058456D01*
X248902812Y-114126376D01*
X248753512Y-114156073D01*
X248728742Y-114161000D01*
X248551258Y-114161000D01*
X248526488Y-114156073D01*
X248377188Y-114126376D01*
X248213216Y-114058456D01*
X248065646Y-113959853D01*
X247940147Y-113834354D01*
X247841544Y-113686784D01*
X247773624Y-113522812D01*
X247739000Y-113348741D01*
X247739000Y-113171259D01*
X247773624Y-112997188D01*
X247841544Y-112833216D01*
X247940147Y-112685646D01*
X248065646Y-112560147D01*
X248213216Y-112461544D01*
X248377188Y-112393624D01*
X248526488Y-112363927D01*
X248551258Y-112359000D01*
X248728742Y-112359000D01*
X248753512Y-112363927D01*
G37*
G36*
X246213512Y-112363927D02*
G01*
X246362812Y-112393624D01*
X246526784Y-112461544D01*
X246674354Y-112560147D01*
X246799853Y-112685646D01*
X246898456Y-112833216D01*
X246966376Y-112997188D01*
X247001000Y-113171259D01*
X247001000Y-113348741D01*
X246966376Y-113522812D01*
X246898456Y-113686784D01*
X246799853Y-113834354D01*
X246674354Y-113959853D01*
X246526784Y-114058456D01*
X246362812Y-114126376D01*
X246213512Y-114156073D01*
X246188742Y-114161000D01*
X246011258Y-114161000D01*
X245986488Y-114156073D01*
X245837188Y-114126376D01*
X245673216Y-114058456D01*
X245525646Y-113959853D01*
X245400147Y-113834354D01*
X245301544Y-113686784D01*
X245233624Y-113522812D01*
X245199000Y-113348741D01*
X245199000Y-113171259D01*
X245233624Y-112997188D01*
X245301544Y-112833216D01*
X245400147Y-112685646D01*
X245525646Y-112560147D01*
X245673216Y-112461544D01*
X245837188Y-112393624D01*
X245986488Y-112363927D01*
X246011258Y-112359000D01*
X246188742Y-112359000D01*
X246213512Y-112363927D01*
G37*
G36*
X167113512Y-110033927D02*
G01*
X167262812Y-110063624D01*
X167426784Y-110131544D01*
X167574354Y-110230147D01*
X167699853Y-110355646D01*
X167798456Y-110503216D01*
X167866376Y-110667188D01*
X167901000Y-110841259D01*
X167901000Y-111018741D01*
X167866376Y-111192812D01*
X167798456Y-111356784D01*
X167699853Y-111504354D01*
X167574354Y-111629853D01*
X167426784Y-111728456D01*
X167262812Y-111796376D01*
X167113512Y-111826073D01*
X167088742Y-111831000D01*
X166911258Y-111831000D01*
X166886488Y-111826073D01*
X166737188Y-111796376D01*
X166573216Y-111728456D01*
X166425646Y-111629853D01*
X166300147Y-111504354D01*
X166201544Y-111356784D01*
X166133624Y-111192812D01*
X166099000Y-111018741D01*
X166099000Y-110841259D01*
X166133624Y-110667188D01*
X166201544Y-110503216D01*
X166300147Y-110355646D01*
X166425646Y-110230147D01*
X166573216Y-110131544D01*
X166737188Y-110063624D01*
X166886488Y-110033927D01*
X166911258Y-110029000D01*
X167088742Y-110029000D01*
X167113512Y-110033927D01*
G37*
G36*
X169653512Y-110033927D02*
G01*
X169802812Y-110063624D01*
X169966784Y-110131544D01*
X170114354Y-110230147D01*
X170239853Y-110355646D01*
X170338456Y-110503216D01*
X170406376Y-110667188D01*
X170441000Y-110841259D01*
X170441000Y-111018741D01*
X170406376Y-111192812D01*
X170338456Y-111356784D01*
X170239853Y-111504354D01*
X170114354Y-111629853D01*
X169966784Y-111728456D01*
X169802812Y-111796376D01*
X169653512Y-111826073D01*
X169628742Y-111831000D01*
X169451258Y-111831000D01*
X169426488Y-111826073D01*
X169277188Y-111796376D01*
X169113216Y-111728456D01*
X168965646Y-111629853D01*
X168840147Y-111504354D01*
X168741544Y-111356784D01*
X168673624Y-111192812D01*
X168639000Y-111018741D01*
X168639000Y-110841259D01*
X168673624Y-110667188D01*
X168741544Y-110503216D01*
X168840147Y-110355646D01*
X168965646Y-110230147D01*
X169113216Y-110131544D01*
X169277188Y-110063624D01*
X169426488Y-110033927D01*
X169451258Y-110029000D01*
X169628742Y-110029000D01*
X169653512Y-110033927D01*
G37*
G36*
X248753512Y-109823927D02*
G01*
X248902812Y-109853624D01*
X249066784Y-109921544D01*
X249214354Y-110020147D01*
X249339853Y-110145646D01*
X249438456Y-110293216D01*
X249506376Y-110457188D01*
X249541000Y-110631259D01*
X249541000Y-110808741D01*
X249506376Y-110982812D01*
X249438456Y-111146784D01*
X249339853Y-111294354D01*
X249214354Y-111419853D01*
X249066784Y-111518456D01*
X248902812Y-111586376D01*
X248753512Y-111616073D01*
X248728742Y-111621000D01*
X248551258Y-111621000D01*
X248526488Y-111616073D01*
X248377188Y-111586376D01*
X248213216Y-111518456D01*
X248065646Y-111419853D01*
X247940147Y-111294354D01*
X247841544Y-111146784D01*
X247773624Y-110982812D01*
X247739000Y-110808741D01*
X247739000Y-110631259D01*
X247773624Y-110457188D01*
X247841544Y-110293216D01*
X247940147Y-110145646D01*
X248065646Y-110020147D01*
X248213216Y-109921544D01*
X248377188Y-109853624D01*
X248526488Y-109823927D01*
X248551258Y-109819000D01*
X248728742Y-109819000D01*
X248753512Y-109823927D01*
G37*
G36*
X246213512Y-109823927D02*
G01*
X246362812Y-109853624D01*
X246526784Y-109921544D01*
X246674354Y-110020147D01*
X246799853Y-110145646D01*
X246898456Y-110293216D01*
X246966376Y-110457188D01*
X247001000Y-110631259D01*
X247001000Y-110808741D01*
X246966376Y-110982812D01*
X246898456Y-111146784D01*
X246799853Y-111294354D01*
X246674354Y-111419853D01*
X246526784Y-111518456D01*
X246362812Y-111586376D01*
X246213512Y-111616073D01*
X246188742Y-111621000D01*
X246011258Y-111621000D01*
X245986488Y-111616073D01*
X245837188Y-111586376D01*
X245673216Y-111518456D01*
X245525646Y-111419853D01*
X245400147Y-111294354D01*
X245301544Y-111146784D01*
X245233624Y-110982812D01*
X245199000Y-110808741D01*
X245199000Y-110631259D01*
X245233624Y-110457188D01*
X245301544Y-110293216D01*
X245400147Y-110145646D01*
X245525646Y-110020147D01*
X245673216Y-109921544D01*
X245837188Y-109853624D01*
X245986488Y-109823927D01*
X246011258Y-109819000D01*
X246188742Y-109819000D01*
X246213512Y-109823927D01*
G37*
G36*
X167113512Y-107493927D02*
G01*
X167262812Y-107523624D01*
X167426784Y-107591544D01*
X167574354Y-107690147D01*
X167699853Y-107815646D01*
X167798456Y-107963216D01*
X167866376Y-108127188D01*
X167901000Y-108301259D01*
X167901000Y-108478741D01*
X167866376Y-108652812D01*
X167798456Y-108816784D01*
X167699853Y-108964354D01*
X167574354Y-109089853D01*
X167426784Y-109188456D01*
X167262812Y-109256376D01*
X167113512Y-109286073D01*
X167088742Y-109291000D01*
X166911258Y-109291000D01*
X166886488Y-109286073D01*
X166737188Y-109256376D01*
X166573216Y-109188456D01*
X166425646Y-109089853D01*
X166300147Y-108964354D01*
X166201544Y-108816784D01*
X166133624Y-108652812D01*
X166099000Y-108478741D01*
X166099000Y-108301259D01*
X166133624Y-108127188D01*
X166201544Y-107963216D01*
X166300147Y-107815646D01*
X166425646Y-107690147D01*
X166573216Y-107591544D01*
X166737188Y-107523624D01*
X166886488Y-107493927D01*
X166911258Y-107489000D01*
X167088742Y-107489000D01*
X167113512Y-107493927D01*
G37*
G36*
X169653512Y-107493927D02*
G01*
X169802812Y-107523624D01*
X169966784Y-107591544D01*
X170114354Y-107690147D01*
X170239853Y-107815646D01*
X170338456Y-107963216D01*
X170406376Y-108127188D01*
X170441000Y-108301259D01*
X170441000Y-108478741D01*
X170406376Y-108652812D01*
X170338456Y-108816784D01*
X170239853Y-108964354D01*
X170114354Y-109089853D01*
X169966784Y-109188456D01*
X169802812Y-109256376D01*
X169653512Y-109286073D01*
X169628742Y-109291000D01*
X169451258Y-109291000D01*
X169426488Y-109286073D01*
X169277188Y-109256376D01*
X169113216Y-109188456D01*
X168965646Y-109089853D01*
X168840147Y-108964354D01*
X168741544Y-108816784D01*
X168673624Y-108652812D01*
X168639000Y-108478741D01*
X168639000Y-108301259D01*
X168673624Y-108127188D01*
X168741544Y-107963216D01*
X168840147Y-107815646D01*
X168965646Y-107690147D01*
X169113216Y-107591544D01*
X169277188Y-107523624D01*
X169426488Y-107493927D01*
X169451258Y-107489000D01*
X169628742Y-107489000D01*
X169653512Y-107493927D01*
G37*
G36*
X248753512Y-107283927D02*
G01*
X248902812Y-107313624D01*
X249066784Y-107381544D01*
X249214354Y-107480147D01*
X249339853Y-107605646D01*
X249438456Y-107753216D01*
X249506376Y-107917188D01*
X249541000Y-108091259D01*
X249541000Y-108268741D01*
X249506376Y-108442812D01*
X249438456Y-108606784D01*
X249339853Y-108754354D01*
X249214354Y-108879853D01*
X249066784Y-108978456D01*
X248902812Y-109046376D01*
X248753512Y-109076073D01*
X248728742Y-109081000D01*
X248551258Y-109081000D01*
X248526488Y-109076073D01*
X248377188Y-109046376D01*
X248213216Y-108978456D01*
X248065646Y-108879853D01*
X247940147Y-108754354D01*
X247841544Y-108606784D01*
X247773624Y-108442812D01*
X247739000Y-108268741D01*
X247739000Y-108091259D01*
X247773624Y-107917188D01*
X247841544Y-107753216D01*
X247940147Y-107605646D01*
X248065646Y-107480147D01*
X248213216Y-107381544D01*
X248377188Y-107313624D01*
X248526488Y-107283927D01*
X248551258Y-107279000D01*
X248728742Y-107279000D01*
X248753512Y-107283927D01*
G37*
G36*
X246213512Y-107283927D02*
G01*
X246362812Y-107313624D01*
X246526784Y-107381544D01*
X246674354Y-107480147D01*
X246799853Y-107605646D01*
X246898456Y-107753216D01*
X246966376Y-107917188D01*
X247001000Y-108091259D01*
X247001000Y-108268741D01*
X246966376Y-108442812D01*
X246898456Y-108606784D01*
X246799853Y-108754354D01*
X246674354Y-108879853D01*
X246526784Y-108978456D01*
X246362812Y-109046376D01*
X246213512Y-109076073D01*
X246188742Y-109081000D01*
X246011258Y-109081000D01*
X245986488Y-109076073D01*
X245837188Y-109046376D01*
X245673216Y-108978456D01*
X245525646Y-108879853D01*
X245400147Y-108754354D01*
X245301544Y-108606784D01*
X245233624Y-108442812D01*
X245199000Y-108268741D01*
X245199000Y-108091259D01*
X245233624Y-107917188D01*
X245301544Y-107753216D01*
X245400147Y-107605646D01*
X245525646Y-107480147D01*
X245673216Y-107381544D01*
X245837188Y-107313624D01*
X245986488Y-107283927D01*
X246011258Y-107279000D01*
X246188742Y-107279000D01*
X246213512Y-107283927D01*
G37*
G36*
X169653512Y-104953927D02*
G01*
X169802812Y-104983624D01*
X169966784Y-105051544D01*
X170114354Y-105150147D01*
X170239853Y-105275646D01*
X170338456Y-105423216D01*
X170406376Y-105587188D01*
X170441000Y-105761259D01*
X170441000Y-105938741D01*
X170406376Y-106112812D01*
X170338456Y-106276784D01*
X170239853Y-106424354D01*
X170114354Y-106549853D01*
X169966784Y-106648456D01*
X169802812Y-106716376D01*
X169653512Y-106746073D01*
X169628742Y-106751000D01*
X169451258Y-106751000D01*
X169426488Y-106746073D01*
X169277188Y-106716376D01*
X169113216Y-106648456D01*
X168965646Y-106549853D01*
X168840147Y-106424354D01*
X168741544Y-106276784D01*
X168673624Y-106112812D01*
X168639000Y-105938741D01*
X168639000Y-105761259D01*
X168673624Y-105587188D01*
X168741544Y-105423216D01*
X168840147Y-105275646D01*
X168965646Y-105150147D01*
X169113216Y-105051544D01*
X169277188Y-104983624D01*
X169426488Y-104953927D01*
X169451258Y-104949000D01*
X169628742Y-104949000D01*
X169653512Y-104953927D01*
G37*
G36*
X167901000Y-106751000D02*
G01*
X166099000Y-106751000D01*
X166099000Y-104949000D01*
X167901000Y-104949000D01*
X167901000Y-106751000D01*
G37*
G36*
X246213512Y-104743927D02*
G01*
X246362812Y-104773624D01*
X246526784Y-104841544D01*
X246674354Y-104940147D01*
X246799853Y-105065646D01*
X246898456Y-105213216D01*
X246966376Y-105377188D01*
X247001000Y-105551259D01*
X247001000Y-105728741D01*
X246966376Y-105902812D01*
X246898456Y-106066784D01*
X246799853Y-106214354D01*
X246674354Y-106339853D01*
X246526784Y-106438456D01*
X246362812Y-106506376D01*
X246213512Y-106536073D01*
X246188742Y-106541000D01*
X246011258Y-106541000D01*
X245986488Y-106536073D01*
X245837188Y-106506376D01*
X245673216Y-106438456D01*
X245525646Y-106339853D01*
X245400147Y-106214354D01*
X245301544Y-106066784D01*
X245233624Y-105902812D01*
X245199000Y-105728741D01*
X245199000Y-105551259D01*
X245233624Y-105377188D01*
X245301544Y-105213216D01*
X245400147Y-105065646D01*
X245525646Y-104940147D01*
X245673216Y-104841544D01*
X245837188Y-104773624D01*
X245986488Y-104743927D01*
X246011258Y-104739000D01*
X246188742Y-104739000D01*
X246213512Y-104743927D01*
G37*
G36*
X248753512Y-104743927D02*
G01*
X248902812Y-104773624D01*
X249066784Y-104841544D01*
X249214354Y-104940147D01*
X249339853Y-105065646D01*
X249438456Y-105213216D01*
X249506376Y-105377188D01*
X249541000Y-105551259D01*
X249541000Y-105728741D01*
X249506376Y-105902812D01*
X249438456Y-106066784D01*
X249339853Y-106214354D01*
X249214354Y-106339853D01*
X249066784Y-106438456D01*
X248902812Y-106506376D01*
X248753512Y-106536073D01*
X248728742Y-106541000D01*
X248551258Y-106541000D01*
X248526488Y-106536073D01*
X248377188Y-106506376D01*
X248213216Y-106438456D01*
X248065646Y-106339853D01*
X247940147Y-106214354D01*
X247841544Y-106066784D01*
X247773624Y-105902812D01*
X247739000Y-105728741D01*
X247739000Y-105551259D01*
X247773624Y-105377188D01*
X247841544Y-105213216D01*
X247940147Y-105065646D01*
X248065646Y-104940147D01*
X248213216Y-104841544D01*
X248377188Y-104773624D01*
X248526488Y-104743927D01*
X248551258Y-104739000D01*
X248728742Y-104739000D01*
X248753512Y-104743927D01*
G37*
G36*
X248753512Y-102203927D02*
G01*
X248902812Y-102233624D01*
X249066784Y-102301544D01*
X249214354Y-102400147D01*
X249339853Y-102525646D01*
X249438456Y-102673216D01*
X249506376Y-102837188D01*
X249541000Y-103011259D01*
X249541000Y-103188741D01*
X249506376Y-103362812D01*
X249438456Y-103526784D01*
X249339853Y-103674354D01*
X249214354Y-103799853D01*
X249066784Y-103898456D01*
X248902812Y-103966376D01*
X248753512Y-103996073D01*
X248728742Y-104001000D01*
X248551258Y-104001000D01*
X248526488Y-103996073D01*
X248377188Y-103966376D01*
X248213216Y-103898456D01*
X248065646Y-103799853D01*
X247940147Y-103674354D01*
X247841544Y-103526784D01*
X247773624Y-103362812D01*
X247739000Y-103188741D01*
X247739000Y-103011259D01*
X247773624Y-102837188D01*
X247841544Y-102673216D01*
X247940147Y-102525646D01*
X248065646Y-102400147D01*
X248213216Y-102301544D01*
X248377188Y-102233624D01*
X248526488Y-102203927D01*
X248551258Y-102199000D01*
X248728742Y-102199000D01*
X248753512Y-102203927D01*
G37*
G36*
X246213512Y-102203927D02*
G01*
X246362812Y-102233624D01*
X246526784Y-102301544D01*
X246674354Y-102400147D01*
X246799853Y-102525646D01*
X246898456Y-102673216D01*
X246966376Y-102837188D01*
X247001000Y-103011259D01*
X247001000Y-103188741D01*
X246966376Y-103362812D01*
X246898456Y-103526784D01*
X246799853Y-103674354D01*
X246674354Y-103799853D01*
X246526784Y-103898456D01*
X246362812Y-103966376D01*
X246213512Y-103996073D01*
X246188742Y-104001000D01*
X246011258Y-104001000D01*
X245986488Y-103996073D01*
X245837188Y-103966376D01*
X245673216Y-103898456D01*
X245525646Y-103799853D01*
X245400147Y-103674354D01*
X245301544Y-103526784D01*
X245233624Y-103362812D01*
X245199000Y-103188741D01*
X245199000Y-103011259D01*
X245233624Y-102837188D01*
X245301544Y-102673216D01*
X245400147Y-102525646D01*
X245525646Y-102400147D01*
X245673216Y-102301544D01*
X245837188Y-102233624D01*
X245986488Y-102203927D01*
X246011258Y-102199000D01*
X246188742Y-102199000D01*
X246213512Y-102203927D01*
G37*
G36*
X248753512Y-99663927D02*
G01*
X248902812Y-99693624D01*
X249066784Y-99761544D01*
X249214354Y-99860147D01*
X249339853Y-99985646D01*
X249438456Y-100133216D01*
X249506376Y-100297188D01*
X249541000Y-100471259D01*
X249541000Y-100648741D01*
X249506376Y-100822812D01*
X249438456Y-100986784D01*
X249339853Y-101134354D01*
X249214354Y-101259853D01*
X249066784Y-101358456D01*
X248902812Y-101426376D01*
X248753512Y-101456073D01*
X248728742Y-101461000D01*
X248551258Y-101461000D01*
X248526488Y-101456073D01*
X248377188Y-101426376D01*
X248213216Y-101358456D01*
X248065646Y-101259853D01*
X247940147Y-101134354D01*
X247841544Y-100986784D01*
X247773624Y-100822812D01*
X247739000Y-100648741D01*
X247739000Y-100471259D01*
X247773624Y-100297188D01*
X247841544Y-100133216D01*
X247940147Y-99985646D01*
X248065646Y-99860147D01*
X248213216Y-99761544D01*
X248377188Y-99693624D01*
X248526488Y-99663927D01*
X248551258Y-99659000D01*
X248728742Y-99659000D01*
X248753512Y-99663927D01*
G37*
G36*
X246213512Y-99663927D02*
G01*
X246362812Y-99693624D01*
X246526784Y-99761544D01*
X246674354Y-99860147D01*
X246799853Y-99985646D01*
X246898456Y-100133216D01*
X246966376Y-100297188D01*
X247001000Y-100471259D01*
X247001000Y-100648741D01*
X246966376Y-100822812D01*
X246898456Y-100986784D01*
X246799853Y-101134354D01*
X246674354Y-101259853D01*
X246526784Y-101358456D01*
X246362812Y-101426376D01*
X246213512Y-101456073D01*
X246188742Y-101461000D01*
X246011258Y-101461000D01*
X245986488Y-101456073D01*
X245837188Y-101426376D01*
X245673216Y-101358456D01*
X245525646Y-101259853D01*
X245400147Y-101134354D01*
X245301544Y-100986784D01*
X245233624Y-100822812D01*
X245199000Y-100648741D01*
X245199000Y-100471259D01*
X245233624Y-100297188D01*
X245301544Y-100133216D01*
X245400147Y-99985646D01*
X245525646Y-99860147D01*
X245673216Y-99761544D01*
X245837188Y-99693624D01*
X245986488Y-99663927D01*
X246011258Y-99659000D01*
X246188742Y-99659000D01*
X246213512Y-99663927D01*
G37*
G36*
X206601000Y-99851000D02*
G01*
X205499000Y-99851000D01*
X205499000Y-98749000D01*
X206601000Y-98749000D01*
X206601000Y-99851000D01*
G37*
G36*
X210360721Y-98520174D02*
G01*
X210460995Y-98561709D01*
X210460996Y-98561710D01*
X210551242Y-98622010D01*
X210627990Y-98698758D01*
X210627991Y-98698760D01*
X210688291Y-98789005D01*
X210729826Y-98889279D01*
X210751000Y-98995730D01*
X210751000Y-99104270D01*
X210729826Y-99210721D01*
X210688291Y-99310995D01*
X210688290Y-99310996D01*
X210627990Y-99401242D01*
X210551242Y-99477990D01*
X210505812Y-99508345D01*
X210460995Y-99538291D01*
X210360721Y-99579826D01*
X210254270Y-99601000D01*
X210145730Y-99601000D01*
X210039279Y-99579826D01*
X209939005Y-99538291D01*
X209894188Y-99508345D01*
X209848758Y-99477990D01*
X209772010Y-99401242D01*
X209711710Y-99310996D01*
X209711709Y-99310995D01*
X209670174Y-99210721D01*
X209649000Y-99104270D01*
X209649000Y-98995730D01*
X209670174Y-98889279D01*
X209711709Y-98789005D01*
X209772009Y-98698760D01*
X209772010Y-98698758D01*
X209848758Y-98622010D01*
X209939004Y-98561710D01*
X209939005Y-98561709D01*
X210039279Y-98520174D01*
X210145730Y-98499000D01*
X210254270Y-98499000D01*
X210360721Y-98520174D01*
G37*
G36*
X184402585Y-95928802D02*
G01*
X184552410Y-95958604D01*
X184834674Y-96075521D01*
X185088705Y-96245259D01*
X185304741Y-96461295D01*
X185474479Y-96715326D01*
X185591396Y-96997590D01*
X185651000Y-97297240D01*
X185651000Y-97602760D01*
X185591396Y-97902410D01*
X185474479Y-98184674D01*
X185304741Y-98438705D01*
X185088705Y-98654741D01*
X184834674Y-98824479D01*
X184552410Y-98941396D01*
X184402585Y-98971198D01*
X184252761Y-99001000D01*
X183947239Y-99001000D01*
X183797415Y-98971198D01*
X183647590Y-98941396D01*
X183365326Y-98824479D01*
X183111295Y-98654741D01*
X182895259Y-98438705D01*
X182725521Y-98184674D01*
X182608604Y-97902410D01*
X182549000Y-97602760D01*
X182549000Y-97297240D01*
X182608604Y-96997590D01*
X182725521Y-96715326D01*
X182895259Y-96461295D01*
X183111295Y-96245259D01*
X183365326Y-96075521D01*
X183647590Y-95958604D01*
X183797415Y-95928802D01*
X183947239Y-95899000D01*
X184252761Y-95899000D01*
X184402585Y-95928802D01*
G37*
G36*
X246203869Y-97122009D02*
G01*
X246362812Y-97153624D01*
X246526784Y-97221544D01*
X246674354Y-97320147D01*
X246799853Y-97445646D01*
X246898456Y-97593216D01*
X246966376Y-97757188D01*
X247001000Y-97931259D01*
X247001000Y-98108741D01*
X246966376Y-98282812D01*
X246898456Y-98446784D01*
X246799853Y-98594354D01*
X246674354Y-98719853D01*
X246526784Y-98818456D01*
X246362812Y-98886376D01*
X246213512Y-98916073D01*
X246188742Y-98921000D01*
X246011258Y-98921000D01*
X245986488Y-98916073D01*
X245837188Y-98886376D01*
X245673216Y-98818456D01*
X245525646Y-98719853D01*
X245400147Y-98594354D01*
X245301544Y-98446784D01*
X245233624Y-98282812D01*
X245199000Y-98108741D01*
X245199000Y-97931259D01*
X245233624Y-97757188D01*
X245301544Y-97593216D01*
X245400147Y-97445646D01*
X245525646Y-97320147D01*
X245673216Y-97221544D01*
X245837188Y-97153624D01*
X245996131Y-97122009D01*
X246011258Y-97119000D01*
X246188742Y-97119000D01*
X246203869Y-97122009D01*
G37*
G36*
X248743869Y-97122009D02*
G01*
X248902812Y-97153624D01*
X249066784Y-97221544D01*
X249214354Y-97320147D01*
X249339853Y-97445646D01*
X249438456Y-97593216D01*
X249506376Y-97757188D01*
X249541000Y-97931259D01*
X249541000Y-98108741D01*
X249506376Y-98282812D01*
X249438456Y-98446784D01*
X249339853Y-98594354D01*
X249214354Y-98719853D01*
X249066784Y-98818456D01*
X248902812Y-98886376D01*
X248753512Y-98916073D01*
X248728742Y-98921000D01*
X248551258Y-98921000D01*
X248526488Y-98916073D01*
X248377188Y-98886376D01*
X248213216Y-98818456D01*
X248065646Y-98719853D01*
X247940147Y-98594354D01*
X247841544Y-98446784D01*
X247773624Y-98282812D01*
X247739000Y-98108741D01*
X247739000Y-97931259D01*
X247773624Y-97757188D01*
X247841544Y-97593216D01*
X247940147Y-97445646D01*
X248065646Y-97320147D01*
X248213216Y-97221544D01*
X248377188Y-97153624D01*
X248536131Y-97122009D01*
X248551258Y-97119000D01*
X248728742Y-97119000D01*
X248743869Y-97122009D01*
G37*
G36*
X210360721Y-97020174D02*
G01*
X210460995Y-97061709D01*
X210460996Y-97061710D01*
X210551242Y-97122010D01*
X210627990Y-97198758D01*
X210627991Y-97198760D01*
X210688291Y-97289005D01*
X210729826Y-97389279D01*
X210751000Y-97495730D01*
X210751000Y-97604270D01*
X210729826Y-97710721D01*
X210688291Y-97810995D01*
X210688290Y-97810996D01*
X210627990Y-97901242D01*
X210551242Y-97977990D01*
X210505812Y-98008345D01*
X210460995Y-98038291D01*
X210360721Y-98079826D01*
X210254270Y-98101000D01*
X210145730Y-98101000D01*
X210039279Y-98079826D01*
X209939005Y-98038291D01*
X209894188Y-98008345D01*
X209848758Y-97977990D01*
X209772010Y-97901242D01*
X209711710Y-97810996D01*
X209711709Y-97810995D01*
X209670174Y-97710721D01*
X209649000Y-97604270D01*
X209649000Y-97495730D01*
X209670174Y-97389279D01*
X209711709Y-97289005D01*
X209772009Y-97198760D01*
X209772010Y-97198758D01*
X209848758Y-97122010D01*
X209939004Y-97061710D01*
X209939005Y-97061709D01*
X210039279Y-97020174D01*
X210145730Y-96999000D01*
X210254270Y-96999000D01*
X210360721Y-97020174D01*
G37*
G36*
X206601000Y-97851000D02*
G01*
X205499000Y-97851000D01*
X205499000Y-96749000D01*
X206601000Y-96749000D01*
X206601000Y-97851000D01*
G37*
G36*
X248753512Y-94583927D02*
G01*
X248902812Y-94613624D01*
X249066784Y-94681544D01*
X249214354Y-94780147D01*
X249339853Y-94905646D01*
X249438456Y-95053216D01*
X249506376Y-95217188D01*
X249541000Y-95391259D01*
X249541000Y-95568741D01*
X249506376Y-95742812D01*
X249438456Y-95906784D01*
X249339853Y-96054354D01*
X249214354Y-96179853D01*
X249066784Y-96278456D01*
X248902812Y-96346376D01*
X248753512Y-96376073D01*
X248728742Y-96381000D01*
X248551258Y-96381000D01*
X248526488Y-96376073D01*
X248377188Y-96346376D01*
X248213216Y-96278456D01*
X248065646Y-96179853D01*
X247940147Y-96054354D01*
X247841544Y-95906784D01*
X247773624Y-95742812D01*
X247739000Y-95568741D01*
X247739000Y-95391259D01*
X247773624Y-95217188D01*
X247841544Y-95053216D01*
X247940147Y-94905646D01*
X248065646Y-94780147D01*
X248213216Y-94681544D01*
X248377188Y-94613624D01*
X248526488Y-94583927D01*
X248551258Y-94579000D01*
X248728742Y-94579000D01*
X248753512Y-94583927D01*
G37*
G36*
X246213512Y-94583927D02*
G01*
X246362812Y-94613624D01*
X246526784Y-94681544D01*
X246674354Y-94780147D01*
X246799853Y-94905646D01*
X246898456Y-95053216D01*
X246966376Y-95217188D01*
X247001000Y-95391259D01*
X247001000Y-95568741D01*
X246966376Y-95742812D01*
X246898456Y-95906784D01*
X246799853Y-96054354D01*
X246674354Y-96179853D01*
X246526784Y-96278456D01*
X246362812Y-96346376D01*
X246213512Y-96376073D01*
X246188742Y-96381000D01*
X246011258Y-96381000D01*
X245986488Y-96376073D01*
X245837188Y-96346376D01*
X245673216Y-96278456D01*
X245525646Y-96179853D01*
X245400147Y-96054354D01*
X245301544Y-95906784D01*
X245233624Y-95742812D01*
X245199000Y-95568741D01*
X245199000Y-95391259D01*
X245233624Y-95217188D01*
X245301544Y-95053216D01*
X245400147Y-94905646D01*
X245525646Y-94780147D01*
X245673216Y-94681544D01*
X245837188Y-94613624D01*
X245986488Y-94583927D01*
X246011258Y-94579000D01*
X246188742Y-94579000D01*
X246213512Y-94583927D01*
G37*
G36*
X235301000Y-94491000D02*
G01*
X233499000Y-94491000D01*
X233499000Y-92689000D01*
X235301000Y-92689000D01*
X235301000Y-94491000D01*
G37*
G36*
X208413512Y-92493927D02*
G01*
X208562812Y-92523624D01*
X208726784Y-92591544D01*
X208874354Y-92690147D01*
X208999853Y-92815646D01*
X209098456Y-92963216D01*
X209166376Y-93127188D01*
X209201000Y-93301259D01*
X209201000Y-93478741D01*
X209166376Y-93652812D01*
X209098456Y-93816784D01*
X208999853Y-93964354D01*
X208874354Y-94089853D01*
X208726784Y-94188456D01*
X208562812Y-94256376D01*
X208413512Y-94286073D01*
X208388742Y-94291000D01*
X208211258Y-94291000D01*
X208186488Y-94286073D01*
X208037188Y-94256376D01*
X207873216Y-94188456D01*
X207725646Y-94089853D01*
X207600147Y-93964354D01*
X207501544Y-93816784D01*
X207433624Y-93652812D01*
X207399000Y-93478741D01*
X207399000Y-93301259D01*
X207433624Y-93127188D01*
X207501544Y-92963216D01*
X207600147Y-92815646D01*
X207725646Y-92690147D01*
X207873216Y-92591544D01*
X208037188Y-92523624D01*
X208186488Y-92493927D01*
X208211258Y-92489000D01*
X208388742Y-92489000D01*
X208413512Y-92493927D01*
G37*
G36*
X219068228Y-92571703D02*
G01*
X219223100Y-92635853D01*
X219362481Y-92728985D01*
X219481015Y-92847519D01*
X219574147Y-92986900D01*
X219638297Y-93141772D01*
X219671000Y-93306184D01*
X219671000Y-93473816D01*
X219638297Y-93638228D01*
X219574147Y-93793100D01*
X219481015Y-93932481D01*
X219362481Y-94051015D01*
X219223100Y-94144147D01*
X219068228Y-94208297D01*
X218903816Y-94241000D01*
X218736184Y-94241000D01*
X218571772Y-94208297D01*
X218416900Y-94144147D01*
X218277519Y-94051015D01*
X218158985Y-93932481D01*
X218065853Y-93793100D01*
X218001703Y-93638228D01*
X217969000Y-93473816D01*
X217969000Y-93306184D01*
X218001703Y-93141772D01*
X218065853Y-92986900D01*
X218158985Y-92847519D01*
X218277519Y-92728985D01*
X218416900Y-92635853D01*
X218571772Y-92571703D01*
X218736184Y-92539000D01*
X218903816Y-92539000D01*
X219068228Y-92571703D01*
G37*
G36*
X211448228Y-92571703D02*
G01*
X211603100Y-92635853D01*
X211742481Y-92728985D01*
X211861015Y-92847519D01*
X211954147Y-92986900D01*
X212018297Y-93141772D01*
X212051000Y-93306184D01*
X212051000Y-93473816D01*
X212018297Y-93638228D01*
X211954147Y-93793100D01*
X211861015Y-93932481D01*
X211742481Y-94051015D01*
X211603100Y-94144147D01*
X211448228Y-94208297D01*
X211283816Y-94241000D01*
X211116184Y-94241000D01*
X210951772Y-94208297D01*
X210796900Y-94144147D01*
X210657519Y-94051015D01*
X210538985Y-93932481D01*
X210445853Y-93793100D01*
X210381703Y-93638228D01*
X210349000Y-93473816D01*
X210349000Y-93306184D01*
X210381703Y-93141772D01*
X210445853Y-92986900D01*
X210538985Y-92847519D01*
X210657519Y-92728985D01*
X210796900Y-92635853D01*
X210951772Y-92571703D01*
X211116184Y-92539000D01*
X211283816Y-92539000D01*
X211448228Y-92571703D01*
G37*
G36*
X246213512Y-92043927D02*
G01*
X246362812Y-92073624D01*
X246526784Y-92141544D01*
X246674354Y-92240147D01*
X246799853Y-92365646D01*
X246898456Y-92513216D01*
X246966376Y-92677188D01*
X247001000Y-92851259D01*
X247001000Y-93028741D01*
X246966376Y-93202812D01*
X246898456Y-93366784D01*
X246799853Y-93514354D01*
X246674354Y-93639853D01*
X246526784Y-93738456D01*
X246362812Y-93806376D01*
X246213512Y-93836073D01*
X246188742Y-93841000D01*
X246011258Y-93841000D01*
X245986488Y-93836073D01*
X245837188Y-93806376D01*
X245673216Y-93738456D01*
X245525646Y-93639853D01*
X245400147Y-93514354D01*
X245301544Y-93366784D01*
X245233624Y-93202812D01*
X245199000Y-93028741D01*
X245199000Y-92851259D01*
X245233624Y-92677188D01*
X245301544Y-92513216D01*
X245400147Y-92365646D01*
X245525646Y-92240147D01*
X245673216Y-92141544D01*
X245837188Y-92073624D01*
X245986488Y-92043927D01*
X246011258Y-92039000D01*
X246188742Y-92039000D01*
X246213512Y-92043927D01*
G37*
G36*
X248753512Y-92043927D02*
G01*
X248902812Y-92073624D01*
X249066784Y-92141544D01*
X249214354Y-92240147D01*
X249339853Y-92365646D01*
X249438456Y-92513216D01*
X249506376Y-92677188D01*
X249541000Y-92851259D01*
X249541000Y-93028741D01*
X249506376Y-93202812D01*
X249438456Y-93366784D01*
X249339853Y-93514354D01*
X249214354Y-93639853D01*
X249066784Y-93738456D01*
X248902812Y-93806376D01*
X248753512Y-93836073D01*
X248728742Y-93841000D01*
X248551258Y-93841000D01*
X248526488Y-93836073D01*
X248377188Y-93806376D01*
X248213216Y-93738456D01*
X248065646Y-93639853D01*
X247940147Y-93514354D01*
X247841544Y-93366784D01*
X247773624Y-93202812D01*
X247739000Y-93028741D01*
X247739000Y-92851259D01*
X247773624Y-92677188D01*
X247841544Y-92513216D01*
X247940147Y-92365646D01*
X248065646Y-92240147D01*
X248213216Y-92141544D01*
X248377188Y-92073624D01*
X248526488Y-92043927D01*
X248551258Y-92039000D01*
X248728742Y-92039000D01*
X248753512Y-92043927D01*
G37*
G36*
X234513512Y-90153927D02*
G01*
X234662812Y-90183624D01*
X234826784Y-90251544D01*
X234974354Y-90350147D01*
X235099853Y-90475646D01*
X235198456Y-90623216D01*
X235266376Y-90787188D01*
X235301000Y-90961259D01*
X235301000Y-91138741D01*
X235266376Y-91312812D01*
X235198456Y-91476784D01*
X235099853Y-91624354D01*
X234974354Y-91749853D01*
X234826784Y-91848456D01*
X234662812Y-91916376D01*
X234513512Y-91946073D01*
X234488742Y-91951000D01*
X234311258Y-91951000D01*
X234286488Y-91946073D01*
X234137188Y-91916376D01*
X233973216Y-91848456D01*
X233825646Y-91749853D01*
X233700147Y-91624354D01*
X233601544Y-91476784D01*
X233533624Y-91312812D01*
X233499000Y-91138741D01*
X233499000Y-90961259D01*
X233533624Y-90787188D01*
X233601544Y-90623216D01*
X233700147Y-90475646D01*
X233825646Y-90350147D01*
X233973216Y-90251544D01*
X234137188Y-90183624D01*
X234286488Y-90153927D01*
X234311258Y-90149000D01*
X234488742Y-90149000D01*
X234513512Y-90153927D01*
G37*
G36*
X209201000Y-91751000D02*
G01*
X207399000Y-91751000D01*
X207399000Y-89949000D01*
X209201000Y-89949000D01*
X209201000Y-91751000D01*
G37*
G36*
X212051000Y-91701000D02*
G01*
X210349000Y-91701000D01*
X210349000Y-89999000D01*
X212051000Y-89999000D01*
X212051000Y-91701000D01*
G37*
G36*
X219068228Y-90031703D02*
G01*
X219223100Y-90095853D01*
X219362481Y-90188985D01*
X219481015Y-90307519D01*
X219574147Y-90446900D01*
X219638297Y-90601772D01*
X219671000Y-90766184D01*
X219671000Y-90933816D01*
X219638297Y-91098228D01*
X219574147Y-91253100D01*
X219481015Y-91392481D01*
X219362481Y-91511015D01*
X219223100Y-91604147D01*
X219068228Y-91668297D01*
X218903816Y-91701000D01*
X218736184Y-91701000D01*
X218571772Y-91668297D01*
X218416900Y-91604147D01*
X218277519Y-91511015D01*
X218158985Y-91392481D01*
X218065853Y-91253100D01*
X218001703Y-91098228D01*
X217969000Y-90933816D01*
X217969000Y-90766184D01*
X218001703Y-90601772D01*
X218065853Y-90446900D01*
X218158985Y-90307519D01*
X218277519Y-90188985D01*
X218416900Y-90095853D01*
X218571772Y-90031703D01*
X218736184Y-89999000D01*
X218903816Y-89999000D01*
X219068228Y-90031703D01*
G37*
G36*
X248753512Y-89503927D02*
G01*
X248902812Y-89533624D01*
X249066784Y-89601544D01*
X249214354Y-89700147D01*
X249339853Y-89825646D01*
X249438456Y-89973216D01*
X249506376Y-90137188D01*
X249541000Y-90311259D01*
X249541000Y-90488741D01*
X249506376Y-90662812D01*
X249438456Y-90826784D01*
X249339853Y-90974354D01*
X249214354Y-91099853D01*
X249066784Y-91198456D01*
X248902812Y-91266376D01*
X248753512Y-91296073D01*
X248728742Y-91301000D01*
X248551258Y-91301000D01*
X248526488Y-91296073D01*
X248377188Y-91266376D01*
X248213216Y-91198456D01*
X248065646Y-91099853D01*
X247940147Y-90974354D01*
X247841544Y-90826784D01*
X247773624Y-90662812D01*
X247739000Y-90488741D01*
X247739000Y-90311259D01*
X247773624Y-90137188D01*
X247841544Y-89973216D01*
X247940147Y-89825646D01*
X248065646Y-89700147D01*
X248213216Y-89601544D01*
X248377188Y-89533624D01*
X248526488Y-89503927D01*
X248551258Y-89499000D01*
X248728742Y-89499000D01*
X248753512Y-89503927D01*
G37*
G36*
X247001000Y-91301000D02*
G01*
X245199000Y-91301000D01*
X245199000Y-89499000D01*
X247001000Y-89499000D01*
X247001000Y-91301000D01*
G37*
G36*
X234513512Y-87613927D02*
G01*
X234662812Y-87643624D01*
X234826784Y-87711544D01*
X234974354Y-87810147D01*
X235099853Y-87935646D01*
X235198456Y-88083216D01*
X235266376Y-88247188D01*
X235301000Y-88421259D01*
X235301000Y-88598741D01*
X235266376Y-88772812D01*
X235198456Y-88936784D01*
X235099853Y-89084354D01*
X234974354Y-89209853D01*
X234826784Y-89308456D01*
X234662812Y-89376376D01*
X234513512Y-89406073D01*
X234488742Y-89411000D01*
X234311258Y-89411000D01*
X234286488Y-89406073D01*
X234137188Y-89376376D01*
X233973216Y-89308456D01*
X233825646Y-89209853D01*
X233700147Y-89084354D01*
X233601544Y-88936784D01*
X233533624Y-88772812D01*
X233499000Y-88598741D01*
X233499000Y-88421259D01*
X233533624Y-88247188D01*
X233601544Y-88083216D01*
X233700147Y-87935646D01*
X233825646Y-87810147D01*
X233973216Y-87711544D01*
X234137188Y-87643624D01*
X234286488Y-87613927D01*
X234311258Y-87609000D01*
X234488742Y-87609000D01*
X234513512Y-87613927D01*
G37*
G36*
X173781000Y-87141000D02*
G01*
X169719000Y-87141000D01*
X169719000Y-85059000D01*
X173781000Y-85059000D01*
X173781000Y-87141000D01*
G37*
G36*
X248890721Y-79190174D02*
G01*
X248990995Y-79231709D01*
X248990996Y-79231710D01*
X249081242Y-79292010D01*
X249157990Y-79368758D01*
X249157991Y-79368760D01*
X249218291Y-79459005D01*
X249249516Y-79534389D01*
X249261067Y-79556000D01*
X249276612Y-79574941D01*
X249295554Y-79590487D01*
X249317165Y-79602038D01*
X249340614Y-79609151D01*
X249365000Y-79611553D01*
X249389386Y-79609151D01*
X249412835Y-79602038D01*
X249434446Y-79590487D01*
X249453387Y-79574942D01*
X249468933Y-79556000D01*
X249480484Y-79534389D01*
X249511709Y-79459005D01*
X249572009Y-79368760D01*
X249572010Y-79368758D01*
X249648758Y-79292010D01*
X249739004Y-79231710D01*
X249739005Y-79231709D01*
X249839279Y-79190174D01*
X249945730Y-79169000D01*
X250054270Y-79169000D01*
X250160721Y-79190174D01*
X250260995Y-79231709D01*
X250260996Y-79231710D01*
X250351242Y-79292010D01*
X250427990Y-79368758D01*
X250427991Y-79368760D01*
X250488291Y-79459005D01*
X250529826Y-79559279D01*
X250551000Y-79665730D01*
X250551000Y-79774270D01*
X250529826Y-79880721D01*
X250488291Y-79980995D01*
X250488290Y-79980996D01*
X250427990Y-80071242D01*
X250351242Y-80147990D01*
X250305812Y-80178345D01*
X250260995Y-80208291D01*
X250185611Y-80239516D01*
X250164000Y-80251067D01*
X250145059Y-80266612D01*
X250129513Y-80285554D01*
X250117962Y-80307165D01*
X250110849Y-80330614D01*
X250108447Y-80355000D01*
X250110849Y-80379386D01*
X250117962Y-80402835D01*
X250129513Y-80424446D01*
X250145058Y-80443387D01*
X250164000Y-80458933D01*
X250185611Y-80470484D01*
X250260995Y-80501709D01*
X250305812Y-80531655D01*
X250351242Y-80562010D01*
X250427990Y-80638758D01*
X250427991Y-80638760D01*
X250488291Y-80729005D01*
X250529826Y-80829279D01*
X250551000Y-80935730D01*
X250551000Y-81044270D01*
X250529826Y-81150721D01*
X250488291Y-81250995D01*
X250488290Y-81250996D01*
X250427990Y-81341242D01*
X250351242Y-81417990D01*
X250332437Y-81430555D01*
X250260995Y-81478291D01*
X250185611Y-81509516D01*
X250164000Y-81521067D01*
X250145059Y-81536612D01*
X250129513Y-81555554D01*
X250117962Y-81577165D01*
X250110849Y-81600614D01*
X250108447Y-81625000D01*
X250110849Y-81649386D01*
X250117962Y-81672835D01*
X250129513Y-81694446D01*
X250145058Y-81713387D01*
X250164000Y-81728933D01*
X250185611Y-81740484D01*
X250260995Y-81771709D01*
X250260996Y-81771710D01*
X250351242Y-81832010D01*
X250427990Y-81908758D01*
X250427991Y-81908760D01*
X250488291Y-81999005D01*
X250529826Y-82099279D01*
X250551000Y-82205730D01*
X250551000Y-82314270D01*
X250529826Y-82420721D01*
X250488291Y-82520995D01*
X250488290Y-82520996D01*
X250427990Y-82611242D01*
X250351242Y-82687990D01*
X250305812Y-82718345D01*
X250260995Y-82748291D01*
X250185611Y-82779516D01*
X250164000Y-82791067D01*
X250145059Y-82806612D01*
X250129513Y-82825554D01*
X250117962Y-82847165D01*
X250110849Y-82870614D01*
X250108447Y-82895000D01*
X250110849Y-82919386D01*
X250117962Y-82942835D01*
X250129513Y-82964446D01*
X250145058Y-82983387D01*
X250164000Y-82998933D01*
X250185611Y-83010484D01*
X250260995Y-83041709D01*
X250260996Y-83041710D01*
X250351242Y-83102010D01*
X250427990Y-83178758D01*
X250427991Y-83178760D01*
X250488291Y-83269005D01*
X250529826Y-83369279D01*
X250551000Y-83475730D01*
X250551000Y-83584270D01*
X250529826Y-83690721D01*
X250488291Y-83790995D01*
X250488290Y-83790996D01*
X250427990Y-83881242D01*
X250351242Y-83957990D01*
X250319816Y-83978988D01*
X250258336Y-84020068D01*
X250239394Y-84035614D01*
X250223849Y-84054556D01*
X250212298Y-84076167D01*
X250205185Y-84099615D01*
X250202783Y-84124002D01*
X250205185Y-84148388D01*
X250212298Y-84171837D01*
X250223849Y-84193447D01*
X250239395Y-84212389D01*
X250258337Y-84227934D01*
X250279948Y-84239485D01*
X250303396Y-84246598D01*
X250327782Y-84249000D01*
X250551000Y-84249000D01*
X250551000Y-85351000D01*
X249449000Y-85351000D01*
X249449000Y-85127782D01*
X249446598Y-85103396D01*
X249439485Y-85079947D01*
X249427934Y-85058336D01*
X249412389Y-85039394D01*
X249393447Y-85023849D01*
X249371836Y-85012298D01*
X249348387Y-85005185D01*
X249324001Y-85002783D01*
X249299615Y-85005185D01*
X249276166Y-85012298D01*
X249254555Y-85023849D01*
X249235613Y-85039394D01*
X249220068Y-85058336D01*
X249178988Y-85119817D01*
X249157990Y-85151242D01*
X249081242Y-85227990D01*
X249035812Y-85258345D01*
X248990995Y-85288291D01*
X248890721Y-85329826D01*
X248784270Y-85351000D01*
X248675730Y-85351000D01*
X248569279Y-85329826D01*
X248469005Y-85288291D01*
X248424188Y-85258345D01*
X248378758Y-85227990D01*
X248302010Y-85151242D01*
X248270041Y-85103396D01*
X248241709Y-85060995D01*
X248200174Y-84960721D01*
X248179000Y-84854270D01*
X248179000Y-84745730D01*
X248200174Y-84639279D01*
X248241709Y-84539005D01*
X248302009Y-84448760D01*
X248302010Y-84448758D01*
X248378758Y-84372010D01*
X248469004Y-84311710D01*
X248469005Y-84311709D01*
X248544389Y-84280484D01*
X248566000Y-84268933D01*
X248584941Y-84253388D01*
X248600487Y-84234446D01*
X248612038Y-84212835D01*
X248619151Y-84189386D01*
X248621553Y-84165000D01*
X248838447Y-84165000D01*
X248840849Y-84189386D01*
X248847962Y-84212835D01*
X248859513Y-84234446D01*
X248875058Y-84253387D01*
X248894000Y-84268933D01*
X248915611Y-84280484D01*
X248990995Y-84311709D01*
X248990996Y-84311710D01*
X249081242Y-84372010D01*
X249157990Y-84448758D01*
X249157991Y-84448760D01*
X249220068Y-84541664D01*
X249235614Y-84560606D01*
X249254556Y-84576151D01*
X249276167Y-84587702D01*
X249299615Y-84594815D01*
X249324002Y-84597217D01*
X249348388Y-84594815D01*
X249371837Y-84587702D01*
X249393447Y-84576151D01*
X249412389Y-84560605D01*
X249427934Y-84541663D01*
X249439485Y-84520052D01*
X249446598Y-84496604D01*
X249449000Y-84472218D01*
X249449000Y-84249000D01*
X249672218Y-84249000D01*
X249696604Y-84246598D01*
X249720053Y-84239485D01*
X249741664Y-84227934D01*
X249760606Y-84212389D01*
X249776151Y-84193447D01*
X249787702Y-84171836D01*
X249794815Y-84148387D01*
X249797217Y-84124001D01*
X249794815Y-84099615D01*
X249787702Y-84076166D01*
X249776151Y-84054555D01*
X249760606Y-84035613D01*
X249741664Y-84020068D01*
X249680184Y-83978988D01*
X249648758Y-83957990D01*
X249572010Y-83881242D01*
X249511710Y-83790996D01*
X249511709Y-83790995D01*
X249480484Y-83715611D01*
X249468933Y-83694000D01*
X249453388Y-83675059D01*
X249434446Y-83659513D01*
X249412835Y-83647962D01*
X249389386Y-83640849D01*
X249365000Y-83638447D01*
X249340614Y-83640849D01*
X249317165Y-83647962D01*
X249295554Y-83659513D01*
X249276613Y-83675058D01*
X249261067Y-83694000D01*
X249249516Y-83715611D01*
X249218291Y-83790995D01*
X249218290Y-83790996D01*
X249157990Y-83881242D01*
X249081242Y-83957990D01*
X249035812Y-83988345D01*
X248990995Y-84018291D01*
X248915611Y-84049516D01*
X248894000Y-84061067D01*
X248875059Y-84076612D01*
X248859513Y-84095554D01*
X248847962Y-84117165D01*
X248840849Y-84140614D01*
X248838447Y-84165000D01*
X248621553Y-84165000D01*
X248619151Y-84140614D01*
X248612038Y-84117165D01*
X248600487Y-84095554D01*
X248584942Y-84076613D01*
X248566000Y-84061067D01*
X248544389Y-84049516D01*
X248469005Y-84018291D01*
X248424188Y-83988345D01*
X248378758Y-83957990D01*
X248302010Y-83881242D01*
X248241710Y-83790996D01*
X248241709Y-83790995D01*
X248200174Y-83690721D01*
X248179000Y-83584270D01*
X248179000Y-83475730D01*
X248200174Y-83369279D01*
X248241709Y-83269005D01*
X248302009Y-83178760D01*
X248302010Y-83178758D01*
X248378758Y-83102010D01*
X248469004Y-83041710D01*
X248469005Y-83041709D01*
X248544389Y-83010484D01*
X248566000Y-82998933D01*
X248584941Y-82983388D01*
X248600487Y-82964446D01*
X248612038Y-82942835D01*
X248619151Y-82919386D01*
X248621553Y-82895000D01*
X248838447Y-82895000D01*
X248840849Y-82919386D01*
X248847962Y-82942835D01*
X248859513Y-82964446D01*
X248875058Y-82983387D01*
X248894000Y-82998933D01*
X248915611Y-83010484D01*
X248990995Y-83041709D01*
X248990996Y-83041710D01*
X249081242Y-83102010D01*
X249157990Y-83178758D01*
X249157991Y-83178760D01*
X249218291Y-83269005D01*
X249249516Y-83344389D01*
X249261067Y-83366000D01*
X249276612Y-83384941D01*
X249295554Y-83400487D01*
X249317165Y-83412038D01*
X249340614Y-83419151D01*
X249365000Y-83421553D01*
X249389386Y-83419151D01*
X249412835Y-83412038D01*
X249434446Y-83400487D01*
X249453387Y-83384942D01*
X249468933Y-83366000D01*
X249480484Y-83344389D01*
X249511709Y-83269005D01*
X249572009Y-83178760D01*
X249572010Y-83178758D01*
X249648758Y-83102010D01*
X249739004Y-83041710D01*
X249739005Y-83041709D01*
X249814389Y-83010484D01*
X249836000Y-82998933D01*
X249854941Y-82983388D01*
X249870487Y-82964446D01*
X249882038Y-82942835D01*
X249889151Y-82919386D01*
X249891553Y-82895000D01*
X249889151Y-82870614D01*
X249882038Y-82847165D01*
X249870487Y-82825554D01*
X249854942Y-82806613D01*
X249836000Y-82791067D01*
X249814389Y-82779516D01*
X249739005Y-82748291D01*
X249694188Y-82718345D01*
X249648758Y-82687990D01*
X249572010Y-82611242D01*
X249511710Y-82520996D01*
X249511709Y-82520995D01*
X249480484Y-82445611D01*
X249468933Y-82424000D01*
X249453388Y-82405059D01*
X249434446Y-82389513D01*
X249412835Y-82377962D01*
X249389386Y-82370849D01*
X249365000Y-82368447D01*
X249340614Y-82370849D01*
X249317165Y-82377962D01*
X249295554Y-82389513D01*
X249276613Y-82405058D01*
X249261067Y-82424000D01*
X249249516Y-82445611D01*
X249218291Y-82520995D01*
X249218290Y-82520996D01*
X249157990Y-82611242D01*
X249081242Y-82687990D01*
X249035812Y-82718345D01*
X248990995Y-82748291D01*
X248915611Y-82779516D01*
X248894000Y-82791067D01*
X248875059Y-82806612D01*
X248859513Y-82825554D01*
X248847962Y-82847165D01*
X248840849Y-82870614D01*
X248838447Y-82895000D01*
X248621553Y-82895000D01*
X248619151Y-82870614D01*
X248612038Y-82847165D01*
X248600487Y-82825554D01*
X248584942Y-82806613D01*
X248566000Y-82791067D01*
X248544389Y-82779516D01*
X248469005Y-82748291D01*
X248424188Y-82718345D01*
X248378758Y-82687990D01*
X248302010Y-82611242D01*
X248241710Y-82520996D01*
X248241709Y-82520995D01*
X248200174Y-82420721D01*
X248179000Y-82314270D01*
X248179000Y-82205730D01*
X248200174Y-82099279D01*
X248241709Y-81999005D01*
X248302009Y-81908760D01*
X248302010Y-81908758D01*
X248378758Y-81832010D01*
X248469004Y-81771710D01*
X248469005Y-81771709D01*
X248544389Y-81740484D01*
X248566000Y-81728933D01*
X248584941Y-81713388D01*
X248600487Y-81694446D01*
X248612038Y-81672835D01*
X248619151Y-81649386D01*
X248621553Y-81625000D01*
X248838447Y-81625000D01*
X248840849Y-81649386D01*
X248847962Y-81672835D01*
X248859513Y-81694446D01*
X248875058Y-81713387D01*
X248894000Y-81728933D01*
X248915611Y-81740484D01*
X248990995Y-81771709D01*
X248990996Y-81771710D01*
X249081242Y-81832010D01*
X249157990Y-81908758D01*
X249157991Y-81908760D01*
X249218291Y-81999005D01*
X249249516Y-82074389D01*
X249261067Y-82096000D01*
X249276612Y-82114941D01*
X249295554Y-82130487D01*
X249317165Y-82142038D01*
X249340614Y-82149151D01*
X249365000Y-82151553D01*
X249389386Y-82149151D01*
X249412835Y-82142038D01*
X249434446Y-82130487D01*
X249453387Y-82114942D01*
X249468933Y-82096000D01*
X249480484Y-82074389D01*
X249511709Y-81999005D01*
X249572009Y-81908760D01*
X249572010Y-81908758D01*
X249648758Y-81832010D01*
X249739004Y-81771710D01*
X249739005Y-81771709D01*
X249814389Y-81740484D01*
X249836000Y-81728933D01*
X249854941Y-81713388D01*
X249870487Y-81694446D01*
X249882038Y-81672835D01*
X249889151Y-81649386D01*
X249891553Y-81625000D01*
X249889151Y-81600614D01*
X249882038Y-81577165D01*
X249870487Y-81555554D01*
X249854942Y-81536613D01*
X249836000Y-81521067D01*
X249814389Y-81509516D01*
X249739005Y-81478291D01*
X249667563Y-81430555D01*
X249648758Y-81417990D01*
X249572010Y-81341242D01*
X249511710Y-81250996D01*
X249511709Y-81250995D01*
X249480484Y-81175611D01*
X249468933Y-81154000D01*
X249453388Y-81135059D01*
X249434446Y-81119513D01*
X249412835Y-81107962D01*
X249389386Y-81100849D01*
X249365000Y-81098447D01*
X249340614Y-81100849D01*
X249317165Y-81107962D01*
X249295554Y-81119513D01*
X249276613Y-81135058D01*
X249261067Y-81154000D01*
X249249516Y-81175611D01*
X249218291Y-81250995D01*
X249218290Y-81250996D01*
X249157990Y-81341242D01*
X249081242Y-81417990D01*
X249062437Y-81430555D01*
X248990995Y-81478291D01*
X248915611Y-81509516D01*
X248894000Y-81521067D01*
X248875059Y-81536612D01*
X248859513Y-81555554D01*
X248847962Y-81577165D01*
X248840849Y-81600614D01*
X248838447Y-81625000D01*
X248621553Y-81625000D01*
X248619151Y-81600614D01*
X248612038Y-81577165D01*
X248600487Y-81555554D01*
X248584942Y-81536613D01*
X248566000Y-81521067D01*
X248544389Y-81509516D01*
X248469005Y-81478291D01*
X248397563Y-81430555D01*
X248378758Y-81417990D01*
X248302010Y-81341242D01*
X248241710Y-81250996D01*
X248241709Y-81250995D01*
X248200174Y-81150721D01*
X248179000Y-81044270D01*
X248179000Y-80935730D01*
X248200174Y-80829279D01*
X248241709Y-80729005D01*
X248302009Y-80638760D01*
X248302010Y-80638758D01*
X248378758Y-80562010D01*
X248424188Y-80531655D01*
X248469005Y-80501709D01*
X248544389Y-80470484D01*
X248566000Y-80458933D01*
X248584941Y-80443388D01*
X248600487Y-80424446D01*
X248612038Y-80402835D01*
X248619151Y-80379386D01*
X248621553Y-80355000D01*
X248838447Y-80355000D01*
X248840849Y-80379386D01*
X248847962Y-80402835D01*
X248859513Y-80424446D01*
X248875058Y-80443387D01*
X248894000Y-80458933D01*
X248915611Y-80470484D01*
X248990995Y-80501709D01*
X249035812Y-80531655D01*
X249081242Y-80562010D01*
X249157990Y-80638758D01*
X249157991Y-80638760D01*
X249218291Y-80729005D01*
X249249516Y-80804389D01*
X249261067Y-80826000D01*
X249276612Y-80844941D01*
X249295554Y-80860487D01*
X249317165Y-80872038D01*
X249340614Y-80879151D01*
X249365000Y-80881553D01*
X249389386Y-80879151D01*
X249412835Y-80872038D01*
X249434446Y-80860487D01*
X249453387Y-80844942D01*
X249468933Y-80826000D01*
X249480484Y-80804389D01*
X249511709Y-80729005D01*
X249572009Y-80638760D01*
X249572010Y-80638758D01*
X249648758Y-80562010D01*
X249694188Y-80531655D01*
X249739005Y-80501709D01*
X249814389Y-80470484D01*
X249836000Y-80458933D01*
X249854941Y-80443388D01*
X249870487Y-80424446D01*
X249882038Y-80402835D01*
X249889151Y-80379386D01*
X249891553Y-80355000D01*
X249889151Y-80330614D01*
X249882038Y-80307165D01*
X249870487Y-80285554D01*
X249854942Y-80266613D01*
X249836000Y-80251067D01*
X249814389Y-80239516D01*
X249739005Y-80208291D01*
X249694188Y-80178345D01*
X249648758Y-80147990D01*
X249572010Y-80071242D01*
X249511710Y-79980996D01*
X249511709Y-79980995D01*
X249480484Y-79905611D01*
X249468933Y-79884000D01*
X249453388Y-79865059D01*
X249434446Y-79849513D01*
X249412835Y-79837962D01*
X249389386Y-79830849D01*
X249365000Y-79828447D01*
X249340614Y-79830849D01*
X249317165Y-79837962D01*
X249295554Y-79849513D01*
X249276613Y-79865058D01*
X249261067Y-79884000D01*
X249249516Y-79905611D01*
X249218291Y-79980995D01*
X249218290Y-79980996D01*
X249157990Y-80071242D01*
X249081242Y-80147990D01*
X249035812Y-80178345D01*
X248990995Y-80208291D01*
X248915611Y-80239516D01*
X248894000Y-80251067D01*
X248875059Y-80266612D01*
X248859513Y-80285554D01*
X248847962Y-80307165D01*
X248840849Y-80330614D01*
X248838447Y-80355000D01*
X248621553Y-80355000D01*
X248619151Y-80330614D01*
X248612038Y-80307165D01*
X248600487Y-80285554D01*
X248584942Y-80266613D01*
X248566000Y-80251067D01*
X248544389Y-80239516D01*
X248469005Y-80208291D01*
X248424188Y-80178345D01*
X248378758Y-80147990D01*
X248302010Y-80071242D01*
X248241710Y-79980996D01*
X248241709Y-79980995D01*
X248200174Y-79880721D01*
X248179000Y-79774270D01*
X248179000Y-79665730D01*
X248200174Y-79559279D01*
X248241709Y-79459005D01*
X248302009Y-79368760D01*
X248302010Y-79368758D01*
X248378758Y-79292010D01*
X248469004Y-79231710D01*
X248469005Y-79231709D01*
X248569279Y-79190174D01*
X248675730Y-79169000D01*
X248784270Y-79169000D01*
X248890721Y-79190174D01*
G37*
G36*
X237113512Y-79603927D02*
G01*
X237262812Y-79633624D01*
X237426784Y-79701544D01*
X237574354Y-79800147D01*
X237699853Y-79925646D01*
X237798456Y-80073216D01*
X237866376Y-80237188D01*
X237890872Y-80360340D01*
X237899325Y-80402835D01*
X237901000Y-80411259D01*
X237901000Y-80588741D01*
X237866376Y-80762812D01*
X237798456Y-80926784D01*
X237699853Y-81074354D01*
X237574354Y-81199853D01*
X237426784Y-81298456D01*
X237281771Y-81358523D01*
X237260171Y-81370068D01*
X237241229Y-81385613D01*
X237225684Y-81404555D01*
X237214133Y-81426166D01*
X237207020Y-81449615D01*
X237204618Y-81474001D01*
X237207020Y-81498387D01*
X237214133Y-81521836D01*
X237225684Y-81543447D01*
X237241229Y-81562389D01*
X237260171Y-81577934D01*
X237281782Y-81589485D01*
X237305231Y-81596598D01*
X237329617Y-81599000D01*
X237901000Y-81599000D01*
X237901000Y-83401000D01*
X236099000Y-83401000D01*
X236099000Y-81599000D01*
X236670383Y-81599000D01*
X236694769Y-81596598D01*
X236718218Y-81589485D01*
X236739829Y-81577934D01*
X236758771Y-81562389D01*
X236774316Y-81543447D01*
X236785867Y-81521836D01*
X236792980Y-81498387D01*
X236795382Y-81474001D01*
X236792980Y-81449615D01*
X236785867Y-81426166D01*
X236774316Y-81404555D01*
X236758771Y-81385613D01*
X236739829Y-81370068D01*
X236718229Y-81358523D01*
X236573216Y-81298456D01*
X236425646Y-81199853D01*
X236300147Y-81074354D01*
X236201544Y-80926784D01*
X236133624Y-80762812D01*
X236099000Y-80588741D01*
X236099000Y-80411259D01*
X236100676Y-80402835D01*
X236109128Y-80360340D01*
X236133624Y-80237188D01*
X236201544Y-80073216D01*
X236300147Y-79925646D01*
X236425646Y-79800147D01*
X236573216Y-79701544D01*
X236737188Y-79633624D01*
X236886488Y-79603927D01*
X236911258Y-79599000D01*
X237088742Y-79599000D01*
X237113512Y-79603927D01*
G37*
G36*
X239613512Y-79603927D02*
G01*
X239762812Y-79633624D01*
X239926784Y-79701544D01*
X240074354Y-79800147D01*
X240199853Y-79925646D01*
X240298456Y-80073216D01*
X240366376Y-80237188D01*
X240390872Y-80360340D01*
X240399325Y-80402835D01*
X240401000Y-80411259D01*
X240401000Y-80588741D01*
X240366376Y-80762812D01*
X240298456Y-80926784D01*
X240199853Y-81074354D01*
X240074354Y-81199853D01*
X239926784Y-81298456D01*
X239762812Y-81366376D01*
X239707362Y-81377405D01*
X239683922Y-81384516D01*
X239662311Y-81396067D01*
X239643369Y-81411613D01*
X239627824Y-81430555D01*
X239616273Y-81452165D01*
X239609160Y-81475614D01*
X239606758Y-81500000D01*
X239609160Y-81524387D01*
X239616273Y-81547835D01*
X239627824Y-81569446D01*
X239643370Y-81588388D01*
X239662312Y-81603933D01*
X239683922Y-81615484D01*
X239707362Y-81622595D01*
X239762812Y-81633624D01*
X239926784Y-81701544D01*
X240074354Y-81800147D01*
X240199853Y-81925646D01*
X240298456Y-82073216D01*
X240366376Y-82237188D01*
X240401000Y-82411259D01*
X240401000Y-82588741D01*
X240366376Y-82762812D01*
X240298456Y-82926784D01*
X240199853Y-83074354D01*
X240074354Y-83199853D01*
X239926784Y-83298456D01*
X239762812Y-83366376D01*
X239613512Y-83396073D01*
X239588742Y-83401000D01*
X239411258Y-83401000D01*
X239386488Y-83396073D01*
X239237188Y-83366376D01*
X239073216Y-83298456D01*
X238925646Y-83199853D01*
X238800147Y-83074354D01*
X238701544Y-82926784D01*
X238633624Y-82762812D01*
X238599000Y-82588741D01*
X238599000Y-82411259D01*
X238633624Y-82237188D01*
X238701544Y-82073216D01*
X238800147Y-81925646D01*
X238925646Y-81800147D01*
X239073216Y-81701544D01*
X239237188Y-81633624D01*
X239292638Y-81622595D01*
X239316078Y-81615484D01*
X239337689Y-81603933D01*
X239356631Y-81588387D01*
X239372176Y-81569445D01*
X239383727Y-81547835D01*
X239390840Y-81524386D01*
X239393242Y-81500000D01*
X239390840Y-81475613D01*
X239383727Y-81452165D01*
X239372176Y-81430554D01*
X239356630Y-81411612D01*
X239337688Y-81396067D01*
X239316078Y-81384516D01*
X239292638Y-81377405D01*
X239237188Y-81366376D01*
X239073216Y-81298456D01*
X238925646Y-81199853D01*
X238800147Y-81074354D01*
X238701544Y-80926784D01*
X238633624Y-80762812D01*
X238599000Y-80588741D01*
X238599000Y-80411259D01*
X238600676Y-80402835D01*
X238609128Y-80360340D01*
X238633624Y-80237188D01*
X238701544Y-80073216D01*
X238800147Y-79925646D01*
X238925646Y-79800147D01*
X239073216Y-79701544D01*
X239237188Y-79633624D01*
X239386488Y-79603927D01*
X239411258Y-79599000D01*
X239588742Y-79599000D01*
X239613512Y-79603927D01*
G37*
G36*
X192213512Y-79603927D02*
G01*
X192362812Y-79633624D01*
X192526784Y-79701544D01*
X192674354Y-79800147D01*
X192799853Y-79925646D01*
X192898456Y-80073216D01*
X192966376Y-80237188D01*
X192990872Y-80360340D01*
X192999325Y-80402835D01*
X193001000Y-80411259D01*
X193001000Y-80588741D01*
X192966376Y-80762812D01*
X192898456Y-80926784D01*
X192799853Y-81074354D01*
X192674354Y-81199853D01*
X192526784Y-81298456D01*
X192362812Y-81366376D01*
X192307362Y-81377405D01*
X192283922Y-81384516D01*
X192262311Y-81396067D01*
X192243369Y-81411613D01*
X192227824Y-81430555D01*
X192216273Y-81452165D01*
X192209160Y-81475614D01*
X192206758Y-81500000D01*
X192209160Y-81524387D01*
X192216273Y-81547835D01*
X192227824Y-81569446D01*
X192243370Y-81588388D01*
X192262312Y-81603933D01*
X192283922Y-81615484D01*
X192307362Y-81622595D01*
X192362812Y-81633624D01*
X192526784Y-81701544D01*
X192674354Y-81800147D01*
X192799853Y-81925646D01*
X192898456Y-82073216D01*
X192966376Y-82237188D01*
X193001000Y-82411259D01*
X193001000Y-82588741D01*
X192966376Y-82762812D01*
X192898456Y-82926784D01*
X192799853Y-83074354D01*
X192674354Y-83199853D01*
X192526784Y-83298456D01*
X192362812Y-83366376D01*
X192213512Y-83396073D01*
X192188742Y-83401000D01*
X192011258Y-83401000D01*
X191986488Y-83396073D01*
X191837188Y-83366376D01*
X191673216Y-83298456D01*
X191525646Y-83199853D01*
X191400147Y-83074354D01*
X191301544Y-82926784D01*
X191233624Y-82762812D01*
X191199000Y-82588741D01*
X191199000Y-82411259D01*
X191233624Y-82237188D01*
X191301544Y-82073216D01*
X191400147Y-81925646D01*
X191525646Y-81800147D01*
X191673216Y-81701544D01*
X191837188Y-81633624D01*
X191892638Y-81622595D01*
X191916078Y-81615484D01*
X191937689Y-81603933D01*
X191956631Y-81588387D01*
X191972176Y-81569445D01*
X191983727Y-81547835D01*
X191990840Y-81524386D01*
X191993242Y-81500000D01*
X191990840Y-81475613D01*
X191983727Y-81452165D01*
X191972176Y-81430554D01*
X191956630Y-81411612D01*
X191937688Y-81396067D01*
X191916078Y-81384516D01*
X191892638Y-81377405D01*
X191837188Y-81366376D01*
X191673216Y-81298456D01*
X191525646Y-81199853D01*
X191400147Y-81074354D01*
X191301544Y-80926784D01*
X191233624Y-80762812D01*
X191199000Y-80588741D01*
X191199000Y-80411259D01*
X191200676Y-80402835D01*
X191209128Y-80360340D01*
X191233624Y-80237188D01*
X191301544Y-80073216D01*
X191400147Y-79925646D01*
X191525646Y-79800147D01*
X191673216Y-79701544D01*
X191837188Y-79633624D01*
X191986488Y-79603927D01*
X192011258Y-79599000D01*
X192188742Y-79599000D01*
X192213512Y-79603927D01*
G37*
G36*
X189713512Y-79603927D02*
G01*
X189862812Y-79633624D01*
X190026784Y-79701544D01*
X190174354Y-79800147D01*
X190299853Y-79925646D01*
X190398456Y-80073216D01*
X190466376Y-80237188D01*
X190490872Y-80360340D01*
X190499325Y-80402835D01*
X190501000Y-80411259D01*
X190501000Y-80588741D01*
X190466376Y-80762812D01*
X190398456Y-80926784D01*
X190299853Y-81074354D01*
X190174354Y-81199853D01*
X190026784Y-81298456D01*
X189881771Y-81358523D01*
X189860171Y-81370068D01*
X189841229Y-81385613D01*
X189825684Y-81404555D01*
X189814133Y-81426166D01*
X189807020Y-81449615D01*
X189804618Y-81474001D01*
X189807020Y-81498387D01*
X189814133Y-81521836D01*
X189825684Y-81543447D01*
X189841229Y-81562389D01*
X189860171Y-81577934D01*
X189881782Y-81589485D01*
X189905231Y-81596598D01*
X189929617Y-81599000D01*
X190501000Y-81599000D01*
X190501000Y-83401000D01*
X188699000Y-83401000D01*
X188699000Y-81599000D01*
X189270383Y-81599000D01*
X189294769Y-81596598D01*
X189318218Y-81589485D01*
X189339829Y-81577934D01*
X189358771Y-81562389D01*
X189374316Y-81543447D01*
X189385867Y-81521836D01*
X189392980Y-81498387D01*
X189395382Y-81474001D01*
X189392980Y-81449615D01*
X189385867Y-81426166D01*
X189374316Y-81404555D01*
X189358771Y-81385613D01*
X189339829Y-81370068D01*
X189318229Y-81358523D01*
X189173216Y-81298456D01*
X189025646Y-81199853D01*
X188900147Y-81074354D01*
X188801544Y-80926784D01*
X188733624Y-80762812D01*
X188699000Y-80588741D01*
X188699000Y-80411259D01*
X188700676Y-80402835D01*
X188709128Y-80360340D01*
X188733624Y-80237188D01*
X188801544Y-80073216D01*
X188900147Y-79925646D01*
X189025646Y-79800147D01*
X189173216Y-79701544D01*
X189337188Y-79633624D01*
X189486488Y-79603927D01*
X189511258Y-79599000D01*
X189688742Y-79599000D01*
X189713512Y-79603927D01*
G37*
G36*
X172842112Y-80064021D02*
G01*
X172944072Y-80074063D01*
X173140301Y-80133589D01*
X173140303Y-80133590D01*
X173321145Y-80230252D01*
X173479660Y-80360340D01*
X173609748Y-80518855D01*
X173706410Y-80699697D01*
X173706411Y-80699699D01*
X173765937Y-80895928D01*
X173786036Y-81100000D01*
X173765937Y-81304072D01*
X173706502Y-81500000D01*
X173706410Y-81500303D01*
X173609748Y-81681145D01*
X173479660Y-81839660D01*
X173321145Y-81969748D01*
X173140303Y-82066410D01*
X173140301Y-82066411D01*
X172944072Y-82125937D01*
X172842112Y-82135979D01*
X172791133Y-82141000D01*
X170708867Y-82141000D01*
X170657888Y-82135979D01*
X170555928Y-82125937D01*
X170359699Y-82066411D01*
X170359697Y-82066410D01*
X170178855Y-81969748D01*
X170020340Y-81839660D01*
X169890252Y-81681145D01*
X169793590Y-81500303D01*
X169793498Y-81500000D01*
X169734063Y-81304072D01*
X169713964Y-81100000D01*
X169734063Y-80895928D01*
X169793589Y-80699699D01*
X169793590Y-80699697D01*
X169890252Y-80518855D01*
X170020340Y-80360340D01*
X170178855Y-80230252D01*
X170359697Y-80133590D01*
X170359699Y-80133589D01*
X170555928Y-80074063D01*
X170657888Y-80064021D01*
X170708867Y-80059000D01*
X172791133Y-80059000D01*
X172842112Y-80064021D01*
G37*
G36*
X197395331Y-76058211D02*
G01*
X197723092Y-76193974D01*
X198018070Y-76391072D01*
X198268928Y-76641930D01*
X198466026Y-76936908D01*
X198601789Y-77264669D01*
X198671000Y-77612616D01*
X198671000Y-77967384D01*
X198601789Y-78315331D01*
X198466026Y-78643092D01*
X198268928Y-78938070D01*
X198018070Y-79188928D01*
X197723092Y-79386026D01*
X197395331Y-79521789D01*
X197047384Y-79591000D01*
X196692616Y-79591000D01*
X196344669Y-79521789D01*
X196016908Y-79386026D01*
X195721930Y-79188928D01*
X195471072Y-78938070D01*
X195273974Y-78643092D01*
X195138211Y-78315331D01*
X195069000Y-77967384D01*
X195069000Y-77612616D01*
X195138211Y-77264669D01*
X195273974Y-76936908D01*
X195471072Y-76641930D01*
X195721930Y-76391072D01*
X196016908Y-76193974D01*
X196344669Y-76058211D01*
X196692616Y-75989000D01*
X197047384Y-75989000D01*
X197395331Y-76058211D01*
G37*
G36*
X244795331Y-76058211D02*
G01*
X245123092Y-76193974D01*
X245418070Y-76391072D01*
X245668928Y-76641930D01*
X245866026Y-76936908D01*
X246001789Y-77264669D01*
X246071000Y-77612616D01*
X246071000Y-77967384D01*
X246001789Y-78315331D01*
X245866026Y-78643092D01*
X245668928Y-78938070D01*
X245418070Y-79188928D01*
X245123092Y-79386026D01*
X244795331Y-79521789D01*
X244447384Y-79591000D01*
X244092616Y-79591000D01*
X243744669Y-79521789D01*
X243416908Y-79386026D01*
X243121930Y-79188928D01*
X242871072Y-78938070D01*
X242673974Y-78643092D01*
X242538211Y-78315331D01*
X242469000Y-77967384D01*
X242469000Y-77612616D01*
X242538211Y-77264669D01*
X242673974Y-76936908D01*
X242871072Y-76641930D01*
X243121930Y-76391072D01*
X243416908Y-76193974D01*
X243744669Y-76058211D01*
X244092616Y-75989000D01*
X244447384Y-75989000D01*
X244795331Y-76058211D01*
G37*
G36*
X232755331Y-76058211D02*
G01*
X233083092Y-76193974D01*
X233378070Y-76391072D01*
X233628928Y-76641930D01*
X233826026Y-76936908D01*
X233961789Y-77264669D01*
X234031000Y-77612616D01*
X234031000Y-77967384D01*
X233961789Y-78315331D01*
X233826026Y-78643092D01*
X233628928Y-78938070D01*
X233378070Y-79188928D01*
X233083092Y-79386026D01*
X232755331Y-79521789D01*
X232407384Y-79591000D01*
X232052616Y-79591000D01*
X231704669Y-79521789D01*
X231376908Y-79386026D01*
X231081930Y-79188928D01*
X230831072Y-78938070D01*
X230633974Y-78643092D01*
X230498211Y-78315331D01*
X230429000Y-77967384D01*
X230429000Y-77612616D01*
X230498211Y-77264669D01*
X230633974Y-76936908D01*
X230831072Y-76641930D01*
X231081930Y-76391072D01*
X231376908Y-76193974D01*
X231704669Y-76058211D01*
X232052616Y-75989000D01*
X232407384Y-75989000D01*
X232755331Y-76058211D01*
G37*
G36*
X185355331Y-76058211D02*
G01*
X185683092Y-76193974D01*
X185978070Y-76391072D01*
X186228928Y-76641930D01*
X186426026Y-76936908D01*
X186561789Y-77264669D01*
X186631000Y-77612616D01*
X186631000Y-77967384D01*
X186561789Y-78315331D01*
X186426026Y-78643092D01*
X186228928Y-78938070D01*
X185978070Y-79188928D01*
X185683092Y-79386026D01*
X185355331Y-79521789D01*
X185007384Y-79591000D01*
X184652616Y-79591000D01*
X184304669Y-79521789D01*
X183976908Y-79386026D01*
X183681930Y-79188928D01*
X183431072Y-78938070D01*
X183233974Y-78643092D01*
X183098211Y-78315331D01*
X183029000Y-77967384D01*
X183029000Y-77612616D01*
X183098211Y-77264669D01*
X183233974Y-76936908D01*
X183431072Y-76641930D01*
X183681930Y-76391072D01*
X183976908Y-76193974D01*
X184304669Y-76058211D01*
X184652616Y-75989000D01*
X185007384Y-75989000D01*
X185355331Y-76058211D01*
G37*
G36*
X210443512Y-77353927D02*
G01*
X210592812Y-77383624D01*
X210756784Y-77451544D01*
X210904354Y-77550147D01*
X211029853Y-77675646D01*
X211128456Y-77823216D01*
X211196376Y-77987188D01*
X211231000Y-78161259D01*
X211231000Y-78338741D01*
X211196376Y-78512812D01*
X211128456Y-78676784D01*
X211029853Y-78824354D01*
X210904354Y-78949853D01*
X210756784Y-79048456D01*
X210592812Y-79116376D01*
X210443512Y-79146073D01*
X210418742Y-79151000D01*
X210241258Y-79151000D01*
X210216488Y-79146073D01*
X210067188Y-79116376D01*
X209903216Y-79048456D01*
X209755646Y-78949853D01*
X209630147Y-78824354D01*
X209531544Y-78676784D01*
X209463624Y-78512812D01*
X209429000Y-78338741D01*
X209429000Y-78161259D01*
X209463624Y-77987188D01*
X209531544Y-77823216D01*
X209630147Y-77675646D01*
X209755646Y-77550147D01*
X209903216Y-77451544D01*
X210067188Y-77383624D01*
X210216488Y-77353927D01*
X210241258Y-77349000D01*
X210418742Y-77349000D01*
X210443512Y-77353927D01*
G37*
G36*
X223143512Y-77353927D02*
G01*
X223292812Y-77383624D01*
X223456784Y-77451544D01*
X223604354Y-77550147D01*
X223729853Y-77675646D01*
X223828456Y-77823216D01*
X223896376Y-77987188D01*
X223931000Y-78161259D01*
X223931000Y-78338741D01*
X223896376Y-78512812D01*
X223828456Y-78676784D01*
X223729853Y-78824354D01*
X223604354Y-78949853D01*
X223456784Y-79048456D01*
X223292812Y-79116376D01*
X223143512Y-79146073D01*
X223118742Y-79151000D01*
X222941258Y-79151000D01*
X222916488Y-79146073D01*
X222767188Y-79116376D01*
X222603216Y-79048456D01*
X222455646Y-78949853D01*
X222330147Y-78824354D01*
X222231544Y-78676784D01*
X222163624Y-78512812D01*
X222129000Y-78338741D01*
X222129000Y-78161259D01*
X222163624Y-77987188D01*
X222231544Y-77823216D01*
X222330147Y-77675646D01*
X222455646Y-77550147D01*
X222603216Y-77451544D01*
X222767188Y-77383624D01*
X222916488Y-77353927D01*
X222941258Y-77349000D01*
X223118742Y-77349000D01*
X223143512Y-77353927D01*
G37*
G36*
X220603512Y-77353927D02*
G01*
X220752812Y-77383624D01*
X220916784Y-77451544D01*
X221064354Y-77550147D01*
X221189853Y-77675646D01*
X221288456Y-77823216D01*
X221356376Y-77987188D01*
X221391000Y-78161259D01*
X221391000Y-78338741D01*
X221356376Y-78512812D01*
X221288456Y-78676784D01*
X221189853Y-78824354D01*
X221064354Y-78949853D01*
X220916784Y-79048456D01*
X220752812Y-79116376D01*
X220603512Y-79146073D01*
X220578742Y-79151000D01*
X220401258Y-79151000D01*
X220376488Y-79146073D01*
X220227188Y-79116376D01*
X220063216Y-79048456D01*
X219915646Y-78949853D01*
X219790147Y-78824354D01*
X219691544Y-78676784D01*
X219623624Y-78512812D01*
X219589000Y-78338741D01*
X219589000Y-78161259D01*
X219623624Y-77987188D01*
X219691544Y-77823216D01*
X219790147Y-77675646D01*
X219915646Y-77550147D01*
X220063216Y-77451544D01*
X220227188Y-77383624D01*
X220376488Y-77353927D01*
X220401258Y-77349000D01*
X220578742Y-77349000D01*
X220603512Y-77353927D01*
G37*
G36*
X202823512Y-77353927D02*
G01*
X202972812Y-77383624D01*
X203136784Y-77451544D01*
X203284354Y-77550147D01*
X203409853Y-77675646D01*
X203508456Y-77823216D01*
X203576376Y-77987188D01*
X203611000Y-78161259D01*
X203611000Y-78338741D01*
X203576376Y-78512812D01*
X203508456Y-78676784D01*
X203409853Y-78824354D01*
X203284354Y-78949853D01*
X203136784Y-79048456D01*
X202972812Y-79116376D01*
X202823512Y-79146073D01*
X202798742Y-79151000D01*
X202621258Y-79151000D01*
X202596488Y-79146073D01*
X202447188Y-79116376D01*
X202283216Y-79048456D01*
X202135646Y-78949853D01*
X202010147Y-78824354D01*
X201911544Y-78676784D01*
X201843624Y-78512812D01*
X201809000Y-78338741D01*
X201809000Y-78161259D01*
X201843624Y-77987188D01*
X201911544Y-77823216D01*
X202010147Y-77675646D01*
X202135646Y-77550147D01*
X202283216Y-77451544D01*
X202447188Y-77383624D01*
X202596488Y-77353927D01*
X202621258Y-77349000D01*
X202798742Y-77349000D01*
X202823512Y-77353927D01*
G37*
G36*
X205363512Y-77353927D02*
G01*
X205512812Y-77383624D01*
X205676784Y-77451544D01*
X205824354Y-77550147D01*
X205949853Y-77675646D01*
X206048456Y-77823216D01*
X206116376Y-77987188D01*
X206151000Y-78161259D01*
X206151000Y-78338741D01*
X206116376Y-78512812D01*
X206048456Y-78676784D01*
X205949853Y-78824354D01*
X205824354Y-78949853D01*
X205676784Y-79048456D01*
X205512812Y-79116376D01*
X205363512Y-79146073D01*
X205338742Y-79151000D01*
X205161258Y-79151000D01*
X205136488Y-79146073D01*
X204987188Y-79116376D01*
X204823216Y-79048456D01*
X204675646Y-78949853D01*
X204550147Y-78824354D01*
X204451544Y-78676784D01*
X204383624Y-78512812D01*
X204349000Y-78338741D01*
X204349000Y-78161259D01*
X204383624Y-77987188D01*
X204451544Y-77823216D01*
X204550147Y-77675646D01*
X204675646Y-77550147D01*
X204823216Y-77451544D01*
X204987188Y-77383624D01*
X205136488Y-77353927D01*
X205161258Y-77349000D01*
X205338742Y-77349000D01*
X205363512Y-77353927D01*
G37*
G36*
X207903512Y-77353927D02*
G01*
X208052812Y-77383624D01*
X208216784Y-77451544D01*
X208364354Y-77550147D01*
X208489853Y-77675646D01*
X208588456Y-77823216D01*
X208656376Y-77987188D01*
X208691000Y-78161259D01*
X208691000Y-78338741D01*
X208656376Y-78512812D01*
X208588456Y-78676784D01*
X208489853Y-78824354D01*
X208364354Y-78949853D01*
X208216784Y-79048456D01*
X208052812Y-79116376D01*
X207903512Y-79146073D01*
X207878742Y-79151000D01*
X207701258Y-79151000D01*
X207676488Y-79146073D01*
X207527188Y-79116376D01*
X207363216Y-79048456D01*
X207215646Y-78949853D01*
X207090147Y-78824354D01*
X206991544Y-78676784D01*
X206923624Y-78512812D01*
X206889000Y-78338741D01*
X206889000Y-78161259D01*
X206923624Y-77987188D01*
X206991544Y-77823216D01*
X207090147Y-77675646D01*
X207215646Y-77550147D01*
X207363216Y-77451544D01*
X207527188Y-77383624D01*
X207676488Y-77353927D01*
X207701258Y-77349000D01*
X207878742Y-77349000D01*
X207903512Y-77353927D01*
G37*
G36*
X228223512Y-77353927D02*
G01*
X228372812Y-77383624D01*
X228536784Y-77451544D01*
X228684354Y-77550147D01*
X228809853Y-77675646D01*
X228908456Y-77823216D01*
X228976376Y-77987188D01*
X229011000Y-78161259D01*
X229011000Y-78338741D01*
X228976376Y-78512812D01*
X228908456Y-78676784D01*
X228809853Y-78824354D01*
X228684354Y-78949853D01*
X228536784Y-79048456D01*
X228372812Y-79116376D01*
X228223512Y-79146073D01*
X228198742Y-79151000D01*
X228021258Y-79151000D01*
X227996488Y-79146073D01*
X227847188Y-79116376D01*
X227683216Y-79048456D01*
X227535646Y-78949853D01*
X227410147Y-78824354D01*
X227311544Y-78676784D01*
X227243624Y-78512812D01*
X227209000Y-78338741D01*
X227209000Y-78161259D01*
X227243624Y-77987188D01*
X227311544Y-77823216D01*
X227410147Y-77675646D01*
X227535646Y-77550147D01*
X227683216Y-77451544D01*
X227847188Y-77383624D01*
X227996488Y-77353927D01*
X228021258Y-77349000D01*
X228198742Y-77349000D01*
X228223512Y-77353927D01*
G37*
G36*
X215523512Y-77353927D02*
G01*
X215672812Y-77383624D01*
X215836784Y-77451544D01*
X215984354Y-77550147D01*
X216109853Y-77675646D01*
X216208456Y-77823216D01*
X216276376Y-77987188D01*
X216311000Y-78161259D01*
X216311000Y-78338741D01*
X216276376Y-78512812D01*
X216208456Y-78676784D01*
X216109853Y-78824354D01*
X215984354Y-78949853D01*
X215836784Y-79048456D01*
X215672812Y-79116376D01*
X215523512Y-79146073D01*
X215498742Y-79151000D01*
X215321258Y-79151000D01*
X215296488Y-79146073D01*
X215147188Y-79116376D01*
X214983216Y-79048456D01*
X214835646Y-78949853D01*
X214710147Y-78824354D01*
X214611544Y-78676784D01*
X214543624Y-78512812D01*
X214509000Y-78338741D01*
X214509000Y-78161259D01*
X214543624Y-77987188D01*
X214611544Y-77823216D01*
X214710147Y-77675646D01*
X214835646Y-77550147D01*
X214983216Y-77451544D01*
X215147188Y-77383624D01*
X215296488Y-77353927D01*
X215321258Y-77349000D01*
X215498742Y-77349000D01*
X215523512Y-77353927D01*
G37*
G36*
X225683512Y-77353927D02*
G01*
X225832812Y-77383624D01*
X225996784Y-77451544D01*
X226144354Y-77550147D01*
X226269853Y-77675646D01*
X226368456Y-77823216D01*
X226436376Y-77987188D01*
X226471000Y-78161259D01*
X226471000Y-78338741D01*
X226436376Y-78512812D01*
X226368456Y-78676784D01*
X226269853Y-78824354D01*
X226144354Y-78949853D01*
X225996784Y-79048456D01*
X225832812Y-79116376D01*
X225683512Y-79146073D01*
X225658742Y-79151000D01*
X225481258Y-79151000D01*
X225456488Y-79146073D01*
X225307188Y-79116376D01*
X225143216Y-79048456D01*
X224995646Y-78949853D01*
X224870147Y-78824354D01*
X224771544Y-78676784D01*
X224703624Y-78512812D01*
X224669000Y-78338741D01*
X224669000Y-78161259D01*
X224703624Y-77987188D01*
X224771544Y-77823216D01*
X224870147Y-77675646D01*
X224995646Y-77550147D01*
X225143216Y-77451544D01*
X225307188Y-77383624D01*
X225456488Y-77353927D01*
X225481258Y-77349000D01*
X225658742Y-77349000D01*
X225683512Y-77353927D01*
G37*
G36*
X201071000Y-79151000D02*
G01*
X199269000Y-79151000D01*
X199269000Y-77349000D01*
X201071000Y-77349000D01*
X201071000Y-79151000D01*
G37*
G36*
X218063512Y-77353927D02*
G01*
X218212812Y-77383624D01*
X218376784Y-77451544D01*
X218524354Y-77550147D01*
X218649853Y-77675646D01*
X218748456Y-77823216D01*
X218816376Y-77987188D01*
X218851000Y-78161259D01*
X218851000Y-78338741D01*
X218816376Y-78512812D01*
X218748456Y-78676784D01*
X218649853Y-78824354D01*
X218524354Y-78949853D01*
X218376784Y-79048456D01*
X218212812Y-79116376D01*
X218063512Y-79146073D01*
X218038742Y-79151000D01*
X217861258Y-79151000D01*
X217836488Y-79146073D01*
X217687188Y-79116376D01*
X217523216Y-79048456D01*
X217375646Y-78949853D01*
X217250147Y-78824354D01*
X217151544Y-78676784D01*
X217083624Y-78512812D01*
X217049000Y-78338741D01*
X217049000Y-78161259D01*
X217083624Y-77987188D01*
X217151544Y-77823216D01*
X217250147Y-77675646D01*
X217375646Y-77550147D01*
X217523216Y-77451544D01*
X217687188Y-77383624D01*
X217836488Y-77353927D01*
X217861258Y-77349000D01*
X218038742Y-77349000D01*
X218063512Y-77353927D01*
G37*
G36*
X212983512Y-77353927D02*
G01*
X213132812Y-77383624D01*
X213296784Y-77451544D01*
X213444354Y-77550147D01*
X213569853Y-77675646D01*
X213668456Y-77823216D01*
X213736376Y-77987188D01*
X213771000Y-78161259D01*
X213771000Y-78338741D01*
X213736376Y-78512812D01*
X213668456Y-78676784D01*
X213569853Y-78824354D01*
X213444354Y-78949853D01*
X213296784Y-79048456D01*
X213132812Y-79116376D01*
X212983512Y-79146073D01*
X212958742Y-79151000D01*
X212781258Y-79151000D01*
X212756488Y-79146073D01*
X212607188Y-79116376D01*
X212443216Y-79048456D01*
X212295646Y-78949853D01*
X212170147Y-78824354D01*
X212071544Y-78676784D01*
X212003624Y-78512812D01*
X211969000Y-78338741D01*
X211969000Y-78161259D01*
X212003624Y-77987188D01*
X212071544Y-77823216D01*
X212170147Y-77675646D01*
X212295646Y-77550147D01*
X212443216Y-77451544D01*
X212607188Y-77383624D01*
X212756488Y-77353927D01*
X212781258Y-77349000D01*
X212958742Y-77349000D01*
X212983512Y-77353927D01*
G37*
G36*
X218063512Y-74813927D02*
G01*
X218212812Y-74843624D01*
X218376784Y-74911544D01*
X218524354Y-75010147D01*
X218649853Y-75135646D01*
X218748456Y-75283216D01*
X218816376Y-75447188D01*
X218851000Y-75621259D01*
X218851000Y-75798741D01*
X218816376Y-75972812D01*
X218748456Y-76136784D01*
X218649853Y-76284354D01*
X218524354Y-76409853D01*
X218376784Y-76508456D01*
X218212812Y-76576376D01*
X218063512Y-76606073D01*
X218038742Y-76611000D01*
X217861258Y-76611000D01*
X217836488Y-76606073D01*
X217687188Y-76576376D01*
X217523216Y-76508456D01*
X217375646Y-76409853D01*
X217250147Y-76284354D01*
X217151544Y-76136784D01*
X217083624Y-75972812D01*
X217049000Y-75798741D01*
X217049000Y-75621259D01*
X217083624Y-75447188D01*
X217151544Y-75283216D01*
X217250147Y-75135646D01*
X217375646Y-75010147D01*
X217523216Y-74911544D01*
X217687188Y-74843624D01*
X217836488Y-74813927D01*
X217861258Y-74809000D01*
X218038742Y-74809000D01*
X218063512Y-74813927D01*
G37*
G36*
X202823512Y-74813927D02*
G01*
X202972812Y-74843624D01*
X203136784Y-74911544D01*
X203284354Y-75010147D01*
X203409853Y-75135646D01*
X203508456Y-75283216D01*
X203576376Y-75447188D01*
X203611000Y-75621259D01*
X203611000Y-75798741D01*
X203576376Y-75972812D01*
X203508456Y-76136784D01*
X203409853Y-76284354D01*
X203284354Y-76409853D01*
X203136784Y-76508456D01*
X202972812Y-76576376D01*
X202823512Y-76606073D01*
X202798742Y-76611000D01*
X202621258Y-76611000D01*
X202596488Y-76606073D01*
X202447188Y-76576376D01*
X202283216Y-76508456D01*
X202135646Y-76409853D01*
X202010147Y-76284354D01*
X201911544Y-76136784D01*
X201843624Y-75972812D01*
X201809000Y-75798741D01*
X201809000Y-75621259D01*
X201843624Y-75447188D01*
X201911544Y-75283216D01*
X202010147Y-75135646D01*
X202135646Y-75010147D01*
X202283216Y-74911544D01*
X202447188Y-74843624D01*
X202596488Y-74813927D01*
X202621258Y-74809000D01*
X202798742Y-74809000D01*
X202823512Y-74813927D01*
G37*
G36*
X205363512Y-74813927D02*
G01*
X205512812Y-74843624D01*
X205676784Y-74911544D01*
X205824354Y-75010147D01*
X205949853Y-75135646D01*
X206048456Y-75283216D01*
X206116376Y-75447188D01*
X206151000Y-75621259D01*
X206151000Y-75798741D01*
X206116376Y-75972812D01*
X206048456Y-76136784D01*
X205949853Y-76284354D01*
X205824354Y-76409853D01*
X205676784Y-76508456D01*
X205512812Y-76576376D01*
X205363512Y-76606073D01*
X205338742Y-76611000D01*
X205161258Y-76611000D01*
X205136488Y-76606073D01*
X204987188Y-76576376D01*
X204823216Y-76508456D01*
X204675646Y-76409853D01*
X204550147Y-76284354D01*
X204451544Y-76136784D01*
X204383624Y-75972812D01*
X204349000Y-75798741D01*
X204349000Y-75621259D01*
X204383624Y-75447188D01*
X204451544Y-75283216D01*
X204550147Y-75135646D01*
X204675646Y-75010147D01*
X204823216Y-74911544D01*
X204987188Y-74843624D01*
X205136488Y-74813927D01*
X205161258Y-74809000D01*
X205338742Y-74809000D01*
X205363512Y-74813927D01*
G37*
G36*
X210443512Y-74813927D02*
G01*
X210592812Y-74843624D01*
X210756784Y-74911544D01*
X210904354Y-75010147D01*
X211029853Y-75135646D01*
X211128456Y-75283216D01*
X211196376Y-75447188D01*
X211231000Y-75621259D01*
X211231000Y-75798741D01*
X211196376Y-75972812D01*
X211128456Y-76136784D01*
X211029853Y-76284354D01*
X210904354Y-76409853D01*
X210756784Y-76508456D01*
X210592812Y-76576376D01*
X210443512Y-76606073D01*
X210418742Y-76611000D01*
X210241258Y-76611000D01*
X210216488Y-76606073D01*
X210067188Y-76576376D01*
X209903216Y-76508456D01*
X209755646Y-76409853D01*
X209630147Y-76284354D01*
X209531544Y-76136784D01*
X209463624Y-75972812D01*
X209429000Y-75798741D01*
X209429000Y-75621259D01*
X209463624Y-75447188D01*
X209531544Y-75283216D01*
X209630147Y-75135646D01*
X209755646Y-75010147D01*
X209903216Y-74911544D01*
X210067188Y-74843624D01*
X210216488Y-74813927D01*
X210241258Y-74809000D01*
X210418742Y-74809000D01*
X210443512Y-74813927D01*
G37*
G36*
X207903512Y-74813927D02*
G01*
X208052812Y-74843624D01*
X208216784Y-74911544D01*
X208364354Y-75010147D01*
X208489853Y-75135646D01*
X208588456Y-75283216D01*
X208656376Y-75447188D01*
X208691000Y-75621259D01*
X208691000Y-75798741D01*
X208656376Y-75972812D01*
X208588456Y-76136784D01*
X208489853Y-76284354D01*
X208364354Y-76409853D01*
X208216784Y-76508456D01*
X208052812Y-76576376D01*
X207903512Y-76606073D01*
X207878742Y-76611000D01*
X207701258Y-76611000D01*
X207676488Y-76606073D01*
X207527188Y-76576376D01*
X207363216Y-76508456D01*
X207215646Y-76409853D01*
X207090147Y-76284354D01*
X206991544Y-76136784D01*
X206923624Y-75972812D01*
X206889000Y-75798741D01*
X206889000Y-75621259D01*
X206923624Y-75447188D01*
X206991544Y-75283216D01*
X207090147Y-75135646D01*
X207215646Y-75010147D01*
X207363216Y-74911544D01*
X207527188Y-74843624D01*
X207676488Y-74813927D01*
X207701258Y-74809000D01*
X207878742Y-74809000D01*
X207903512Y-74813927D01*
G37*
G36*
X212983512Y-74813927D02*
G01*
X213132812Y-74843624D01*
X213296784Y-74911544D01*
X213444354Y-75010147D01*
X213569853Y-75135646D01*
X213668456Y-75283216D01*
X213736376Y-75447188D01*
X213771000Y-75621259D01*
X213771000Y-75798741D01*
X213736376Y-75972812D01*
X213668456Y-76136784D01*
X213569853Y-76284354D01*
X213444354Y-76409853D01*
X213296784Y-76508456D01*
X213132812Y-76576376D01*
X212983512Y-76606073D01*
X212958742Y-76611000D01*
X212781258Y-76611000D01*
X212756488Y-76606073D01*
X212607188Y-76576376D01*
X212443216Y-76508456D01*
X212295646Y-76409853D01*
X212170147Y-76284354D01*
X212071544Y-76136784D01*
X212003624Y-75972812D01*
X211969000Y-75798741D01*
X211969000Y-75621259D01*
X212003624Y-75447188D01*
X212071544Y-75283216D01*
X212170147Y-75135646D01*
X212295646Y-75010147D01*
X212443216Y-74911544D01*
X212607188Y-74843624D01*
X212756488Y-74813927D01*
X212781258Y-74809000D01*
X212958742Y-74809000D01*
X212983512Y-74813927D01*
G37*
G36*
X215523512Y-74813927D02*
G01*
X215672812Y-74843624D01*
X215836784Y-74911544D01*
X215984354Y-75010147D01*
X216109853Y-75135646D01*
X216208456Y-75283216D01*
X216276376Y-75447188D01*
X216311000Y-75621259D01*
X216311000Y-75798741D01*
X216276376Y-75972812D01*
X216208456Y-76136784D01*
X216109853Y-76284354D01*
X215984354Y-76409853D01*
X215836784Y-76508456D01*
X215672812Y-76576376D01*
X215523512Y-76606073D01*
X215498742Y-76611000D01*
X215321258Y-76611000D01*
X215296488Y-76606073D01*
X215147188Y-76576376D01*
X214983216Y-76508456D01*
X214835646Y-76409853D01*
X214710147Y-76284354D01*
X214611544Y-76136784D01*
X214543624Y-75972812D01*
X214509000Y-75798741D01*
X214509000Y-75621259D01*
X214543624Y-75447188D01*
X214611544Y-75283216D01*
X214710147Y-75135646D01*
X214835646Y-75010147D01*
X214983216Y-74911544D01*
X215147188Y-74843624D01*
X215296488Y-74813927D01*
X215321258Y-74809000D01*
X215498742Y-74809000D01*
X215523512Y-74813927D01*
G37*
G36*
X220603512Y-74813927D02*
G01*
X220752812Y-74843624D01*
X220916784Y-74911544D01*
X221064354Y-75010147D01*
X221189853Y-75135646D01*
X221288456Y-75283216D01*
X221356376Y-75447188D01*
X221391000Y-75621259D01*
X221391000Y-75798741D01*
X221356376Y-75972812D01*
X221288456Y-76136784D01*
X221189853Y-76284354D01*
X221064354Y-76409853D01*
X220916784Y-76508456D01*
X220752812Y-76576376D01*
X220603512Y-76606073D01*
X220578742Y-76611000D01*
X220401258Y-76611000D01*
X220376488Y-76606073D01*
X220227188Y-76576376D01*
X220063216Y-76508456D01*
X219915646Y-76409853D01*
X219790147Y-76284354D01*
X219691544Y-76136784D01*
X219623624Y-75972812D01*
X219589000Y-75798741D01*
X219589000Y-75621259D01*
X219623624Y-75447188D01*
X219691544Y-75283216D01*
X219790147Y-75135646D01*
X219915646Y-75010147D01*
X220063216Y-74911544D01*
X220227188Y-74843624D01*
X220376488Y-74813927D01*
X220401258Y-74809000D01*
X220578742Y-74809000D01*
X220603512Y-74813927D01*
G37*
G36*
X223143512Y-74813927D02*
G01*
X223292812Y-74843624D01*
X223456784Y-74911544D01*
X223604354Y-75010147D01*
X223729853Y-75135646D01*
X223828456Y-75283216D01*
X223896376Y-75447188D01*
X223931000Y-75621259D01*
X223931000Y-75798741D01*
X223896376Y-75972812D01*
X223828456Y-76136784D01*
X223729853Y-76284354D01*
X223604354Y-76409853D01*
X223456784Y-76508456D01*
X223292812Y-76576376D01*
X223143512Y-76606073D01*
X223118742Y-76611000D01*
X222941258Y-76611000D01*
X222916488Y-76606073D01*
X222767188Y-76576376D01*
X222603216Y-76508456D01*
X222455646Y-76409853D01*
X222330147Y-76284354D01*
X222231544Y-76136784D01*
X222163624Y-75972812D01*
X222129000Y-75798741D01*
X222129000Y-75621259D01*
X222163624Y-75447188D01*
X222231544Y-75283216D01*
X222330147Y-75135646D01*
X222455646Y-75010147D01*
X222603216Y-74911544D01*
X222767188Y-74843624D01*
X222916488Y-74813927D01*
X222941258Y-74809000D01*
X223118742Y-74809000D01*
X223143512Y-74813927D01*
G37*
G36*
X225683512Y-74813927D02*
G01*
X225832812Y-74843624D01*
X225996784Y-74911544D01*
X226144354Y-75010147D01*
X226269853Y-75135646D01*
X226368456Y-75283216D01*
X226436376Y-75447188D01*
X226471000Y-75621259D01*
X226471000Y-75798741D01*
X226436376Y-75972812D01*
X226368456Y-76136784D01*
X226269853Y-76284354D01*
X226144354Y-76409853D01*
X225996784Y-76508456D01*
X225832812Y-76576376D01*
X225683512Y-76606073D01*
X225658742Y-76611000D01*
X225481258Y-76611000D01*
X225456488Y-76606073D01*
X225307188Y-76576376D01*
X225143216Y-76508456D01*
X224995646Y-76409853D01*
X224870147Y-76284354D01*
X224771544Y-76136784D01*
X224703624Y-75972812D01*
X224669000Y-75798741D01*
X224669000Y-75621259D01*
X224703624Y-75447188D01*
X224771544Y-75283216D01*
X224870147Y-75135646D01*
X224995646Y-75010147D01*
X225143216Y-74911544D01*
X225307188Y-74843624D01*
X225456488Y-74813927D01*
X225481258Y-74809000D01*
X225658742Y-74809000D01*
X225683512Y-74813927D01*
G37*
G36*
X228223512Y-74813927D02*
G01*
X228372812Y-74843624D01*
X228536784Y-74911544D01*
X228684354Y-75010147D01*
X228809853Y-75135646D01*
X228908456Y-75283216D01*
X228976376Y-75447188D01*
X229011000Y-75621259D01*
X229011000Y-75798741D01*
X228976376Y-75972812D01*
X228908456Y-76136784D01*
X228809853Y-76284354D01*
X228684354Y-76409853D01*
X228536784Y-76508456D01*
X228372812Y-76576376D01*
X228223512Y-76606073D01*
X228198742Y-76611000D01*
X228021258Y-76611000D01*
X227996488Y-76606073D01*
X227847188Y-76576376D01*
X227683216Y-76508456D01*
X227535646Y-76409853D01*
X227410147Y-76284354D01*
X227311544Y-76136784D01*
X227243624Y-75972812D01*
X227209000Y-75798741D01*
X227209000Y-75621259D01*
X227243624Y-75447188D01*
X227311544Y-75283216D01*
X227410147Y-75135646D01*
X227535646Y-75010147D01*
X227683216Y-74911544D01*
X227847188Y-74843624D01*
X227996488Y-74813927D01*
X228021258Y-74809000D01*
X228198742Y-74809000D01*
X228223512Y-74813927D01*
G37*
G36*
X200283512Y-74813927D02*
G01*
X200432812Y-74843624D01*
X200596784Y-74911544D01*
X200744354Y-75010147D01*
X200869853Y-75135646D01*
X200968456Y-75283216D01*
X201036376Y-75447188D01*
X201071000Y-75621259D01*
X201071000Y-75798741D01*
X201036376Y-75972812D01*
X200968456Y-76136784D01*
X200869853Y-76284354D01*
X200744354Y-76409853D01*
X200596784Y-76508456D01*
X200432812Y-76576376D01*
X200283512Y-76606073D01*
X200258742Y-76611000D01*
X200081258Y-76611000D01*
X200056488Y-76606073D01*
X199907188Y-76576376D01*
X199743216Y-76508456D01*
X199595646Y-76409853D01*
X199470147Y-76284354D01*
X199371544Y-76136784D01*
X199303624Y-75972812D01*
X199269000Y-75798741D01*
X199269000Y-75621259D01*
X199303624Y-75447188D01*
X199371544Y-75283216D01*
X199470147Y-75135646D01*
X199595646Y-75010147D01*
X199743216Y-74911544D01*
X199907188Y-74843624D01*
X200056488Y-74813927D01*
X200081258Y-74809000D01*
X200258742Y-74809000D01*
X200283512Y-74813927D01*
G37*
G36*
X170889629Y-69262811D02*
G01*
X171448282Y-69373934D01*
X172039926Y-69619001D01*
X172572392Y-69974784D01*
X173025216Y-70427608D01*
X173380999Y-70960074D01*
X173626066Y-71551718D01*
X173626066Y-71551719D01*
X173751000Y-72179803D01*
X173751000Y-72820197D01*
X173688533Y-73134239D01*
X173626066Y-73448282D01*
X173380999Y-74039926D01*
X173025216Y-74572392D01*
X172572392Y-75025216D01*
X172039926Y-75380999D01*
X171448282Y-75626066D01*
X171134239Y-75688533D01*
X170820197Y-75751000D01*
X170179803Y-75751000D01*
X169865761Y-75688533D01*
X169551718Y-75626066D01*
X168960074Y-75380999D01*
X168427608Y-75025216D01*
X167974784Y-74572392D01*
X167619001Y-74039926D01*
X167373934Y-73448282D01*
X167311467Y-73134239D01*
X167249000Y-72820197D01*
X167249000Y-72179803D01*
X167373934Y-71551719D01*
X167373934Y-71551718D01*
X167619001Y-70960074D01*
X167974784Y-70427608D01*
X168427608Y-69974784D01*
X168960074Y-69619001D01*
X169551718Y-69373934D01*
X170110371Y-69262811D01*
X170179803Y-69249000D01*
X170820197Y-69249000D01*
X170889629Y-69262811D01*
G37*
G36*
X250389629Y-69262811D02*
G01*
X250948282Y-69373934D01*
X251539926Y-69619001D01*
X252072392Y-69974784D01*
X252525216Y-70427608D01*
X252880999Y-70960074D01*
X253126066Y-71551718D01*
X253126066Y-71551719D01*
X253251000Y-72179803D01*
X253251000Y-72820197D01*
X253188533Y-73134239D01*
X253126066Y-73448282D01*
X252880999Y-74039926D01*
X252525216Y-74572392D01*
X252072392Y-75025216D01*
X251539926Y-75380999D01*
X250948282Y-75626066D01*
X250634239Y-75688533D01*
X250320197Y-75751000D01*
X249679803Y-75751000D01*
X249365761Y-75688533D01*
X249051718Y-75626066D01*
X248460074Y-75380999D01*
X247927608Y-75025216D01*
X247474784Y-74572392D01*
X247119001Y-74039926D01*
X246873934Y-73448282D01*
X246811467Y-73134239D01*
X246749000Y-72820197D01*
X246749000Y-72179803D01*
X246873934Y-71551719D01*
X246873934Y-71551718D01*
X247119001Y-70960074D01*
X247474784Y-70427608D01*
X247927608Y-69974784D01*
X248460074Y-69619001D01*
X249051718Y-69373934D01*
X249610371Y-69262811D01*
X249679803Y-69249000D01*
X250320197Y-69249000D01*
X250389629Y-69262811D01*
G37*
G36*
X182843512Y-68103927D02*
G01*
X182992812Y-68133624D01*
X183156784Y-68201544D01*
X183304354Y-68300147D01*
X183429853Y-68425646D01*
X183528456Y-68573216D01*
X183596376Y-68737188D01*
X183631000Y-68911259D01*
X183631000Y-69088741D01*
X183596376Y-69262812D01*
X183528456Y-69426784D01*
X183429853Y-69574354D01*
X183304354Y-69699853D01*
X183156784Y-69798456D01*
X182992812Y-69866376D01*
X182843512Y-69896073D01*
X182818742Y-69901000D01*
X182641258Y-69901000D01*
X182616488Y-69896073D01*
X182467188Y-69866376D01*
X182303216Y-69798456D01*
X182155646Y-69699853D01*
X182030147Y-69574354D01*
X181931544Y-69426784D01*
X181863624Y-69262812D01*
X181829000Y-69088741D01*
X181829000Y-68911259D01*
X181863624Y-68737188D01*
X181931544Y-68573216D01*
X182030147Y-68425646D01*
X182155646Y-68300147D01*
X182303216Y-68201544D01*
X182467188Y-68133624D01*
X182616488Y-68103927D01*
X182641258Y-68099000D01*
X182818742Y-68099000D01*
X182843512Y-68103927D01*
G37*
G36*
X180303512Y-68103927D02*
G01*
X180452812Y-68133624D01*
X180616784Y-68201544D01*
X180764354Y-68300147D01*
X180889853Y-68425646D01*
X180988456Y-68573216D01*
X181056376Y-68737188D01*
X181091000Y-68911259D01*
X181091000Y-69088741D01*
X181056376Y-69262812D01*
X180988456Y-69426784D01*
X180889853Y-69574354D01*
X180764354Y-69699853D01*
X180616784Y-69798456D01*
X180452812Y-69866376D01*
X180303512Y-69896073D01*
X180278742Y-69901000D01*
X180101258Y-69901000D01*
X180076488Y-69896073D01*
X179927188Y-69866376D01*
X179763216Y-69798456D01*
X179615646Y-69699853D01*
X179490147Y-69574354D01*
X179391544Y-69426784D01*
X179323624Y-69262812D01*
X179289000Y-69088741D01*
X179289000Y-68911259D01*
X179323624Y-68737188D01*
X179391544Y-68573216D01*
X179490147Y-68425646D01*
X179615646Y-68300147D01*
X179763216Y-68201544D01*
X179927188Y-68133624D01*
X180076488Y-68103927D01*
X180101258Y-68099000D01*
X180278742Y-68099000D01*
X180303512Y-68103927D01*
G37*
G36*
X178551000Y-69901000D02*
G01*
X176749000Y-69901000D01*
X176749000Y-68099000D01*
X178551000Y-68099000D01*
X178551000Y-69901000D01*
G37*
M02*
