M48
; DRILL file {KiCad (5.1.5)-3} date 28/02/2021 22:05:04
; FORMAT={-:-/ absolute / inch / decimal}
; #@! TF.CreationDate,2021-02-28T22:05:04+01:00
; #@! TF.GenerationSoftware,Kicad,Pcbnew,(5.1.5)-3
; #@! TF.FileFunction,Plated,1,2,PTH
FMAT,2
INCH
T1C0.0118
T2C0.0157
T3C0.0197
T4C0.0236
T5C0.0276
T6C0.0315
T7C0.0362
T8C0.0394
T9C0.0433
T10C0.0520
T11C0.0630
T12C0.0917
T13C0.1260
%
G90
G05
T1
X6.726Y-5.2886
X6.8827Y-5.5197
X7.138Y-4.1292
X7.302Y-4.1894
X7.3654Y-5.4831
X7.4118Y-3.4744
X7.4126Y-5.6287
X7.4484Y-5.3618
X7.5378Y-3.472
X7.5839Y-3.4724
X7.7047Y-3.4295
X7.7783Y-3.4701
X7.7874Y-5.0598
X7.8303Y-3.628
X7.8374Y-5.0378
X7.8429Y-4.4315
X7.8823Y-5.2803
X7.9906Y-3.611
X8.0343Y-3.9323
X8.1914Y-4.9489
X8.217Y-4.5023
X8.252Y-4.5
X8.2776Y-4.5197
X8.3274Y-4.0455
X8.3504Y-4.1949
X8.3642Y-4.0472
X8.3681Y-4.0807
X8.4173Y-4.2795
X8.4272Y-4.8543
X8.435Y-4.2539
X8.4624Y-4.2303
X8.4941Y-4.2077
X8.6472Y-5.2382
X8.6921Y-4.6953
X8.6949Y-4.5374
X8.7537Y-4.162
X8.7632Y-4.0581
X8.7637Y-4.1342
X8.7717Y-3.8917
X8.7745Y-4.0854
X8.7862Y-4.1126
X8.8437Y-3.8816
X8.8965Y-4.6114
X8.9106Y-4.5347
X8.939Y-4.6398
X8.9508Y-3.439
X8.9648Y-4.5315
X8.9722Y-3.8632
X8.9787Y-3.8933
X8.9791Y-4.2024
X8.9837Y-4.3375
X8.9921Y-4.624
X9.0256Y-4.3484
X9.0374Y-3.4409
X9.0374Y-3.9567
X9.0535Y-3.8797
X9.0669Y-4.189
X9.0756Y-3.9232
X9.1165Y-3.9083
X9.1555Y-4.0846
X9.1803Y-4.0055
X9.2087Y-3.7441
X9.2098Y-3.4106
X9.2185Y-4.3091
X9.2224Y-4.3445
X9.2244Y-3.8632
X9.2362Y-4.0748
X9.2402Y-4.2874
X9.2461Y-4.2008
X9.2657Y-3.7618
X9.2697Y-4.3858
X9.2992Y-3.8465
X9.3303Y-3.3606
X9.3524Y-3.7205
X9.4035Y-4.5413
X9.435Y-4.2244
X9.437Y-4.565
X9.4461Y-3.6098
X9.4606Y-4.5984
X9.4626Y-3.4276
X9.4878Y-3.9047
X9.5398Y-5.5126
X9.5413Y-4.0846
X9.5933Y-5.8528
X9.6122Y-3.7835
X9.6433Y-5.5339
X9.7268Y-3.2075
T2
X8.8012Y-3.9587
X8.8445Y-3.9587
X8.8618Y-3.9146
T3
X6.6181Y-5.7087
X6.6458Y-5.6418
X6.6458Y-5.7755
X6.7126Y-5.6142
X6.7126Y-5.8031
X6.7794Y-5.6418
X6.7794Y-5.7755
X6.8071Y-5.7087
X6.6181Y-2.8543
X6.6458Y-2.7875
X6.6458Y-2.9211
X6.7126Y-2.7598
X6.7126Y-2.9488
X6.7794Y-2.7875
X6.7794Y-2.9211
X6.8071Y-2.8543
X8.1122Y-3.8307
X8.1122Y-3.9094
X8.2756Y-3.8406
X8.2756Y-3.8996
X9.748Y-2.8543
X9.7757Y-2.7875
X9.7757Y-2.9211
X9.8425Y-2.7598
X9.8425Y-2.9488
X9.9093Y-2.7875
X9.9093Y-2.9211
X9.937Y-2.8543
X9.748Y-5.7087
X9.7757Y-5.6418
X9.7757Y-5.7755
X9.8425Y-5.6142
X9.8425Y-5.8031
X9.9093Y-5.6418
X9.9093Y-5.7755
X9.937Y-5.7087
T4
X6.5807Y-3.3531
X6.6638Y-4.0587
X6.8937Y-4.0185
X7.0827Y-4.3268
X7.172Y-4.389
X7.5012Y-4.1118
X7.7402Y-4.4744
X8.4724Y-4.1024
X8.626Y-4.5217
X8.8681Y-4.2461
X8.9587Y-4.3031
X9.1004Y-4.0433
T5
X9.7925Y-3.1386
X9.7925Y-3.1886
X9.7925Y-3.2386
X9.7925Y-3.2886
X9.7925Y-3.3386
X9.8425Y-3.1386
X9.8425Y-3.1886
X9.8425Y-3.2386
X9.8425Y-3.2886
X9.8425Y-3.3386
T6
X8.315Y-3.5768
X8.315Y-3.6768
X8.615Y-3.5768
X8.615Y-3.6768
X7.2736Y-4.8228
X7.2736Y-4.9228
X7.5736Y-4.8228
X7.5736Y-4.9228
T7
X7.4646Y-3.1693
X7.4646Y-3.248
X7.563Y-3.1693
X7.563Y-3.248
X9.3307Y-3.1693
X9.3307Y-3.248
X9.4291Y-3.1693
X9.4291Y-3.248
T8
X8.2008Y-3.5768
X8.2008Y-3.6768
X6.9835Y-5.5059
X7.0835Y-5.5059
X7.1835Y-5.5059
X7.2835Y-5.5059
X6.5748Y-4.1673
X6.5748Y-4.2673
X6.5748Y-4.3673
X6.5748Y-4.4673
X6.6748Y-4.1673
X6.6748Y-4.2673
X6.6748Y-4.3673
X6.6748Y-4.4673
X7.3878Y-5.1559
X7.3878Y-5.2559
X8.6575Y-4.8472
X8.6575Y-4.9472
X8.6575Y-5.0472
X9.689Y-3.5591
X9.689Y-3.6591
X9.689Y-3.7591
X9.689Y-3.8591
X9.689Y-3.9591
X9.689Y-4.0591
X9.689Y-4.1591
X9.689Y-4.2591
X9.689Y-4.3591
X9.689Y-4.4591
X9.689Y-4.5591
X9.689Y-4.6591
X9.689Y-4.7591
X9.689Y-4.8591
X9.689Y-4.9591
X9.689Y-5.0591
X9.689Y-5.1591
X9.689Y-5.2591
X9.689Y-5.3591
X9.689Y-5.4591
X9.789Y-3.5591
X9.789Y-3.6591
X9.789Y-3.7591
X9.789Y-3.8591
X9.789Y-3.9591
X9.789Y-4.0591
X9.789Y-4.1591
X9.789Y-4.2591
X9.789Y-4.3591
X9.789Y-4.4591
X9.789Y-4.5591
X9.789Y-4.6591
X9.789Y-4.7591
X9.789Y-4.8591
X9.789Y-4.9591
X9.789Y-5.0591
X9.789Y-5.1591
X9.789Y-5.2591
X9.789Y-5.3591
X9.789Y-5.4591
X7.6909Y-4.8228
X7.6909Y-4.9228
X9.2283Y-3.4846
X9.2283Y-3.5846
X9.2283Y-3.6846
X7.4976Y-5.563
X7.4976Y-5.663
X7.5976Y-5.563
X7.5976Y-5.663
X7.6976Y-5.563
X7.6976Y-5.663
X7.7976Y-5.563
X7.7976Y-5.663
X7.8976Y-5.563
X7.8976Y-5.663
X7.9976Y-5.563
X7.9976Y-5.663
X8.0976Y-5.563
X8.0976Y-5.663
X8.1976Y-5.563
X8.1976Y-5.663
X8.2976Y-5.563
X8.2976Y-5.663
X8.3976Y-5.563
X8.3976Y-5.663
X8.4976Y-5.563
X8.4976Y-5.663
X8.5976Y-5.563
X8.5976Y-5.663
X8.6976Y-5.563
X8.6976Y-5.663
X8.7976Y-5.563
X8.7976Y-5.663
X8.8976Y-5.563
X8.8976Y-5.663
X8.9976Y-5.563
X8.9976Y-5.663
X9.0976Y-5.563
X9.0976Y-5.663
X9.1976Y-5.563
X9.1976Y-5.663
X9.2976Y-5.563
X9.2976Y-5.663
X9.3976Y-5.563
X9.3976Y-5.663
X6.9941Y-2.7165
X7.0941Y-2.7165
X7.1941Y-2.7165
X7.8807Y-2.9807
X7.8807Y-3.0807
X7.9807Y-2.9807
X7.9807Y-3.0807
X8.0807Y-2.9807
X8.0807Y-3.0807
X8.1807Y-2.9807
X8.1807Y-3.0807
X8.2807Y-2.9807
X8.2807Y-3.0807
X8.3807Y-2.9807
X8.3807Y-3.0807
X8.4807Y-2.9807
X8.4807Y-3.0807
X8.5807Y-2.9807
X8.5807Y-3.0807
X8.6807Y-2.9807
X8.6807Y-3.0807
X8.7807Y-2.9807
X8.7807Y-3.0807
X8.8807Y-2.9807
X8.8807Y-3.0807
X8.9807Y-2.9807
X8.9807Y-3.0807
X6.5748Y-4.8071
X6.5748Y-4.9071
X6.5748Y-5.0071
X6.5748Y-5.1071
X6.6748Y-4.8071
X6.6748Y-4.9071
X6.6748Y-5.0071
X6.6748Y-5.1071
T9
X8.0217Y-4.6024
X8.0217Y-4.8583
X8.1988Y-4.6024
X8.1988Y-4.8583
X7.0925Y-5.1535
X7.0925Y-5.4094
X7.2697Y-5.1535
X7.2697Y-5.4094
X6.8051Y-5.1535
X6.8051Y-5.4094
X6.9823Y-5.1535
X6.9823Y-5.4094
T10
X6.7618Y-3.1929
X6.7618Y-3.3898
T11
X9.3031Y-4.6457
X7.248Y-3.8366
T12
X7.2768Y-3.0626
X7.7508Y-3.0626
X9.1429Y-3.0626
X9.6169Y-3.0626
T13
X6.7126Y-5.7087
X6.7126Y-2.8543
X9.8425Y-2.8543
X9.8425Y-5.7087
T0
M30
